<ttFont>
<head>
    <!-- Most of this table will be recalculated by the compiler -->
    <tableVersion value="1.0"/>
    <fontRevision value="2.01"/>
    <checkSumAdjustment value="0xfa26e2e0"/>
    <magicNumber value="0x5f0f3cf5"/>
    <flags value="00000000 00000011"/>
    <unitsPerEm value="1000"/>
    <created value="Wed Feb  7 19:23:49 2018"/>
    <modified value="Wed Feb  7 11:23:52 2018"/>
    <xMin value="-479"/>
    <yMin value="-711"/>
    <xMax value="1872"/>
    <yMax value="1056"/>
    <macStyle value="00000000 00000000"/>
    <lowestRecPPEM value="7"/>
    <fontDirectionHint value="2"/>
    <indexToLocFormat value="0"/>
    <glyphDataFormat value="0"/>
  </head>
    <TTGlyph name=".notdef" xMin="160" yMin="0" xMax="596" yMax="701">
      <contour>
        <pt x="596" y="701" on="1"/>
        <pt x="596" y="0" on="1"/>
        <pt x="160" y="0" on="1"/>
        <pt x="160" y="701" on="1"/>
      </contour>
      <contour>
        <pt x="516" y="76" on="1"/>
        <pt x="516" y="625" on="1"/>
        <pt x="241" y="625" on="1"/>
        <pt x="241" y="76" on="1"/>
      </contour>
    </TTGlyph>
    <TTGlyph name="A" xMin="5" yMin="0" xMax="484" yMax="693">
      <contour>
        <pt x="312" y="160" on="1"/>
        <pt x="175" y="160" on="1"/>
        <pt x="148" y="0" on="1"/>
        <pt x="5" y="0" on="1"/>
        <pt x="141" y="693" on="1"/>
        <pt x="350" y="693" on="1"/>
        <pt x="484" y="0" on="1"/>
        <pt x="341" y="0" on="1"/>
      </contour>
      <contour>
        <pt x="290" y="287" on="1"/>
        <pt x="242" y="555" on="1"/>
        <pt x="196" y="287" on="1"/>
      </contour>
    </TTGlyph>
    <TTGlyph name="AE" xMin="0" yMin="0" xMax="696" yMax="693">
      <contour>
        <pt x="495" y="563" on="1"/>
        <pt x="495" y="416" on="1"/>
        <pt x="669" y="416" on="1"/>
        <pt x="669" y="286" on="1"/>
        <pt x="495" y="286" on="1"/>
        <pt x="495" y="130" on="1"/>
        <pt x="696" y="130" on="1"/>
        <pt x="696" y="0" on="1"/>
        <pt x="355" y="0" on="1"/>
        <pt x="355" y="160" on="1"/>
        <pt x="202" y="160" on="1"/>
        <pt x="145" y="0" on="1"/>
        <pt x="0" y="0" on="1"/>
        <pt x="266" y="693" on="1"/>
        <pt x="696" y="693" on="1"/>
        <pt x="696" y="563" on="1"/>
      </contour>
      <contour>
        <pt x="355" y="287" on="1"/>
        <pt x="355" y="589" on="1"/>
        <pt x="247" y="287" on="1"/>
      </contour>
    </TTGlyph>
    <TTGlyph name="Aacute" xMin="5" yMin="0" xMax="484" yMax="847">
      <component glyphName="A" x="0" y="0" flags="0x0"/>
      <component glyphName="acute" x="100" y="100" flags="0x4"/>
    </TTGlyph>
    <TTGlyph name="Abreve" xMin="5" yMin="0" xMax="484" yMax="847">
      <component glyphName="A" x="0" y="0" flags="0x0"/>
      <component glyphName="breve" x="67" y="100" flags="0x4"/>
    </TTGlyph>
    <TTGlyph name="Acircumflex" xMin="5" yMin="0" xMax="484" yMax="847">
      <component glyphName="A" x="0" y="0" flags="0x0"/>
      <component glyphName="circumflex" x="75" y="100" flags="0x4"/>
    </TTGlyph>
    <TTGlyph name="Adieresis" xMin="5" yMin="0" xMax="484" yMax="844">
      <component glyphName="dieresis" x="67" y="100" flags="0x4"/>
      <component glyphName="A" x="0" y="0" flags="0x0"/>
    </TTGlyph>
    <TTGlyph name="Agrave" xMin="5" yMin="0" xMax="484" yMax="847">
      <component glyphName="A" x="0" y="0" flags="0x0"/>
      <component glyphName="grave" x="30" y="100" flags="0x4"/>
    </TTGlyph>
    <TTGlyph name="Amacron" xMin="5" yMin="0" xMax="484" yMax="828">
      <component glyphName="A" x="0" y="0" flags="0x0"/>
      <component glyphName="macron" x="68" y="100" flags="0x4"/>
    </TTGlyph>
    <TTGlyph name="Aogonek" xMin="5" yMin="-200" xMax="485" yMax="693">
      <component glyphName="A" x="0" y="0" flags="0x0"/>
      <component glyphName="ogonek" x="249" y="0" flags="0x0"/>
    </TTGlyph>
    <TTGlyph name="Aring" xMin="5" yMin="0" xMax="484" yMax="868">
      <component glyphName="A" x="0" y="0" flags="0x0"/>
      <component glyphName="ring" x="67" y="100" flags="0x4"/>
    </TTGlyph>
    <TTGlyph name="Atilde" xMin="5" yMin="0" xMax="484" yMax="844">
      <component glyphName="A" x="0" y="0" flags="0x0"/>
      <component glyphName="tilde" x="64" y="100" flags="0x4"/>
    </TTGlyph>
    <TTGlyph name="B" xMin="45" yMin="0" xMax="458" yMax="693">
      <contour>
        <pt x="458" y="332" on="0"/>
        <pt x="458" y="230" on="1"/>
        <pt x="458" y="159" on="1"/>
        <pt x="458" y="75" on="0"/>
        <pt x="371" y="0" on="0"/>
        <pt x="288" y="0" on="1"/>
        <pt x="45" y="0" on="1"/>
        <pt x="45" y="693" on="1"/>
        <pt x="282" y="693" on="1"/>
        <pt x="365" y="693" on="0"/>
        <pt x="452" y="618" on="0"/>
        <pt x="452" y="534" on="1"/>
        <pt x="452" y="469" on="1"/>
        <pt x="452" y="372" on="0"/>
        <pt x="381" y="350" on="1"/>
      </contour>
      <contour>
        <pt x="195" y="567" on="1"/>
        <pt x="195" y="416" on="1"/>
        <pt x="257" y="416" on="1"/>
        <pt x="280" y="416" on="0"/>
        <pt x="304" y="436" on="0"/>
        <pt x="304" y="459" on="1"/>
        <pt x="304" y="524" on="1"/>
        <pt x="304" y="547" on="0"/>
        <pt x="280" y="567" on="0"/>
        <pt x="257" y="567" on="1"/>
      </contour>
      <contour>
        <pt x="310" y="240" on="1"/>
        <pt x="310" y="263" on="0"/>
        <pt x="286" y="283" on="0"/>
        <pt x="263" y="283" on="1"/>
        <pt x="195" y="283" on="1"/>
        <pt x="195" y="126" on="1"/>
        <pt x="263" y="126" on="1"/>
        <pt x="286" y="126" on="0"/>
        <pt x="310" y="146" on="0"/>
        <pt x="310" y="169" on="1"/>
      </contour>
    </TTGlyph>
    <TTGlyph name="C" xMin="35" yMin="-5" xMax="387" yMax="698">
      <contour>
        <pt x="35" y="609" on="0"/>
        <pt x="146" y="698" on="0"/>
        <pt x="258" y="698" on="1"/>
        <pt x="331" y="698" on="0"/>
        <pt x="384" y="684" on="1"/>
        <pt x="384" y="546" on="1"/>
        <pt x="328" y="563" on="0"/>
        <pt x="260" y="563" on="1"/>
        <pt x="219" y="563" on="0"/>
        <pt x="187" y="538" on="0"/>
        <pt x="187" y="514" on="1"/>
        <pt x="187" y="178" on="1"/>
        <pt x="187" y="155" on="0"/>
        <pt x="220" y="130" on="0"/>
        <pt x="260" y="130" on="1"/>
        <pt x="338" y="130" on="0"/>
        <pt x="387" y="145" on="1"/>
        <pt x="387" y="10" on="1"/>
        <pt x="364" y="4" on="0"/>
        <pt x="293" y="-5" on="0"/>
        <pt x="256" y="-5" on="1"/>
        <pt x="144" y="-5" on="0"/>
        <pt x="35" y="83" on="0"/>
        <pt x="35" y="163" on="1"/>
        <pt x="35" y="529" on="1"/>
      </contour>
    </TTGlyph>
    <TTGlyph name="Cacute" xMin="35" yMin="-5" xMax="387" yMax="847">
      <component glyphName="C" x="0" y="0" flags="0x0"/>
      <component glyphName="acute" x="110" y="100" flags="0x4"/>
    </TTGlyph>
    <TTGlyph name="Ccaron" xMin="35" yMin="-5" xMax="387" yMax="847">
      <component glyphName="C" x="0" y="0" flags="0x0"/>
      <component glyphName="caron" x="69" y="100" flags="0x4"/>
    </TTGlyph>
    <TTGlyph name="Ccedilla" xMin="35" yMin="-191" xMax="387" yMax="698">
      <component glyphName="C" x="0" y="0" flags="0x0"/>
      <component glyphName="cedilla" x="62" y="0" flags="0x0"/>
    </TTGlyph>
    <TTGlyph name="D" xMin="45" yMin="0" xMax="458" yMax="693">
      <contour>
        <pt x="369" y="693" on="0"/>
        <pt x="458" y="615" on="0"/>
        <pt x="458" y="539" on="1"/>
        <pt x="458" y="163" on="1"/>
        <pt x="458" y="0" on="0"/>
        <pt x="297" y="0" on="1"/>
        <pt x="45" y="0" on="1"/>
        <pt x="45" y="693" on="1"/>
        <pt x="288" y="693" on="1"/>
      </contour>
      <contour>
        <pt x="308" y="551" on="0"/>
        <pt x="291" y="570" on="0"/>
        <pt x="267" y="570" on="1"/>
        <pt x="195" y="570" on="1"/>
        <pt x="195" y="129" on="1"/>
        <pt x="267" y="129" on="1"/>
        <pt x="291" y="129" on="0"/>
        <pt x="308" y="154" on="0"/>
        <pt x="308" y="175" on="1"/>
        <pt x="308" y="533" on="1"/>
      </contour>
    </TTGlyph>
    <TTGlyph name="Dcaron" xMin="45" yMin="0" xMax="458" yMax="847">
      <component glyphName="D" x="0" y="0" flags="0x0"/>
      <component glyphName="caron" x="60" y="100" flags="0x4"/>
    </TTGlyph>
    <TTGlyph name="Dcroat" xMin="-9" yMin="0" xMax="468" yMax="693">
      <contour>
        <pt x="379" y="693" on="0"/>
        <pt x="468" y="615" on="0"/>
        <pt x="468" y="539" on="1"/>
        <pt x="468" y="163" on="1"/>
        <pt x="468" y="0" on="0"/>
        <pt x="307" y="0" on="1"/>
        <pt x="55" y="0" on="1"/>
        <pt x="55" y="279" on="1"/>
        <pt x="-9" y="279" on="1"/>
        <pt x="-9" y="403" on="1"/>
        <pt x="55" y="403" on="1"/>
        <pt x="55" y="693" on="1"/>
        <pt x="298" y="693" on="1"/>
      </contour>
      <contour>
        <pt x="318" y="533" on="1"/>
        <pt x="318" y="551" on="0"/>
        <pt x="301" y="570" on="0"/>
        <pt x="277" y="570" on="1"/>
        <pt x="205" y="570" on="1"/>
        <pt x="205" y="403" on="1"/>
        <pt x="261" y="403" on="1"/>
        <pt x="261" y="279" on="1"/>
        <pt x="205" y="279" on="1"/>
        <pt x="205" y="129" on="1"/>
        <pt x="277" y="129" on="1"/>
        <pt x="301" y="129" on="0"/>
        <pt x="318" y="154" on="0"/>
        <pt x="318" y="175" on="1"/>
      </contour>
    </TTGlyph>
    <TTGlyph name="E" xMin="45" yMin="0" xMax="396" yMax="693">
      <contour>
        <pt x="396" y="563" on="1"/>
        <pt x="195" y="563" on="1"/>
        <pt x="195" y="416" on="1"/>
        <pt x="369" y="416" on="1"/>
        <pt x="369" y="286" on="1"/>
        <pt x="195" y="286" on="1"/>
        <pt x="195" y="130" on="1"/>
        <pt x="396" y="130" on="1"/>
        <pt x="396" y="0" on="1"/>
        <pt x="45" y="0" on="1"/>
        <pt x="45" y="693" on="1"/>
        <pt x="396" y="693" on="1"/>
      </contour>
    </TTGlyph>
    <TTGlyph name="Eacute" xMin="45" yMin="0" xMax="396" yMax="847">
      <component glyphName="E" x="0" y="0" flags="0x0"/>
      <component glyphName="acute" x="79" y="100" flags="0x4"/>
    </TTGlyph>
    <TTGlyph name="Ecaron" xMin="45" yMin="0" xMax="396" yMax="847">
      <component glyphName="E" x="0" y="0" flags="0x0"/>
      <component glyphName="caron" x="41" y="100" flags="0x4"/>
    </TTGlyph>
    <TTGlyph name="Ecircumflex" xMin="45" yMin="0" xMax="396" yMax="847">
      <component glyphName="E" x="0" y="0" flags="0x0"/>
      <component glyphName="circumflex" x="39" y="100" flags="0x4"/>
    </TTGlyph>
    <TTGlyph name="Edieresis" xMin="45" yMin="0" xMax="396" yMax="844">
      <component glyphName="E" x="0" y="0" flags="0x0"/>
      <component glyphName="dieresis" x="46" y="100" flags="0x4"/>
    </TTGlyph>
    <TTGlyph name="Edotaccent" xMin="45" yMin="0" xMax="396" yMax="844">
      <component glyphName="E" x="0" y="0" flags="0x0"/>
      <component glyphName="dotaccent" x="46" y="100" flags="0x4"/>
    </TTGlyph>
    <TTGlyph name="Egrave" xMin="45" yMin="0" xMax="396" yMax="847">
      <component glyphName="E" x="0" y="0" flags="0x0"/>
      <component glyphName="grave" x="10" y="100" flags="0x4"/>
    </TTGlyph>
    <TTGlyph name="Emacron" xMin="45" yMin="0" xMax="396" yMax="828">
      <component glyphName="E" x="0" y="0" flags="0x0"/>
      <component glyphName="macron" x="41" y="100" flags="0x4"/>
    </TTGlyph>
    <TTGlyph name="Eogonek" xMin="45" yMin="-200" xMax="396" yMax="693">
      <component glyphName="E" x="0" y="0" flags="0x0"/>
      <component glyphName="ogonek" x="160" y="0" flags="0x0"/>
    </TTGlyph>
    <TTGlyph name="Eth" xMin="-9" yMin="0" xMax="468" yMax="693">
      <contour>
        <pt x="379" y="693" on="0"/>
        <pt x="468" y="615" on="0"/>
        <pt x="468" y="539" on="1"/>
        <pt x="468" y="163" on="1"/>
        <pt x="468" y="0" on="0"/>
        <pt x="307" y="0" on="1"/>
        <pt x="55" y="0" on="1"/>
        <pt x="55" y="279" on="1"/>
        <pt x="-9" y="279" on="1"/>
        <pt x="-9" y="403" on="1"/>
        <pt x="55" y="403" on="1"/>
        <pt x="55" y="693" on="1"/>
        <pt x="298" y="693" on="1"/>
      </contour>
      <contour>
        <pt x="318" y="533" on="1"/>
        <pt x="318" y="551" on="0"/>
        <pt x="301" y="570" on="0"/>
        <pt x="277" y="570" on="1"/>
        <pt x="205" y="570" on="1"/>
        <pt x="205" y="403" on="1"/>
        <pt x="261" y="403" on="1"/>
        <pt x="261" y="279" on="1"/>
        <pt x="205" y="279" on="1"/>
        <pt x="205" y="129" on="1"/>
        <pt x="277" y="129" on="1"/>
        <pt x="301" y="129" on="0"/>
        <pt x="318" y="154" on="0"/>
        <pt x="318" y="175" on="1"/>
      </contour>
    </TTGlyph>
    <TTGlyph name="Euro" xMin="20" yMin="-5" xMax="424" yMax="698">
      <contour>
        <pt x="375" y="130" on="0"/>
        <pt x="424" y="145" on="1"/>
        <pt x="424" y="10" on="1"/>
        <pt x="401" y="4" on="0"/>
        <pt x="330" y="-5" on="0"/>
        <pt x="293" y="-5" on="1"/>
        <pt x="181" y="-5" on="0"/>
        <pt x="72" y="83" on="0"/>
        <pt x="72" y="163" on="1"/>
        <pt x="72" y="231" on="1"/>
        <pt x="20" y="231" on="1"/>
        <pt x="20" y="329" on="1"/>
        <pt x="72" y="329" on="1"/>
        <pt x="72" y="369" on="1"/>
        <pt x="20" y="369" on="1"/>
        <pt x="20" y="467" on="1"/>
        <pt x="72" y="467" on="1"/>
        <pt x="72" y="529" on="1"/>
        <pt x="72" y="609" on="0"/>
        <pt x="183" y="698" on="0"/>
        <pt x="295" y="698" on="1"/>
        <pt x="368" y="698" on="0"/>
        <pt x="421" y="684" on="1"/>
        <pt x="421" y="546" on="1"/>
        <pt x="365" y="563" on="0"/>
        <pt x="297" y="563" on="1"/>
        <pt x="256" y="563" on="0"/>
        <pt x="224" y="538" on="0"/>
        <pt x="224" y="514" on="1"/>
        <pt x="224" y="467" on="1"/>
        <pt x="324" y="467" on="1"/>
        <pt x="324" y="369" on="1"/>
        <pt x="224" y="369" on="1"/>
        <pt x="224" y="329" on="1"/>
        <pt x="324" y="329" on="1"/>
        <pt x="324" y="231" on="1"/>
        <pt x="224" y="231" on="1"/>
        <pt x="224" y="178" on="1"/>
        <pt x="224" y="155" on="0"/>
        <pt x="257" y="130" on="0"/>
        <pt x="297" y="130" on="1"/>
      </contour>
    </TTGlyph>
    <TTGlyph name="F" xMin="45" yMin="0" xMax="388" yMax="693">
      <contour>
        <pt x="388" y="562" on="1"/>
        <pt x="197" y="562" on="1"/>
        <pt x="197" y="391" on="1"/>
        <pt x="373" y="391" on="1"/>
        <pt x="373" y="257" on="1"/>
        <pt x="197" y="257" on="1"/>
        <pt x="197" y="0" on="1"/>
        <pt x="45" y="0" on="1"/>
        <pt x="45" y="693" on="1"/>
        <pt x="388" y="693" on="1"/>
      </contour>
    </TTGlyph>
    <TTGlyph name="G" xMin="35" yMin="-5" xMax="438" yMax="698">
      <contour>
        <pt x="35" y="605" on="0"/>
        <pt x="156" y="698" on="0"/>
        <pt x="268" y="698" on="1"/>
        <pt x="309" y="698" on="0"/>
        <pt x="386" y="687" on="0"/>
        <pt x="409" y="679" on="1"/>
        <pt x="409" y="537" on="1"/>
        <pt x="382" y="547" on="0"/>
        <pt x="308" y="560" on="0"/>
        <pt x="270" y="560" on="1"/>
        <pt x="229" y="560" on="0"/>
        <pt x="187" y="532" on="0"/>
        <pt x="187" y="508" on="1"/>
        <pt x="187" y="179" on="1"/>
        <pt x="187" y="155" on="0"/>
        <pt x="217" y="130" on="0"/>
        <pt x="256" y="130" on="1"/>
        <pt x="276" y="130" on="0"/>
        <pt x="292" y="138" on="1"/>
        <pt x="292" y="372" on="1"/>
        <pt x="438" y="372" on="1"/>
        <pt x="438" y="37" on="1"/>
        <pt x="401" y="17" on="0"/>
        <pt x="321" y="-5" on="0"/>
        <pt x="258" y="-5" on="1"/>
        <pt x="146" y="-5" on="0"/>
        <pt x="35" y="83" on="0"/>
        <pt x="35" y="163" on="1"/>
        <pt x="35" y="526" on="1"/>
      </contour>
    </TTGlyph>
    <TTGlyph name="Gbreve" xMin="35" yMin="-5" xMax="438" yMax="847">
      <component glyphName="G" x="0" y="0" flags="0x0"/>
      <component glyphName="breve" x="76" y="100" flags="0x4"/>
    </TTGlyph>
    <TTGlyph name="H" xMin="45" yMin="0" xMax="487" yMax="693">
      <contour>
        <pt x="487" y="693" on="1"/>
        <pt x="487" y="0" on="1"/>
        <pt x="335" y="0" on="1"/>
        <pt x="335" y="274" on="1"/>
        <pt x="197" y="274" on="1"/>
        <pt x="197" y="0" on="1"/>
        <pt x="45" y="0" on="1"/>
        <pt x="45" y="693" on="1"/>
        <pt x="197" y="693" on="1"/>
        <pt x="197" y="408" on="1"/>
        <pt x="335" y="408" on="1"/>
        <pt x="335" y="693" on="1"/>
      </contour>
    </TTGlyph>
    <TTGlyph name="I" xMin="45" yMin="0" xMax="197" yMax="693">
      <contour>
        <pt x="197" y="0" on="1"/>
        <pt x="45" y="0" on="1"/>
        <pt x="45" y="693" on="1"/>
        <pt x="197" y="693" on="1"/>
      </contour>
    </TTGlyph>
    <TTGlyph name="Iacute" xMin="45" yMin="0" xMax="232" yMax="847">
      <component glyphName="I" x="0" y="0" flags="0x0"/>
      <component glyphName="acute" x="-20" y="100" flags="0x4"/>
    </TTGlyph>
    <TTGlyph name="Icircumflex" xMin="7" yMin="0" xMax="234" yMax="847">
      <component glyphName="I" x="0" y="0" flags="0x0"/>
      <component glyphName="circumflex" x="-54" y="100" flags="0x4"/>
    </TTGlyph>
    <TTGlyph name="Idieresis" xMin="-23" yMin="0" xMax="264" yMax="844">
      <component glyphName="I" x="0" y="0" flags="0x0"/>
      <component glyphName="dieresis" x="-55" y="100" flags="0x4"/>
    </TTGlyph>
    <TTGlyph name="Idotaccent" xMin="45" yMin="0" xMax="197" yMax="844">
      <component glyphName="I" x="0" y="0" flags="0x0"/>
      <component glyphName="dotaccent" x="-56" y="100" flags="0x4"/>
    </TTGlyph>
    <TTGlyph name="Igrave" xMin="10" yMin="0" xMax="197" yMax="847">
      <component glyphName="I" x="0" y="0" flags="0x0"/>
      <component glyphName="grave" x="-88" y="100" flags="0x4"/>
    </TTGlyph>
    <TTGlyph name="Imacron" xMin="-9" yMin="0" xMax="258" yMax="828">
      <component glyphName="I" x="0" y="0" flags="0x0"/>
      <component glyphName="macron" x="-50" y="100" flags="0x4"/>
    </TTGlyph>
    <TTGlyph name="Iogonek" xMin="45" yMin="-200" xMax="197" yMax="693">
      <component glyphName="I" x="0" y="0" flags="0x0"/>
      <component glyphName="ogonek" x="-39" y="0" flags="0x0"/>
    </TTGlyph>
    <TTGlyph name="J" xMin="-23" yMin="-149" xMax="202" yMax="693">
      <contour>
        <pt x="202" y="208" on="1"/>
        <pt x="202" y="126" on="0"/>
        <pt x="188" y="25" on="0"/>
        <pt x="167" y="-46" on="1"/>
        <pt x="136" y="-149" on="1"/>
        <pt x="-23" y="-149" on="1"/>
        <pt x="7" y="-46" on="1"/>
        <pt x="30" y="34" on="0"/>
        <pt x="50" y="141" on="0"/>
        <pt x="50" y="207" on="1"/>
        <pt x="50" y="693" on="1"/>
        <pt x="202" y="693" on="1"/>
      </contour>
    </TTGlyph>
    <TTGlyph name="K" xMin="45" yMin="0" xMax="481" yMax="693">
      <contour>
        <pt x="314" y="0" on="1"/>
        <pt x="195" y="331" on="1"/>
        <pt x="195" y="0" on="1"/>
        <pt x="45" y="0" on="1"/>
        <pt x="45" y="693" on="1"/>
        <pt x="195" y="693" on="1"/>
        <pt x="195" y="381" on="1"/>
        <pt x="309" y="693" on="1"/>
        <pt x="469" y="693" on="1"/>
        <pt x="342" y="358" on="1"/>
        <pt x="481" y="0" on="1"/>
      </contour>
    </TTGlyph>
    <TTGlyph name="L" xMin="45" yMin="0" xMax="382" yMax="693">
      <contour>
        <pt x="197" y="126" on="1"/>
        <pt x="382" y="126" on="1"/>
        <pt x="382" y="0" on="1"/>
        <pt x="45" y="0" on="1"/>
        <pt x="45" y="693" on="1"/>
        <pt x="197" y="693" on="1"/>
      </contour>
    </TTGlyph>
    <TTGlyph name="Lacute" xMin="45" yMin="0" xMax="382" yMax="847">
      <component glyphName="L" x="0" y="0" flags="0x0"/>
      <component glyphName="acute" x="-20" y="100" flags="0x4"/>
    </TTGlyph>
    <TTGlyph name="Lcaron" xMin="45" yMin="0" xMax="382" yMax="747">
      <contour>
        <pt x="338" y="747" on="0"/>
        <pt x="338" y="715" on="1"/>
        <pt x="338" y="690" on="0"/>
        <pt x="299" y="616" on="0"/>
        <pt x="280" y="592" on="1"/>
        <pt x="232" y="592" on="1"/>
        <pt x="257" y="747" on="1"/>
        <pt x="303" y="747" on="1"/>
      </contour>
      <contour>
        <pt x="197" y="126" on="1"/>
        <pt x="382" y="126" on="1"/>
        <pt x="382" y="0" on="1"/>
        <pt x="45" y="0" on="1"/>
        <pt x="45" y="693" on="1"/>
        <pt x="197" y="693" on="1"/>
      </contour>
    </TTGlyph>
    <TTGlyph name="Lslash" xMin="0" yMin="0" xMax="392" yMax="693">
      <contour>
        <pt x="392" y="126" on="1"/>
        <pt x="392" y="0" on="1"/>
        <pt x="55" y="0" on="1"/>
        <pt x="55" y="264" on="1"/>
        <pt x="0" y="241" on="1"/>
        <pt x="0" y="341" on="1"/>
        <pt x="55" y="364" on="1"/>
        <pt x="55" y="693" on="1"/>
        <pt x="207" y="693" on="1"/>
        <pt x="207" y="426" on="1"/>
        <pt x="293" y="461" on="1"/>
        <pt x="293" y="361" on="1"/>
        <pt x="207" y="326" on="1"/>
        <pt x="207" y="126" on="1"/>
      </contour>
    </TTGlyph>
    <TTGlyph name="M" xMin="45" yMin="0" xMax="604" yMax="693">
      <contour>
        <pt x="604" y="0" on="1"/>
        <pt x="459" y="0" on="1"/>
        <pt x="459" y="241" on="1"/>
        <pt x="459" y="291" on="0"/>
        <pt x="467" y="382" on="0"/>
        <pt x="476" y="439" on="0"/>
        <pt x="478" y="446" on="1"/>
        <pt x="382" y="176" on="1"/>
        <pt x="266" y="176" on="1"/>
        <pt x="170" y="446" on="1"/>
        <pt x="172" y="439" on="0"/>
        <pt x="181" y="382" on="0"/>
        <pt x="189" y="291" on="0"/>
        <pt x="189" y="241" on="1"/>
        <pt x="189" y="0" on="1"/>
        <pt x="45" y="0" on="1"/>
        <pt x="45" y="693" on="1"/>
        <pt x="199" y="693" on="1"/>
        <pt x="324" y="339" on="1"/>
        <pt x="449" y="693" on="1"/>
        <pt x="604" y="693" on="1"/>
      </contour>
    </TTGlyph>
    <TTGlyph name="N" xMin="45" yMin="0" xMax="487" yMax="693">
      <contour>
        <pt x="487" y="693" on="1"/>
        <pt x="487" y="0" on="1"/>
        <pt x="343" y="0" on="1"/>
        <pt x="250" y="238" on="1"/>
        <pt x="204" y="355" on="0"/>
        <pt x="170" y="465" on="0"/>
        <pt x="168" y="470" on="1"/>
        <pt x="175" y="449" on="0"/>
        <pt x="193" y="303" on="0"/>
        <pt x="193" y="184" on="1"/>
        <pt x="193" y="0" on="1"/>
        <pt x="45" y="0" on="1"/>
        <pt x="45" y="693" on="1"/>
        <pt x="193" y="693" on="1"/>
        <pt x="284" y="461" on="1"/>
        <pt x="318" y="373" on="0"/>
        <pt x="358" y="253" on="0"/>
        <pt x="363" y="231" on="1"/>
        <pt x="355" y="260" on="0"/>
        <pt x="339" y="404" on="0"/>
        <pt x="339" y="519" on="1"/>
        <pt x="339" y="693" on="1"/>
      </contour>
    </TTGlyph>
    <TTGlyph name="Nacute" xMin="45" yMin="0" xMax="487" yMax="847">
      <component glyphName="N" x="0" y="0" flags="0x0"/>
      <component glyphName="acute" x="113" y="100" flags="0x4"/>
    </TTGlyph>
    <TTGlyph name="Ncaron" xMin="45" yMin="0" xMax="487" yMax="847">
      <component glyphName="N" x="0" y="0" flags="0x0"/>
      <component glyphName="caron" x="83" y="100" flags="0x4"/>
    </TTGlyph>
    <TTGlyph name="Ntilde" xMin="45" yMin="0" xMax="487" yMax="844">
      <component glyphName="N" x="0" y="0" flags="0x0"/>
      <component glyphName="tilde" x="97" y="100" flags="0x4"/>
    </TTGlyph>
    <TTGlyph name="O" xMin="35" yMin="-10" xMax="454" yMax="703">
      <contour>
        <pt x="35" y="606" on="0"/>
        <pt x="141" y="703" on="0"/>
        <pt x="244" y="703" on="1"/>
        <pt x="347" y="703" on="0"/>
        <pt x="454" y="606" on="0"/>
        <pt x="454" y="524" on="1"/>
        <pt x="454" y="169" on="1"/>
        <pt x="454" y="87" on="0"/>
        <pt x="347" y="-10" on="0"/>
        <pt x="244" y="-10" on="1"/>
        <pt x="141" y="-10" on="0"/>
        <pt x="35" y="87" on="0"/>
        <pt x="35" y="169" on="1"/>
        <pt x="35" y="524" on="1"/>
      </contour>
      <contour>
        <pt x="304" y="539" on="0"/>
        <pt x="274" y="566" on="0"/>
        <pt x="244" y="566" on="1"/>
        <pt x="185" y="566" on="0"/>
        <pt x="185" y="516" on="1"/>
        <pt x="185" y="177" on="1"/>
        <pt x="185" y="127" on="0"/>
        <pt x="244" y="127" on="1"/>
        <pt x="304" y="127" on="0"/>
        <pt x="304" y="177" on="1"/>
        <pt x="304" y="516" on="1"/>
      </contour>
    </TTGlyph>
    <TTGlyph name="OE" xMin="55" yMin="0" xMax="685" yMax="693">
      <contour>
        <pt x="484" y="563" on="1"/>
        <pt x="484" y="416" on="1"/>
        <pt x="658" y="416" on="1"/>
        <pt x="658" y="286" on="1"/>
        <pt x="484" y="286" on="1"/>
        <pt x="484" y="130" on="1"/>
        <pt x="685" y="130" on="1"/>
        <pt x="685" y="0" on="1"/>
        <pt x="216" y="0" on="1"/>
        <pt x="55" y="0" on="0"/>
        <pt x="55" y="163" on="1"/>
        <pt x="55" y="539" on="1"/>
        <pt x="55" y="615" on="0"/>
        <pt x="144" y="693" on="0"/>
        <pt x="225" y="693" on="1"/>
        <pt x="685" y="693" on="1"/>
        <pt x="685" y="563" on="1"/>
      </contour>
      <contour>
        <pt x="334" y="129" on="1"/>
        <pt x="334" y="570" on="1"/>
        <pt x="246" y="570" on="1"/>
        <pt x="222" y="570" on="0"/>
        <pt x="205" y="551" on="0"/>
        <pt x="205" y="533" on="1"/>
        <pt x="205" y="175" on="1"/>
        <pt x="205" y="154" on="0"/>
        <pt x="222" y="129" on="0"/>
        <pt x="246" y="129" on="1"/>
      </contour>
    </TTGlyph>
    <TTGlyph name="Oacute" xMin="35" yMin="-10" xMax="454" yMax="847">
      <component glyphName="O" x="0" y="0" flags="0x0"/>
      <component glyphName="acute" x="115" y="100" flags="0x4"/>
    </TTGlyph>
    <TTGlyph name="Ocircumflex" xMin="35" yMin="-10" xMax="454" yMax="847">
      <component glyphName="O" x="0" y="0" flags="0x0"/>
      <component glyphName="circumflex" x="72" y="100" flags="0x4"/>
    </TTGlyph>
    <TTGlyph name="Odieresis" xMin="35" yMin="-10" xMax="454" yMax="844">
      <component glyphName="O" x="0" y="0" flags="0x0"/>
      <component glyphName="dieresis" x="69" y="100" flags="0x4"/>
    </TTGlyph>
    <TTGlyph name="Ograve" xMin="35" yMin="-10" xMax="454" yMax="847">
      <component glyphName="O" x="0" y="0" flags="0x0"/>
      <component glyphName="grave" x="30" y="100" flags="0x4"/>
    </TTGlyph>
    <TTGlyph name="Ohungarumlaut" xMin="35" yMin="-10" xMax="454" yMax="847">
      <component glyphName="O" x="0" y="0" flags="0x0"/>
      <component glyphName="hungarumlaut" x="103" y="100" flags="0x4"/>
    </TTGlyph>
    <TTGlyph name="Omacron" xMin="35" yMin="-10" xMax="454" yMax="828">
      <component glyphName="O" x="0" y="0" flags="0x0"/>
      <component glyphName="macron" x="71" y="100" flags="0x4"/>
    </TTGlyph>
    <TTGlyph name="Oslash" xMin="30" yMin="-10" xMax="459" yMax="703">
      <contour>
        <pt x="426" y="625" on="1"/>
        <pt x="454" y="584" on="0"/>
        <pt x="454" y="524" on="1"/>
        <pt x="454" y="169" on="1"/>
        <pt x="454" y="87" on="0"/>
        <pt x="347" y="-10" on="0"/>
        <pt x="244" y="-10" on="1"/>
        <pt x="175" y="-10" on="0"/>
        <pt x="126" y="13" on="1"/>
        <pt x="120" y="0" on="1"/>
        <pt x="30" y="0" on="1"/>
        <pt x="63" y="67" on="1"/>
        <pt x="35" y="108" on="0"/>
        <pt x="35" y="169" on="1"/>
        <pt x="35" y="524" on="1"/>
        <pt x="35" y="606" on="0"/>
        <pt x="141" y="703" on="0"/>
        <pt x="244" y="703" on="1"/>
        <pt x="314" y="703" on="0"/>
        <pt x="362" y="680" on="1"/>
        <pt x="369" y="693" on="1"/>
        <pt x="459" y="693" on="1"/>
      </contour>
      <contour>
        <pt x="185" y="317" on="1"/>
        <pt x="296" y="545" on="1"/>
        <pt x="283" y="566" on="0"/>
        <pt x="244" y="566" on="1"/>
        <pt x="185" y="566" on="0"/>
        <pt x="185" y="516" on="1"/>
      </contour>
      <contour>
        <pt x="304" y="376" on="1"/>
        <pt x="192" y="148" on="1"/>
        <pt x="207" y="127" on="0"/>
        <pt x="244" y="127" on="1"/>
        <pt x="304" y="127" on="0"/>
        <pt x="304" y="177" on="1"/>
      </contour>
    </TTGlyph>
    <TTGlyph name="Otilde" xMin="35" yMin="-10" xMax="454" yMax="844">
      <component glyphName="O" x="0" y="0" flags="0x0"/>
      <component glyphName="tilde" x="67" y="100" flags="0x4"/>
    </TTGlyph>
    <TTGlyph name="P" xMin="45" yMin="0" xMax="445" yMax="693">
      <contour>
        <pt x="352" y="693" on="0"/>
        <pt x="445" y="615" on="0"/>
        <pt x="445" y="539" on="1"/>
        <pt x="445" y="354" on="1"/>
        <pt x="445" y="278" on="0"/>
        <pt x="352" y="200" on="0"/>
        <pt x="271" y="200" on="1"/>
        <pt x="196" y="200" on="1"/>
        <pt x="196" y="0" on="1"/>
        <pt x="45" y="0" on="1"/>
        <pt x="45" y="693" on="1"/>
        <pt x="271" y="693" on="1"/>
      </contour>
      <contour>
        <pt x="295" y="543" on="0"/>
        <pt x="275" y="563" on="0"/>
        <pt x="252" y="563" on="1"/>
        <pt x="196" y="563" on="1"/>
        <pt x="196" y="330" on="1"/>
        <pt x="252" y="330" on="1"/>
        <pt x="275" y="330" on="0"/>
        <pt x="295" y="350" on="0"/>
        <pt x="295" y="372" on="1"/>
        <pt x="295" y="521" on="1"/>
      </contour>
    </TTGlyph>
    <TTGlyph name="Q" xMin="35" yMin="-87" xMax="508" yMax="703">
      <contour>
        <pt x="331" y="-87" on="1"/>
        <pt x="257" y="-10" on="1"/>
        <pt x="244" y="-10" on="1"/>
        <pt x="141" y="-10" on="0"/>
        <pt x="35" y="87" on="0"/>
        <pt x="35" y="169" on="1"/>
        <pt x="35" y="524" on="1"/>
        <pt x="35" y="606" on="0"/>
        <pt x="141" y="703" on="0"/>
        <pt x="244" y="703" on="1"/>
        <pt x="347" y="703" on="0"/>
        <pt x="454" y="606" on="0"/>
        <pt x="454" y="524" on="1"/>
        <pt x="454" y="169" on="1"/>
        <pt x="454" y="79" on="0"/>
        <pt x="392" y="32" on="1"/>
        <pt x="508" y="-87" on="1"/>
      </contour>
      <contour>
        <pt x="185" y="177" on="1"/>
        <pt x="185" y="127" on="0"/>
        <pt x="244" y="127" on="1"/>
        <pt x="304" y="127" on="0"/>
        <pt x="304" y="177" on="1"/>
        <pt x="304" y="516" on="1"/>
        <pt x="304" y="539" on="0"/>
        <pt x="274" y="566" on="0"/>
        <pt x="244" y="566" on="1"/>
        <pt x="185" y="566" on="0"/>
        <pt x="185" y="516" on="1"/>
      </contour>
    </TTGlyph>
    <TTGlyph name="R" xMin="45" yMin="0" xMax="472" yMax="693">
      <contour>
        <pt x="307" y="0" on="1"/>
        <pt x="214" y="250" on="1"/>
        <pt x="195" y="250" on="1"/>
        <pt x="195" y="0" on="1"/>
        <pt x="45" y="0" on="1"/>
        <pt x="45" y="693" on="1"/>
        <pt x="271" y="693" on="1"/>
        <pt x="353" y="693" on="0"/>
        <pt x="445" y="615" on="0"/>
        <pt x="445" y="540" on="1"/>
        <pt x="445" y="412" on="1"/>
        <pt x="445" y="352" on="0"/>
        <pt x="406" y="277" on="0"/>
        <pt x="363" y="262" on="1"/>
        <pt x="472" y="0" on="1"/>
      </contour>
      <contour>
        <pt x="195" y="369" on="1"/>
        <pt x="254" y="369" on="1"/>
        <pt x="277" y="369" on="0"/>
        <pt x="295" y="389" on="0"/>
        <pt x="295" y="414" on="1"/>
        <pt x="295" y="527" on="1"/>
        <pt x="295" y="549" on="0"/>
        <pt x="275" y="565" on="0"/>
        <pt x="254" y="565" on="1"/>
        <pt x="195" y="565" on="1"/>
      </contour>
    </TTGlyph>
    <TTGlyph name="Racute" xMin="45" yMin="0" xMax="472" yMax="847">
      <component glyphName="R" x="0" y="0" flags="0x0"/>
      <component glyphName="acute" x="87" y="100" flags="0x4"/>
    </TTGlyph>
    <TTGlyph name="Rcaron" xMin="45" yMin="0" xMax="472" yMax="847">
      <component glyphName="R" x="0" y="0" flags="0x0"/>
      <component glyphName="caron" x="51" y="100" flags="0x4"/>
    </TTGlyph>
    <TTGlyph name="S" xMin="20" yMin="-5" xMax="421" yMax="698">
      <contour>
        <pt x="20" y="611" on="0"/>
        <pt x="128" y="698" on="0"/>
        <pt x="239" y="698" on="1"/>
        <pt x="288" y="698" on="0"/>
        <pt x="362" y="685" on="0"/>
        <pt x="381" y="677" on="1"/>
        <pt x="381" y="533" on="1"/>
        <pt x="320" y="559" on="0"/>
        <pt x="242" y="559" on="1"/>
        <pt x="202" y="559" on="0"/>
        <pt x="174" y="534" on="0"/>
        <pt x="174" y="511" on="1"/>
        <pt x="174" y="496" on="1"/>
        <pt x="174" y="468" on="0"/>
        <pt x="193" y="441" on="0"/>
        <pt x="225" y="424" on="1"/>
        <pt x="339" y="360" on="1"/>
        <pt x="380" y="337" on="0"/>
        <pt x="421" y="274" on="0"/>
        <pt x="421" y="225" on="1"/>
        <pt x="421" y="163" on="1"/>
        <pt x="421" y="82" on="0"/>
        <pt x="301" y="-5" on="0"/>
        <pt x="184" y="-5" on="1"/>
        <pt x="134" y="-5" on="0"/>
        <pt x="47" y="10" on="0"/>
        <pt x="29" y="18" on="1"/>
        <pt x="29" y="163" on="1"/>
        <pt x="58" y="151" on="0"/>
        <pt x="139" y="134" on="0"/>
        <pt x="182" y="134" on="1"/>
        <pt x="227" y="134" on="0"/>
        <pt x="269" y="161" on="0"/>
        <pt x="269" y="183" on="1"/>
        <pt x="269" y="198" on="1"/>
        <pt x="269" y="221" on="0"/>
        <pt x="250" y="244" on="0"/>
        <pt x="224" y="258" on="1"/>
        <pt x="117" y="316" on="1"/>
        <pt x="71" y="342" on="0"/>
        <pt x="20" y="415" on="0"/>
        <pt x="20" y="468" on="1"/>
        <pt x="20" y="531" on="1"/>
      </contour>
    </TTGlyph>
    <TTGlyph name="Sacute" xMin="20" yMin="-5" xMax="421" yMax="847">
      <component glyphName="S" x="0" y="0" flags="0x0"/>
      <component glyphName="acute" x="84" y="100" flags="0x4"/>
    </TTGlyph>
    <TTGlyph name="Scaron" xMin="20" yMin="-5" xMax="421" yMax="847">
      <component glyphName="S" x="0" y="0" flags="0x0"/>
      <component glyphName="caron" x="40" y="100" flags="0x4"/>
    </TTGlyph>
    <TTGlyph name="T" xMin="5" yMin="0" xMax="407" yMax="693">
      <contour>
        <pt x="407" y="563" on="1"/>
        <pt x="282" y="563" on="1"/>
        <pt x="282" y="0" on="1"/>
        <pt x="130" y="0" on="1"/>
        <pt x="130" y="563" on="1"/>
        <pt x="5" y="563" on="1"/>
        <pt x="5" y="693" on="1"/>
        <pt x="407" y="693" on="1"/>
      </contour>
    </TTGlyph>
    <TTGlyph name="Tcaron" xMin="5" yMin="0" xMax="407" yMax="847">
      <component glyphName="T" x="0" y="0" flags="0x0"/>
      <component glyphName="caron" x="30" y="100" flags="0x4"/>
    </TTGlyph>
    <TTGlyph name="Thorn" xMin="55" yMin="0" xMax="443" yMax="693">
      <contour>
        <pt x="350" y="590" on="0"/>
        <pt x="443" y="512" on="0"/>
        <pt x="443" y="436" on="1"/>
        <pt x="443" y="258" on="1"/>
        <pt x="443" y="182" on="0"/>
        <pt x="350" y="104" on="0"/>
        <pt x="269" y="104" on="1"/>
        <pt x="199" y="104" on="1"/>
        <pt x="199" y="0" on="1"/>
        <pt x="55" y="0" on="1"/>
        <pt x="55" y="693" on="1"/>
        <pt x="199" y="693" on="1"/>
        <pt x="199" y="590" on="1"/>
        <pt x="269" y="590" on="1"/>
      </contour>
      <contour>
        <pt x="299" y="420" on="1"/>
        <pt x="299" y="442" on="0"/>
        <pt x="279" y="462" on="0"/>
        <pt x="256" y="462" on="1"/>
        <pt x="199" y="462" on="1"/>
        <pt x="199" y="232" on="1"/>
        <pt x="256" y="232" on="1"/>
        <pt x="279" y="232" on="0"/>
        <pt x="299" y="252" on="0"/>
        <pt x="299" y="274" on="1"/>
      </contour>
    </TTGlyph>
    <TTGlyph name="U" xMin="40" yMin="-10" xMax="455" yMax="693">
      <contour>
        <pt x="455" y="169" on="1"/>
        <pt x="455" y="87" on="0"/>
        <pt x="350" y="-10" on="0"/>
        <pt x="247" y="-10" on="1"/>
        <pt x="145" y="-10" on="0"/>
        <pt x="40" y="86" on="0"/>
        <pt x="40" y="169" on="1"/>
        <pt x="40" y="693" on="1"/>
        <pt x="190" y="693" on="1"/>
        <pt x="190" y="177" on="1"/>
        <pt x="190" y="127" on="0"/>
        <pt x="247" y="127" on="1"/>
        <pt x="305" y="127" on="0"/>
        <pt x="305" y="177" on="1"/>
        <pt x="305" y="693" on="1"/>
        <pt x="455" y="693" on="1"/>
      </contour>
    </TTGlyph>
    <TTGlyph name="Uacute" xMin="40" yMin="-10" xMax="455" yMax="847">
      <component glyphName="U" x="0" y="0" flags="0x0"/>
      <component glyphName="acute" x="109" y="100" flags="0x4"/>
    </TTGlyph>
    <TTGlyph name="Ucircumflex" xMin="40" yMin="-10" xMax="455" yMax="847">
      <component glyphName="U" x="0" y="0" flags="0x0"/>
      <component glyphName="circumflex" x="73" y="100" flags="0x4"/>
    </TTGlyph>
    <TTGlyph name="Udieresis" xMin="40" yMin="-10" xMax="455" yMax="844">
      <component glyphName="U" x="0" y="0" flags="0x0"/>
      <component glyphName="dieresis" x="71" y="100" flags="0x4"/>
    </TTGlyph>
    <TTGlyph name="Ugrave" xMin="40" yMin="-10" xMax="455" yMax="847">
      <component glyphName="U" x="0" y="0" flags="0x0"/>
      <component glyphName="grave" x="36" y="100" flags="0x4"/>
    </TTGlyph>
    <TTGlyph name="Uhungarumlaut" xMin="40" yMin="-10" xMax="455" yMax="847">
      <component glyphName="hungarumlaut" x="103" y="100" flags="0x4"/>
      <component glyphName="U" x="0" y="0" flags="0x0"/>
    </TTGlyph>
    <TTGlyph name="Umacron" xMin="40" yMin="-10" xMax="455" yMax="828">
      <component glyphName="U" x="0" y="0" flags="0x0"/>
      <component glyphName="macron" x="72" y="100" flags="0x4"/>
    </TTGlyph>
    <TTGlyph name="Uogonek" xMin="40" yMin="-190" xMax="455" yMax="693">
      <component glyphName="U" x="0" y="0" flags="0x0"/>
      <component glyphName="ogonek" x="115" y="10" flags="0x4"/>
    </TTGlyph>
    <TTGlyph name="Uring" xMin="40" yMin="-10" xMax="455" yMax="868">
      <component glyphName="U" x="0" y="0" flags="0x0"/>
      <component glyphName="ring" x="72" y="100" flags="0x4"/>
    </TTGlyph>
    <TTGlyph name="V" xMin="5" yMin="0" xMax="480" yMax="693">
      <contour>
        <pt x="348" y="0" on="1"/>
        <pt x="139" y="0" on="1"/>
        <pt x="5" y="693" on="1"/>
        <pt x="158" y="693" on="1"/>
        <pt x="209" y="400" on="1"/>
        <pt x="219" y="343" on="0"/>
        <pt x="242" y="159" on="0"/>
        <pt x="245" y="130" on="1"/>
        <pt x="248" y="159" on="0"/>
        <pt x="269" y="342" on="0"/>
        <pt x="278" y="398" on="1"/>
        <pt x="324" y="693" on="1"/>
        <pt x="480" y="693" on="1"/>
      </contour>
    </TTGlyph>
    <TTGlyph name="W" xMin="5" yMin="0" xMax="588" yMax="693">
      <contour>
        <pt x="496" y="0" on="1"/>
        <pt x="362" y="0" on="1"/>
        <pt x="321" y="274" on="1"/>
        <pt x="314" y="324" on="0"/>
        <pt x="301" y="446" on="0"/>
        <pt x="299" y="465" on="1"/>
        <pt x="298" y="446" on="0"/>
        <pt x="287" y="324" on="0"/>
        <pt x="279" y="274" on="1"/>
        <pt x="237" y="0" on="1"/>
        <pt x="94" y="0" on="1"/>
        <pt x="5" y="693" on="1"/>
        <pt x="136" y="693" on="1"/>
        <pt x="168" y="465" on="1"/>
        <pt x="176" y="407" on="0"/>
        <pt x="184" y="291" on="0"/>
        <pt x="185" y="274" on="1"/>
        <pt x="207" y="465" on="1"/>
        <pt x="235" y="693" on="1"/>
        <pt x="362" y="693" on="1"/>
        <pt x="388" y="465" on="1"/>
        <pt x="409" y="281" on="1"/>
        <pt x="410" y="298" on="0"/>
        <pt x="419" y="413" on="0"/>
        <pt x="426" y="465" on="1"/>
        <pt x="459" y="693" on="1"/>
        <pt x="588" y="693" on="1"/>
      </contour>
    </TTGlyph>
    <TTGlyph name="X" xMin="5" yMin="0" xMax="463" yMax="693">
      <contour>
        <pt x="314" y="345" on="1"/>
        <pt x="463" y="0" on="1"/>
        <pt x="300" y="0" on="1"/>
        <pt x="236" y="189" on="1"/>
        <pt x="168" y="0" on="1"/>
        <pt x="5" y="0" on="1"/>
        <pt x="153" y="345" on="1"/>
        <pt x="5" y="693" on="1"/>
        <pt x="167" y="693" on="1"/>
        <pt x="236" y="502" on="1"/>
        <pt x="301" y="693" on="1"/>
        <pt x="463" y="693" on="1"/>
      </contour>
    </TTGlyph>
    <TTGlyph name="Y" xMin="0" yMin="0" xMax="482" yMax="693">
      <contour>
        <pt x="317" y="215" on="1"/>
        <pt x="317" y="0" on="1"/>
        <pt x="165" y="0" on="1"/>
        <pt x="165" y="215" on="1"/>
        <pt x="0" y="693" on="1"/>
        <pt x="154" y="693" on="1"/>
        <pt x="187" y="588" on="1"/>
        <pt x="211" y="514" on="0"/>
        <pt x="234" y="418" on="0"/>
        <pt x="243" y="370" on="1"/>
        <pt x="262" y="467" on="0"/>
        <pt x="300" y="590" on="1"/>
        <pt x="332" y="693" on="1"/>
        <pt x="482" y="693" on="1"/>
      </contour>
    </TTGlyph>
    <TTGlyph name="Yacute" xMin="0" yMin="0" xMax="482" yMax="848">
      <component glyphName="Y" x="0" y="0" flags="0x0"/>
      <component glyphName="acute" x="102" y="101" flags="0x4"/>
    </TTGlyph>
    <TTGlyph name="Ydieresis" xMin="0" yMin="0" xMax="482" yMax="844">
      <component glyphName="dieresis" x="68" y="100" flags="0x4"/>
      <component glyphName="Y" x="0" y="0" flags="0x0"/>
    </TTGlyph>
    <TTGlyph name="Z" xMin="20" yMin="0" xMax="405" yMax="693">
      <contour>
        <pt x="401" y="572" on="1"/>
        <pt x="177" y="127" on="1"/>
        <pt x="405" y="127" on="1"/>
        <pt x="405" y="0" on="1"/>
        <pt x="20" y="0" on="1"/>
        <pt x="20" y="127" on="1"/>
        <pt x="238" y="566" on="1"/>
        <pt x="24" y="566" on="1"/>
        <pt x="24" y="693" on="1"/>
        <pt x="401" y="693" on="1"/>
      </contour>
    </TTGlyph>
    <TTGlyph name="Zacute" xMin="20" yMin="0" xMax="405" yMax="847">
      <component glyphName="Z" x="0" y="0" flags="0x0"/>
      <component glyphName="acute" x="72" y="100" flags="0x4"/>
    </TTGlyph>
    <TTGlyph name="Zcaron" xMin="20" yMin="0" xMax="405" yMax="847">
      <component glyphName="Z" x="0" y="0" flags="0x0"/>
      <component glyphName="caron" x="33" y="100" flags="0x4"/>
    </TTGlyph>
    <TTGlyph name="Zdotaccent" xMin="20" yMin="0" xMax="405" yMax="844">
      <component glyphName="Z" x="0" y="0" flags="0x0"/>
      <component glyphName="dotaccent" x="40" y="100" flags="0x4"/>
    </TTGlyph>
    <TTGlyph name="a" xMin="19" yMin="-2" xMax="397" yMax="595">
      <contour>
        <pt x="72" y="584" on="0"/>
        <pt x="154" y="595" on="0"/>
        <pt x="203" y="595" on="1"/>
        <pt x="309" y="595" on="0"/>
        <pt x="397" y="506" on="0"/>
        <pt x="397" y="416" on="1"/>
        <pt x="397" y="0" on="1"/>
        <pt x="256" y="0" on="1"/>
        <pt x="256" y="43" on="1"/>
        <pt x="244" y="24" on="0"/>
        <pt x="193" y="-2" on="0"/>
        <pt x="154" y="-2" on="1"/>
        <pt x="83" y="-2" on="0"/>
        <pt x="19" y="67" on="0"/>
        <pt x="19" y="143" on="1"/>
        <pt x="19" y="177" on="1"/>
        <pt x="19" y="244" on="0"/>
        <pt x="78" y="316" on="0"/>
        <pt x="144" y="334" on="1"/>
        <pt x="253" y="362" on="1"/>
        <pt x="253" y="417" on="1"/>
        <pt x="252" y="443" on="0"/>
        <pt x="224" y="464" on="0"/>
        <pt x="187" y="464" on="1"/>
        <pt x="147" y="464" on="0"/>
        <pt x="68" y="450" on="0"/>
        <pt x="50" y="443" on="1"/>
        <pt x="50" y="576" on="1"/>
      </contour>
      <contour>
        <pt x="206" y="229" on="1"/>
        <pt x="181" y="222" on="0"/>
        <pt x="167" y="200" on="0"/>
        <pt x="167" y="171" on="1"/>
        <pt x="167" y="143" on="1"/>
        <pt x="167" y="109" on="0"/>
        <pt x="202" y="109" on="1"/>
        <pt x="232" y="109" on="0"/>
        <pt x="252" y="120" on="1"/>
        <pt x="252" y="241" on="1"/>
      </contour>
    </TTGlyph>
    <TTGlyph name="aacute" xMin="19" yMin="-2" xMax="397" yMax="747">
      <component glyphName="a" x="0" y="0" flags="0x0"/>
      <component glyphName="acute" x="68" y="0" flags="0x0"/>
    </TTGlyph>
    <TTGlyph name="abreve" xMin="19" yMin="-2" xMax="397" yMax="747">
      <component glyphName="a" x="0" y="0" flags="0x0"/>
      <component glyphName="breve" x="37" y="0" flags="0x0"/>
    </TTGlyph>
    <TTGlyph name="acircumflex" xMin="19" yMin="-2" xMax="397" yMax="747">
      <component glyphName="a" x="0" y="0" flags="0x0"/>
      <component glyphName="circumflex" x="40" y="0" flags="0x0"/>
    </TTGlyph>
    <TTGlyph name="acute" xMin="98" yMin="632" xMax="252" yMax="747">
      <contour>
        <pt x="177" y="632" on="1"/>
        <pt x="98" y="632" on="1"/>
        <pt x="142" y="747" on="1"/>
        <pt x="252" y="747" on="1"/>
      </contour>
    </TTGlyph>
    <TTGlyph name="adieresis" xMin="19" yMin="-2" xMax="397" yMax="744">
      <component glyphName="a" x="0" y="0" flags="0x0"/>
      <component glyphName="dieresis" x="35" y="0" flags="0x0"/>
    </TTGlyph>
    <TTGlyph name="ae" xMin="24" yMin="-6" xMax="623" yMax="600">
      <contour>
        <pt x="365" y="600" on="0"/>
        <pt x="440" y="600" on="1"/>
        <pt x="623" y="600" on="0"/>
        <pt x="623" y="439" on="1"/>
        <pt x="623" y="236" on="1"/>
        <pt x="395" y="236" on="1"/>
        <pt x="395" y="180" on="1"/>
        <pt x="395" y="148" on="0"/>
        <pt x="432" y="125" on="0"/>
        <pt x="474" y="125" on="1"/>
        <pt x="542" y="125" on="0"/>
        <pt x="609" y="145" on="1"/>
        <pt x="609" y="13" on="1"/>
        <pt x="573" y="3" on="0"/>
        <pt x="515" y="-6" on="0"/>
        <pt x="459" y="-6" on="1"/>
        <pt x="371" y="-6" on="0"/>
        <pt x="320" y="25" on="1"/>
        <pt x="274" y="-4" on="0"/>
        <pt x="175" y="-4" on="1"/>
        <pt x="102" y="-4" on="0"/>
        <pt x="24" y="68" on="0"/>
        <pt x="24" y="142" on="1"/>
        <pt x="24" y="177" on="1"/>
        <pt x="24" y="244" on="0"/>
        <pt x="79" y="315" on="0"/>
        <pt x="144" y="335" on="1"/>
        <pt x="252" y="369" on="1"/>
        <pt x="251" y="426" on="1"/>
        <pt x="251" y="443" on="0"/>
        <pt x="223" y="464" on="0"/>
        <pt x="187" y="464" on="1"/>
        <pt x="147" y="464" on="0"/>
        <pt x="69" y="449" on="0"/>
        <pt x="50" y="442" on="1"/>
        <pt x="50" y="574" on="1"/>
        <pt x="71" y="581" on="0"/>
        <pt x="153" y="595" on="0"/>
        <pt x="200" y="595" on="1"/>
        <pt x="274" y="595" on="0"/>
        <pt x="318" y="572" on="1"/>
      </contour>
      <contour>
        <pt x="484" y="455" on="0"/>
        <pt x="461" y="475" on="0"/>
        <pt x="440" y="475" on="1"/>
        <pt x="419" y="475" on="0"/>
        <pt x="394" y="455" on="0"/>
        <pt x="394" y="437" on="1"/>
        <pt x="394" y="351" on="1"/>
        <pt x="484" y="351" on="1"/>
        <pt x="484" y="437" on="1"/>
      </contour>
      <contour>
        <pt x="206" y="230" on="1"/>
        <pt x="181" y="223" on="0"/>
        <pt x="167" y="200" on="0"/>
        <pt x="167" y="171" on="1"/>
        <pt x="167" y="143" on="1"/>
        <pt x="167" y="125" on="0"/>
        <pt x="186" y="109" on="0"/>
        <pt x="202" y="109" on="1"/>
        <pt x="231" y="109" on="0"/>
        <pt x="255" y="121" on="1"/>
        <pt x="255" y="243" on="1"/>
      </contour>
    </TTGlyph>
    <TTGlyph name="agrave" xMin="19" yMin="-2" xMax="397" yMax="747">
      <component glyphName="a" x="0" y="0" flags="0x0"/>
      <component glyphName="grave" x="0" y="0" flags="0x0"/>
    </TTGlyph>
    <TTGlyph name="amacron" xMin="19" yMin="-2" xMax="397" yMax="728">
      <component glyphName="a" x="0" y="0" flags="0x0"/>
      <component glyphName="macron" x="48" y="0" flags="0x0"/>
    </TTGlyph>
    <TTGlyph name="ampersand" xMin="53" yMin="-6" xMax="497" yMax="699">
      <contour>
        <pt x="497" y="296" on="1"/>
        <pt x="447" y="296" on="1"/>
        <pt x="447" y="173" on="1"/>
        <pt x="447" y="89" on="0"/>
        <pt x="353" y="-6" on="0"/>
        <pt x="252" y="-6" on="1"/>
        <pt x="150" y="-6" on="0"/>
        <pt x="53" y="89" on="0"/>
        <pt x="53" y="173" on="1"/>
        <pt x="53" y="258" on="1"/>
        <pt x="53" y="344" on="0"/>
        <pt x="123" y="365" on="1"/>
        <pt x="92" y="375" on="0"/>
        <pt x="55" y="430" on="0"/>
        <pt x="55" y="472" on="1"/>
        <pt x="55" y="532" on="1"/>
        <pt x="55" y="611" on="0"/>
        <pt x="167" y="699" on="0"/>
        <pt x="281" y="699" on="1"/>
        <pt x="366" y="699" on="0"/>
        <pt x="408" y="685" on="1"/>
        <pt x="408" y="545" on="1"/>
        <pt x="383" y="554" on="0"/>
        <pt x="326" y="562" on="0"/>
        <pt x="285" y="562" on="1"/>
        <pt x="239" y="562" on="0"/>
        <pt x="205" y="538" on="0"/>
        <pt x="205" y="514" on="1"/>
        <pt x="205" y="475" on="1"/>
        <pt x="205" y="447" on="0"/>
        <pt x="226" y="424" on="0"/>
        <pt x="254" y="424" on="1"/>
        <pt x="303" y="424" on="1"/>
        <pt x="303" y="490" on="1"/>
        <pt x="447" y="490" on="1"/>
        <pt x="447" y="424" on="1"/>
        <pt x="497" y="424" on="1"/>
      </contour>
      <contour>
        <pt x="303" y="296" on="1"/>
        <pt x="254" y="296" on="1"/>
        <pt x="227" y="296" on="0"/>
        <pt x="203" y="273" on="0"/>
        <pt x="203" y="248" on="1"/>
        <pt x="203" y="177" on="1"/>
        <pt x="203" y="152" on="0"/>
        <pt x="223" y="126" on="0"/>
        <pt x="252" y="126" on="1"/>
        <pt x="281" y="126" on="0"/>
        <pt x="303" y="152" on="0"/>
        <pt x="303" y="177" on="1"/>
      </contour>
    </TTGlyph>
    <TTGlyph name="aogonek" xMin="19" yMin="-200" xMax="397" yMax="595">
      <component glyphName="a" x="0" y="0" flags="0x0"/>
      <component glyphName="ogonek" x="160" y="0" flags="0x0"/>
    </TTGlyph>
    <TTGlyph name="apostrophemod" xMin="25" yMin="485" xMax="180" yMax="733">
      <component glyphName="quoteright" x="0" y="0" flags="0x0"/>
    </TTGlyph>
    <TTGlyph name="approxequal" xMin="25" yMin="118" xMax="597" yMax="560">
      <contour>
        <pt x="592" y="540" on="0"/>
        <pt x="597" y="506" on="0"/>
        <pt x="597" y="485" on="1"/>
        <pt x="597" y="416" on="0"/>
        <pt x="525" y="348" on="0"/>
        <pt x="467" y="348" on="1"/>
        <pt x="426" y="348" on="0"/>
        <pt x="382" y="363" on="1"/>
        <pt x="240" y="411" on="1"/>
        <pt x="220" y="418" on="0"/>
        <pt x="202" y="418" on="1"/>
        <pt x="163" y="418" on="0"/>
        <pt x="163" y="380" on="1"/>
        <pt x="163" y="375" on="0"/>
        <pt x="165" y="363" on="1"/>
        <pt x="30" y="363" on="1"/>
        <pt x="29" y="368" on="0"/>
        <pt x="25" y="404" on="0"/>
        <pt x="25" y="423" on="1"/>
        <pt x="25" y="492" on="0"/>
        <pt x="97" y="560" on="0"/>
        <pt x="155" y="560" on="1"/>
        <pt x="196" y="560" on="0"/>
        <pt x="240" y="545" on="1"/>
        <pt x="382" y="497" on="1"/>
        <pt x="402" y="490" on="0"/>
        <pt x="420" y="490" on="1"/>
        <pt x="459" y="490" on="0"/>
        <pt x="459" y="528" on="1"/>
        <pt x="459" y="533" on="0"/>
        <pt x="457" y="545" on="1"/>
        <pt x="591" y="545" on="1"/>
      </contour>
      <contour>
        <pt x="592" y="310" on="0"/>
        <pt x="597" y="276" on="0"/>
        <pt x="597" y="255" on="1"/>
        <pt x="597" y="186" on="0"/>
        <pt x="525" y="118" on="0"/>
        <pt x="467" y="118" on="1"/>
        <pt x="426" y="118" on="0"/>
        <pt x="382" y="133" on="1"/>
        <pt x="240" y="181" on="1"/>
        <pt x="220" y="188" on="0"/>
        <pt x="202" y="188" on="1"/>
        <pt x="163" y="188" on="0"/>
        <pt x="163" y="150" on="1"/>
        <pt x="163" y="145" on="0"/>
        <pt x="165" y="133" on="1"/>
        <pt x="30" y="133" on="1"/>
        <pt x="29" y="138" on="0"/>
        <pt x="25" y="174" on="0"/>
        <pt x="25" y="193" on="1"/>
        <pt x="25" y="262" on="0"/>
        <pt x="97" y="330" on="0"/>
        <pt x="155" y="330" on="1"/>
        <pt x="197" y="330" on="0"/>
        <pt x="240" y="315" on="1"/>
        <pt x="382" y="267" on="1"/>
        <pt x="402" y="260" on="0"/>
        <pt x="420" y="260" on="1"/>
        <pt x="459" y="260" on="0"/>
        <pt x="459" y="298" on="1"/>
        <pt x="459" y="303" on="0"/>
        <pt x="457" y="315" on="1"/>
        <pt x="591" y="315" on="1"/>
      </contour>
    </TTGlyph>
    <TTGlyph name="aring" xMin="19" yMin="-2" xMax="397" yMax="768">
      <component glyphName="a" x="0" y="0" flags="0x0"/>
      <component glyphName="ring" x="34" y="0" flags="0x0"/>
    </TTGlyph>
    <TTGlyph name="asciicircum" xMin="0" yMin="400" xMax="439" yMax="737">
      <contour>
        <pt x="290" y="400" on="1"/>
        <pt x="220" y="633" on="1"/>
        <pt x="149" y="400" on="1"/>
        <pt x="0" y="400" on="1"/>
        <pt x="136" y="737" on="1"/>
        <pt x="304" y="737" on="1"/>
        <pt x="439" y="400" on="1"/>
      </contour>
    </TTGlyph>
    <TTGlyph name="asciitilde" xMin="25" yMin="245" xMax="597" yMax="457">
      <contour>
        <pt x="592" y="437" on="0"/>
        <pt x="597" y="403" on="0"/>
        <pt x="597" y="382" on="1"/>
        <pt x="597" y="313" on="0"/>
        <pt x="525" y="245" on="0"/>
        <pt x="467" y="245" on="1"/>
        <pt x="426" y="245" on="0"/>
        <pt x="382" y="260" on="1"/>
        <pt x="240" y="308" on="1"/>
        <pt x="220" y="315" on="0"/>
        <pt x="202" y="315" on="1"/>
        <pt x="163" y="315" on="0"/>
        <pt x="163" y="277" on="1"/>
        <pt x="163" y="272" on="0"/>
        <pt x="165" y="260" on="1"/>
        <pt x="30" y="260" on="1"/>
        <pt x="29" y="265" on="0"/>
        <pt x="25" y="301" on="0"/>
        <pt x="25" y="320" on="1"/>
        <pt x="25" y="389" on="0"/>
        <pt x="97" y="457" on="0"/>
        <pt x="155" y="457" on="1"/>
        <pt x="196" y="457" on="0"/>
        <pt x="240" y="442" on="1"/>
        <pt x="382" y="394" on="1"/>
        <pt x="402" y="387" on="0"/>
        <pt x="420" y="387" on="1"/>
        <pt x="459" y="387" on="0"/>
        <pt x="459" y="425" on="1"/>
        <pt x="459" y="430" on="0"/>
        <pt x="457" y="442" on="1"/>
        <pt x="591" y="442" on="1"/>
      </contour>
    </TTGlyph>
    <TTGlyph name="asterisk" xMin="26" yMin="361" xMax="528" yMax="838">
      <contour>
        <pt x="398" y="547" on="0"/>
        <pt x="423" y="514" on="1"/>
        <pt x="475" y="443" on="1"/>
        <pt x="362" y="361" on="1"/>
        <pt x="309" y="432" on="1"/>
        <pt x="289" y="460" on="0"/>
        <pt x="277" y="489" on="1"/>
        <pt x="267" y="464" on="0"/>
        <pt x="244" y="432" on="1"/>
        <pt x="192" y="361" on="1"/>
        <pt x="79" y="443" on="1"/>
        <pt x="131" y="515" on="1"/>
        <pt x="154" y="545" on="0"/>
        <pt x="176" y="564" on="1"/>
        <pt x="143" y="567" on="0"/>
        <pt x="110" y="578" on="1"/>
        <pt x="26" y="605" on="1"/>
        <pt x="69" y="738" on="1"/>
        <pt x="154" y="711" on="1"/>
        <pt x="182" y="702" on="0"/>
        <pt x="214" y="684" on="1"/>
        <pt x="207" y="716" on="0"/>
        <pt x="207" y="749" on="1"/>
        <pt x="207" y="838" on="1"/>
        <pt x="347" y="838" on="1"/>
        <pt x="347" y="749" on="1"/>
        <pt x="347" y="715" on="0"/>
        <pt x="340" y="683" on="1"/>
        <pt x="365" y="698" on="0"/>
        <pt x="401" y="710" on="1"/>
        <pt x="485" y="738" on="1"/>
        <pt x="528" y="605" on="1"/>
        <pt x="444" y="577" on="1"/>
        <pt x="408" y="566" on="0"/>
        <pt x="378" y="564" on="1"/>
      </contour>
    </TTGlyph>
    <TTGlyph name="at" xMin="59" yMin="-139" xMax="867" yMax="710">
      <contour>
        <pt x="625" y="710" on="0"/>
        <pt x="801" y="606" on="0"/>
        <pt x="867" y="423" on="0"/>
        <pt x="867" y="287" on="1"/>
        <pt x="867" y="134" on="0"/>
        <pt x="761" y="7" on="0"/>
        <pt x="659" y="7" on="1"/>
        <pt x="611" y="7" on="0"/>
        <pt x="536" y="39" on="0"/>
        <pt x="516" y="70" on="1"/>
        <pt x="480" y="53" on="0"/>
        <pt x="426" y="53" on="1"/>
        <pt x="316" y="53" on="0"/>
        <pt x="316" y="166" on="1"/>
        <pt x="316" y="194" on="1"/>
        <pt x="316" y="241" on="0"/>
        <pt x="354" y="298" on="0"/>
        <pt x="396" y="314" on="1"/>
        <pt x="491" y="349" on="1"/>
        <pt x="491" y="408" on="1"/>
        <pt x="491" y="423" on="0"/>
        <pt x="476" y="437" on="0"/>
        <pt x="453" y="437" on="1"/>
        <pt x="394" y="437" on="0"/>
        <pt x="332" y="418" on="1"/>
        <pt x="332" y="515" on="1"/>
        <pt x="389" y="532" on="0"/>
        <pt x="453" y="532" on="1"/>
        <pt x="531" y="532" on="0"/>
        <pt x="603" y="475" on="0"/>
        <pt x="603" y="414" on="1"/>
        <pt x="603" y="182" on="1"/>
        <pt x="603" y="147" on="0"/>
        <pt x="633" y="116" on="0"/>
        <pt x="669" y="116" on="1"/>
        <pt x="697" y="116" on="0"/>
        <pt x="729" y="146" on="0"/>
        <pt x="743" y="219" on="0"/>
        <pt x="743" y="287" on="1"/>
        <pt x="743" y="397" on="0"/>
        <pt x="712" y="520" on="0"/>
        <pt x="592" y="594" on="0"/>
        <pt x="465" y="594" on="1"/>
        <pt x="339" y="594" on="0"/>
        <pt x="218" y="518" on="0"/>
        <pt x="185" y="392" on="0"/>
        <pt x="185" y="285" on="1"/>
        <pt x="185" y="178" on="0"/>
        <pt x="219" y="53" on="0"/>
        <pt x="340" y="-22" on="0"/>
        <pt x="465" y="-22" on="1"/>
        <pt x="557" y="-22" on="1"/>
        <pt x="557" y="-139" on="1"/>
        <pt x="464" y="-139" on="1"/>
        <pt x="306" y="-139" on="0"/>
        <pt x="128" y="-34" on="0"/>
        <pt x="59" y="151" on="0"/>
        <pt x="59" y="285" on="1"/>
        <pt x="59" y="418" on="0"/>
        <pt x="129" y="604" on="0"/>
        <pt x="308" y="710" on="0"/>
        <pt x="465" y="710" on="1"/>
      </contour>
      <contour>
        <pt x="491" y="251" on="1"/>
        <pt x="454" y="238" on="1"/>
        <pt x="438" y="232" on="0"/>
        <pt x="428" y="216" on="0"/>
        <pt x="428" y="198" on="1"/>
        <pt x="428" y="167" on="1"/>
        <pt x="428" y="155" on="0"/>
        <pt x="438" y="146" on="0"/>
        <pt x="456" y="146" on="1"/>
        <pt x="465" y="146" on="0"/>
        <pt x="488" y="153" on="0"/>
        <pt x="491" y="154" on="1"/>
      </contour>
    </TTGlyph>
    <TTGlyph name="atilde" xMin="19" yMin="-2" xMax="397" yMax="744">
      <component glyphName="a" x="0" y="0" flags="0x0"/>
      <component glyphName="tilde" x="37" y="0" flags="0x0"/>
    </TTGlyph>
    <TTGlyph name="b" xMin="45" yMin="0" xMax="428" yMax="747">
      <contour>
        <pt x="196" y="578" on="1"/>
        <pt x="239" y="593" on="0"/>
        <pt x="302" y="593" on="1"/>
        <pt x="359" y="593" on="0"/>
        <pt x="428" y="530" on="0"/>
        <pt x="428" y="467" on="1"/>
        <pt x="428" y="147" on="1"/>
        <pt x="428" y="72" on="0"/>
        <pt x="345" y="0" on="0"/>
        <pt x="275" y="0" on="1"/>
        <pt x="45" y="0" on="1"/>
        <pt x="45" y="747" on="1"/>
        <pt x="196" y="747" on="1"/>
      </contour>
      <contour>
        <pt x="275" y="454" on="0"/>
        <pt x="246" y="454" on="1"/>
        <pt x="231" y="454" on="0"/>
        <pt x="204" y="448" on="0"/>
        <pt x="196" y="443" on="1"/>
        <pt x="196" y="139" on="1"/>
        <pt x="236" y="139" on="1"/>
        <pt x="275" y="139" on="0"/>
        <pt x="275" y="171" on="1"/>
        <pt x="275" y="430" on="1"/>
      </contour>
    </TTGlyph>
    <TTGlyph name="backslash" xMin="39" yMin="-183" xMax="449" yMax="869">
      <contour>
        <pt x="449" y="-183" on="1"/>
        <pt x="309" y="-183" on="1"/>
        <pt x="39" y="869" on="1"/>
        <pt x="178" y="869" on="1"/>
      </contour>
    </TTGlyph>
    <TTGlyph name="bar" xMin="61" yMin="-190" xMax="161" yMax="880">
      <contour>
        <pt x="161" y="-190" on="1"/>
        <pt x="61" y="-190" on="1"/>
        <pt x="61" y="880" on="1"/>
        <pt x="161" y="880" on="1"/>
      </contour>
    </TTGlyph>
    <TTGlyph name="braceleft" xMin="54" yMin="-180" xMax="342" yMax="852">
      <contour>
        <pt x="258" y="427" on="0"/>
        <pt x="218" y="348" on="0"/>
        <pt x="165" y="337" on="1"/>
        <pt x="218" y="327" on="0"/>
        <pt x="258" y="255" on="0"/>
        <pt x="258" y="186" on="1"/>
        <pt x="258" y="-12" on="1"/>
        <pt x="258" y="-51" on="0"/>
        <pt x="297" y="-51" on="1"/>
        <pt x="342" y="-51" on="1"/>
        <pt x="342" y="-180" on="1"/>
        <pt x="286" y="-180" on="1"/>
        <pt x="211" y="-180" on="0"/>
        <pt x="128" y="-84" on="0"/>
        <pt x="128" y="-5" on="1"/>
        <pt x="128" y="213" on="1"/>
        <pt x="128" y="242" on="0"/>
        <pt x="92" y="272" on="0"/>
        <pt x="59" y="272" on="1"/>
        <pt x="54" y="272" on="1"/>
        <pt x="54" y="401" on="1"/>
        <pt x="59" y="401" on="1"/>
        <pt x="92" y="401" on="0"/>
        <pt x="128" y="431" on="0"/>
        <pt x="128" y="460" on="1"/>
        <pt x="128" y="677" on="1"/>
        <pt x="128" y="756" on="0"/>
        <pt x="211" y="852" on="0"/>
        <pt x="286" y="852" on="1"/>
        <pt x="342" y="852" on="1"/>
        <pt x="342" y="723" on="1"/>
        <pt x="297" y="723" on="1"/>
        <pt x="258" y="723" on="0"/>
        <pt x="258" y="684" on="1"/>
        <pt x="258" y="497" on="1"/>
      </contour>
    </TTGlyph>
    <TTGlyph name="braceright" xMin="64" yMin="-180" xMax="352" yMax="852">
      <contour>
        <pt x="352" y="272" on="1"/>
        <pt x="347" y="272" on="1"/>
        <pt x="314" y="272" on="0"/>
        <pt x="278" y="242" on="0"/>
        <pt x="278" y="213" on="1"/>
        <pt x="278" y="-5" on="1"/>
        <pt x="278" y="-84" on="0"/>
        <pt x="195" y="-180" on="0"/>
        <pt x="120" y="-180" on="1"/>
        <pt x="64" y="-180" on="1"/>
        <pt x="64" y="-51" on="1"/>
        <pt x="109" y="-51" on="1"/>
        <pt x="148" y="-51" on="0"/>
        <pt x="148" y="-12" on="1"/>
        <pt x="148" y="186" on="1"/>
        <pt x="148" y="255" on="0"/>
        <pt x="188" y="327" on="0"/>
        <pt x="241" y="337" on="1"/>
        <pt x="188" y="348" on="0"/>
        <pt x="148" y="427" on="0"/>
        <pt x="148" y="497" on="1"/>
        <pt x="148" y="684" on="1"/>
        <pt x="148" y="723" on="0"/>
        <pt x="109" y="723" on="1"/>
        <pt x="64" y="723" on="1"/>
        <pt x="64" y="852" on="1"/>
        <pt x="120" y="852" on="1"/>
        <pt x="195" y="852" on="0"/>
        <pt x="278" y="756" on="0"/>
        <pt x="278" y="677" on="1"/>
        <pt x="278" y="460" on="1"/>
        <pt x="278" y="431" on="0"/>
        <pt x="314" y="401" on="0"/>
        <pt x="347" y="401" on="1"/>
        <pt x="352" y="401" on="1"/>
      </contour>
    </TTGlyph>
    <TTGlyph name="bracketleft" xMin="88" yMin="-183" xMax="329" yMax="869">
      <contour>
        <pt x="329" y="-65" on="1"/>
        <pt x="329" y="-183" on="1"/>
        <pt x="88" y="-183" on="1"/>
        <pt x="88" y="869" on="1"/>
        <pt x="329" y="869" on="1"/>
        <pt x="329" y="752" on="1"/>
        <pt x="209" y="752" on="1"/>
        <pt x="209" y="-65" on="1"/>
      </contour>
    </TTGlyph>
    <TTGlyph name="bracketright" xMin="44" yMin="-183" xMax="285" yMax="869">
      <contour>
        <pt x="285" y="869" on="1"/>
        <pt x="285" y="-183" on="1"/>
        <pt x="44" y="-183" on="1"/>
        <pt x="44" y="-65" on="1"/>
        <pt x="164" y="-65" on="1"/>
        <pt x="164" y="752" on="1"/>
        <pt x="44" y="752" on="1"/>
        <pt x="44" y="869" on="1"/>
      </contour>
    </TTGlyph>
    <TTGlyph name="breve" xMin="55" yMin="632" xMax="295" yMax="747">
      <contour>
        <pt x="295" y="695" on="0"/>
        <pt x="227" y="632" on="0"/>
        <pt x="175" y="632" on="1"/>
        <pt x="123" y="632" on="0"/>
        <pt x="55" y="696" on="0"/>
        <pt x="55" y="747" on="1"/>
        <pt x="132" y="747" on="1"/>
        <pt x="132" y="726" on="0"/>
        <pt x="154" y="700" on="0"/>
        <pt x="175" y="700" on="1"/>
        <pt x="196" y="700" on="0"/>
        <pt x="218" y="726" on="0"/>
        <pt x="218" y="747" on="1"/>
        <pt x="295" y="747" on="1"/>
      </contour>
    </TTGlyph>
    <TTGlyph name="brokenbar" xMin="61" yMin="-190" xMax="161" yMax="880">
      <contour>
        <pt x="161" y="490" on="1"/>
        <pt x="61" y="490" on="1"/>
        <pt x="61" y="880" on="1"/>
        <pt x="161" y="880" on="1"/>
      </contour>
      <contour>
        <pt x="161" y="-190" on="1"/>
        <pt x="61" y="-190" on="1"/>
        <pt x="61" y="200" on="1"/>
        <pt x="161" y="200" on="1"/>
      </contour>
    </TTGlyph>
    <TTGlyph name="bullet" xMin="24" yMin="238" xMax="224" yMax="438">
      <contour>
        <pt x="24" y="385" on="0"/>
        <pt x="69" y="438" on="0"/>
        <pt x="124" y="438" on="1"/>
        <pt x="224" y="438" on="0"/>
        <pt x="224" y="338" on="1"/>
        <pt x="224" y="238" on="0"/>
        <pt x="124" y="238" on="1"/>
        <pt x="69" y="238" on="0"/>
        <pt x="24" y="291" on="0"/>
        <pt x="24" y="338" on="1"/>
      </contour>
    </TTGlyph>
    <TTGlyph name="c" xMin="35" yMin="-5" xMax="356" yMax="595">
      <contour>
        <pt x="35" y="508" on="0"/>
        <pt x="134" y="595" on="0"/>
        <pt x="231" y="595" on="1"/>
        <pt x="274" y="595" on="0"/>
        <pt x="328" y="588" on="0"/>
        <pt x="356" y="580" on="1"/>
        <pt x="356" y="441" on="1"/>
        <pt x="303" y="457" on="0"/>
        <pt x="257" y="457" on="1"/>
        <pt x="220" y="457" on="0"/>
        <pt x="186" y="436" on="0"/>
        <pt x="186" y="408" on="1"/>
        <pt x="186" y="182" on="1"/>
        <pt x="186" y="154" on="0"/>
        <pt x="220" y="133" on="0"/>
        <pt x="257" y="133" on="1"/>
        <pt x="303" y="133" on="0"/>
        <pt x="356" y="149" on="1"/>
        <pt x="356" y="10" on="1"/>
        <pt x="327" y="2" on="0"/>
        <pt x="275" y="-5" on="0"/>
        <pt x="231" y="-5" on="1"/>
        <pt x="134" y="-5" on="0"/>
        <pt x="35" y="82" on="0"/>
        <pt x="35" y="169" on="1"/>
        <pt x="35" y="421" on="1"/>
      </contour>
    </TTGlyph>
    <TTGlyph name="cacute" xMin="35" yMin="-5" xMax="356" yMax="747">
      <component glyphName="c" x="0" y="0" flags="0x0"/>
      <component glyphName="acute" x="90" y="0" flags="0x0"/>
    </TTGlyph>
    <TTGlyph name="caron" xMin="61" yMin="632" xMax="288" yMax="747">
      <contour>
        <pt x="288" y="747" on="1"/>
        <pt x="228" y="632" on="1"/>
        <pt x="121" y="632" on="1"/>
        <pt x="61" y="747" on="1"/>
        <pt x="134" y="747" on="1"/>
        <pt x="175" y="693" on="1"/>
        <pt x="215" y="747" on="1"/>
      </contour>
    </TTGlyph>
    <TTGlyph name="ccaron" xMin="35" yMin="-5" xMax="356" yMax="747">
      <component glyphName="c" x="0" y="0" flags="0x0"/>
      <component glyphName="caron" x="55" y="0" flags="0x0"/>
    </TTGlyph>
    <TTGlyph name="ccedilla" xMin="35" yMin="-191" xMax="356" yMax="595">
      <component glyphName="c" x="0" y="0" flags="0x0"/>
      <component glyphName="cedilla" x="41" y="0" flags="0x0"/>
    </TTGlyph>
    <TTGlyph name="cedilla" xMin="98" yMin="-191" xMax="251" yMax="6">
      <contour>
        <pt x="193" y="-39" on="1"/>
        <pt x="214" y="-41" on="0"/>
        <pt x="251" y="-73" on="0"/>
        <pt x="251" y="-106" on="1"/>
        <pt x="251" y="-145" on="0"/>
        <pt x="196" y="-191" on="0"/>
        <pt x="150" y="-191" on="1"/>
        <pt x="125" y="-191" on="0"/>
        <pt x="98" y="-185" on="1"/>
        <pt x="98" y="-119" on="1"/>
        <pt x="110" y="-124" on="0"/>
        <pt x="132" y="-124" on="1"/>
        <pt x="147" y="-124" on="0"/>
        <pt x="164" y="-112" on="0"/>
        <pt x="164" y="-101" on="1"/>
        <pt x="164" y="-79" on="0"/>
        <pt x="132" y="-77" on="1"/>
        <pt x="121" y="-77" on="1"/>
        <pt x="139" y="6" on="1"/>
        <pt x="203" y="6" on="1"/>
      </contour>
    </TTGlyph>
    <TTGlyph name="cent" xMin="37" yMin="-67" xMax="358" yMax="655">
      <contour>
        <pt x="222" y="457" on="0"/>
        <pt x="188" y="436" on="0"/>
        <pt x="188" y="408" on="1"/>
        <pt x="188" y="182" on="1"/>
        <pt x="188" y="154" on="0"/>
        <pt x="222" y="133" on="0"/>
        <pt x="259" y="133" on="1"/>
        <pt x="305" y="133" on="0"/>
        <pt x="358" y="149" on="1"/>
        <pt x="358" y="10" on="1"/>
        <pt x="327" y="1" on="0"/>
        <pt x="293" y="-2" on="1"/>
        <pt x="293" y="-67" on="1"/>
        <pt x="153" y="-67" on="1"/>
        <pt x="153" y="4" on="1"/>
        <pt x="37" y="36" on="0"/>
        <pt x="37" y="169" on="1"/>
        <pt x="37" y="421" on="1"/>
        <pt x="37" y="558" on="0"/>
        <pt x="159" y="587" on="1"/>
        <pt x="159" y="655" on="1"/>
        <pt x="299" y="655" on="1"/>
        <pt x="299" y="592" on="1"/>
        <pt x="326" y="589" on="0"/>
        <pt x="358" y="580" on="1"/>
        <pt x="358" y="441" on="1"/>
        <pt x="305" y="457" on="0"/>
        <pt x="259" y="457" on="1"/>
      </contour>
    </TTGlyph>
    <TTGlyph name="circumflex" xMin="61" yMin="632" xMax="288" yMax="747">
      <contour>
        <pt x="215" y="632" on="1"/>
        <pt x="175" y="686" on="1"/>
        <pt x="134" y="632" on="1"/>
        <pt x="61" y="632" on="1"/>
        <pt x="121" y="747" on="1"/>
        <pt x="228" y="747" on="1"/>
        <pt x="288" y="632" on="1"/>
      </contour>
    </TTGlyph>
    <TTGlyph name="colon" xMin="38" yMin="-10" xMax="205" yMax="498">
      <contour>
        <pt x="38" y="498" on="0"/>
        <pt x="122" y="498" on="1"/>
        <pt x="205" y="498" on="0"/>
        <pt x="205" y="419" on="1"/>
        <pt x="205" y="341" on="0"/>
        <pt x="122" y="341" on="1"/>
        <pt x="38" y="341" on="0"/>
        <pt x="38" y="419" on="1"/>
      </contour>
      <contour>
        <pt x="38" y="147" on="0"/>
        <pt x="122" y="147" on="1"/>
        <pt x="205" y="147" on="0"/>
        <pt x="205" y="68" on="1"/>
        <pt x="205" y="-10" on="0"/>
        <pt x="122" y="-10" on="1"/>
        <pt x="38" y="-10" on="0"/>
        <pt x="38" y="68" on="1"/>
      </contour>
    </TTGlyph>
    <TTGlyph name="comma" xMin="15" yMin="-133" xMax="199" yMax="145">
      <contour>
        <pt x="199" y="145" on="0"/>
        <pt x="199" y="88" on="1"/>
        <pt x="199" y="45" on="0"/>
        <pt x="129" y="-88" on="0"/>
        <pt x="95" y="-133" on="1"/>
        <pt x="15" y="-133" on="1"/>
        <pt x="61" y="145" on="1"/>
        <pt x="136" y="145" on="1"/>
      </contour>
    </TTGlyph>
    <TTGlyph name="copyright" xMin="35" yMin="0" xMax="673" yMax="671">
      <contour>
        <pt x="35" y="440" on="0"/>
        <pt x="90" y="587" on="0"/>
        <pt x="230" y="671" on="0"/>
        <pt x="354" y="671" on="1"/>
        <pt x="480" y="671" on="0"/>
        <pt x="620" y="588" on="0"/>
        <pt x="673" y="443" on="0"/>
        <pt x="673" y="335" on="1"/>
        <pt x="673" y="230" on="0"/>
        <pt x="619" y="84" on="0"/>
        <pt x="478" y="0" on="0"/>
        <pt x="354" y="0" on="1"/>
        <pt x="229" y="0" on="0"/>
        <pt x="89" y="83" on="0"/>
        <pt x="35" y="229" on="0"/>
        <pt x="35" y="335" on="1"/>
      </contour>
      <contour>
        <pt x="565" y="420" on="0"/>
        <pt x="542" y="512" on="0"/>
        <pt x="451" y="568" on="0"/>
        <pt x="354" y="568" on="1"/>
        <pt x="258" y="568" on="0"/>
        <pt x="167" y="511" on="0"/>
        <pt x="143" y="418" on="0"/>
        <pt x="143" y="335" on="1"/>
        <pt x="143" y="253" on="0"/>
        <pt x="167" y="158" on="0"/>
        <pt x="259" y="102" on="0"/>
        <pt x="354" y="102" on="1"/>
        <pt x="448" y="102" on="0"/>
        <pt x="539" y="159" on="0"/>
        <pt x="565" y="255" on="0"/>
        <pt x="565" y="335" on="1"/>
      </contour>
      <contour>
        <pt x="226" y="455" on="0"/>
        <pt x="291" y="515" on="0"/>
        <pt x="362" y="515" on="1"/>
        <pt x="393" y="515" on="0"/>
        <pt x="440" y="506" on="0"/>
        <pt x="440" y="505" on="1"/>
        <pt x="440" y="416" on="1"/>
        <pt x="396" y="423" on="0"/>
        <pt x="364" y="423" on="1"/>
        <pt x="341" y="423" on="0"/>
        <pt x="328" y="410" on="0"/>
        <pt x="328" y="395" on="1"/>
        <pt x="328" y="278" on="1"/>
        <pt x="328" y="263" on="0"/>
        <pt x="341" y="250" on="0"/>
        <pt x="364" y="250" on="1"/>
        <pt x="402" y="250" on="0"/>
        <pt x="440" y="256" on="1"/>
        <pt x="440" y="168" on="1"/>
        <pt x="440" y="167" on="0"/>
        <pt x="393" y="158" on="0"/>
        <pt x="362" y="158" on="1"/>
        <pt x="291" y="158" on="0"/>
        <pt x="226" y="218" on="0"/>
        <pt x="226" y="275" on="1"/>
        <pt x="226" y="398" on="1"/>
      </contour>
    </TTGlyph>
    <TTGlyph name="currency" xMin="1" yMin="66" xMax="465" yMax="627">
      <contour>
        <pt x="435" y="237" on="0"/>
        <pt x="416" y="199" on="1"/>
        <pt x="464" y="151" on="1"/>
        <pt x="379" y="66" on="1"/>
        <pt x="322" y="123" on="1"/>
        <pt x="286" y="110" on="0"/>
        <pt x="233" y="110" on="1"/>
        <pt x="184" y="110" on="0"/>
        <pt x="142" y="123" on="1"/>
        <pt x="86" y="66" on="1"/>
        <pt x="1" y="151" on="1"/>
        <pt x="50" y="200" on="1"/>
        <pt x="31" y="237" on="0"/>
        <pt x="31" y="289" on="1"/>
        <pt x="31" y="404" on="1"/>
        <pt x="31" y="456" on="0"/>
        <pt x="50" y="494" on="1"/>
        <pt x="2" y="542" on="1"/>
        <pt x="87" y="627" on="1"/>
        <pt x="143" y="570" on="1"/>
        <pt x="179" y="583" on="0"/>
        <pt x="233" y="583" on="1"/>
        <pt x="282" y="583" on="0"/>
        <pt x="324" y="570" on="1"/>
        <pt x="380" y="627" on="1"/>
        <pt x="465" y="542" on="1"/>
        <pt x="416" y="493" on="1"/>
        <pt x="435" y="456" on="0"/>
        <pt x="435" y="404" on="1"/>
        <pt x="435" y="289" on="1"/>
      </contour>
      <contour>
        <pt x="176" y="269" on="0"/>
        <pt x="204" y="241" on="0"/>
        <pt x="233" y="241" on="1"/>
        <pt x="290" y="241" on="0"/>
        <pt x="290" y="294" on="1"/>
        <pt x="290" y="399" on="1"/>
        <pt x="290" y="424" on="0"/>
        <pt x="262" y="452" on="0"/>
        <pt x="233" y="452" on="1"/>
        <pt x="176" y="452" on="0"/>
        <pt x="176" y="399" on="1"/>
        <pt x="176" y="294" on="1"/>
      </contour>
    </TTGlyph>
    <TTGlyph name="d" xMin="35" yMin="-4" xMax="417" yMax="747">
      <contour>
        <pt x="417" y="0" on="1"/>
        <pt x="270" y="0" on="1"/>
        <pt x="270" y="42" on="1"/>
        <pt x="257" y="26" on="0"/>
        <pt x="203" y="-4" on="0"/>
        <pt x="164" y="-4" on="1"/>
        <pt x="101" y="-4" on="0"/>
        <pt x="35" y="68" on="0"/>
        <pt x="35" y="132" on="1"/>
        <pt x="35" y="411" on="1"/>
        <pt x="35" y="495" on="0"/>
        <pt x="127" y="590" on="0"/>
        <pt x="221" y="590" on="1"/>
        <pt x="265" y="590" on="1"/>
        <pt x="265" y="747" on="1"/>
        <pt x="417" y="747" on="1"/>
      </contour>
      <contour>
        <pt x="233" y="456" on="1"/>
        <pt x="186" y="456" on="0"/>
        <pt x="186" y="406" on="1"/>
        <pt x="186" y="159" on="1"/>
        <pt x="186" y="133" on="0"/>
        <pt x="214" y="133" on="1"/>
        <pt x="228" y="133" on="0"/>
        <pt x="258" y="140" on="0"/>
        <pt x="266" y="145" on="1"/>
        <pt x="266" y="456" on="1"/>
      </contour>
    </TTGlyph>
    <TTGlyph name="dagger" xMin="19" yMin="-30" xMax="375" yMax="833">
      <contour>
        <pt x="267" y="782" on="0"/>
        <pt x="259" y="676" on="0"/>
        <pt x="257" y="661" on="1"/>
        <pt x="266" y="663" on="0"/>
        <pt x="334" y="671" on="0"/>
        <pt x="375" y="671" on="1"/>
        <pt x="375" y="554" on="1"/>
        <pt x="334" y="554" on="0"/>
        <pt x="266" y="562" on="0"/>
        <pt x="257" y="564" on="1"/>
        <pt x="259" y="548" on="0"/>
        <pt x="267" y="431" on="0"/>
        <pt x="267" y="363" on="1"/>
        <pt x="267" y="-30" on="1"/>
        <pt x="127" y="-30" on="1"/>
        <pt x="127" y="363" on="1"/>
        <pt x="127" y="431" on="0"/>
        <pt x="135" y="548" on="0"/>
        <pt x="137" y="564" on="1"/>
        <pt x="128" y="562" on="0"/>
        <pt x="60" y="554" on="0"/>
        <pt x="19" y="554" on="1"/>
        <pt x="19" y="671" on="1"/>
        <pt x="60" y="671" on="0"/>
        <pt x="128" y="663" on="0"/>
        <pt x="137" y="661" on="1"/>
        <pt x="135" y="676" on="0"/>
        <pt x="127" y="782" on="0"/>
        <pt x="127" y="833" on="1"/>
        <pt x="267" y="833" on="1"/>
      </contour>
    </TTGlyph>
    <TTGlyph name="daggerdbl" xMin="18" yMin="-30" xMax="374" yMax="833">
      <contour>
        <pt x="266" y="782" on="0"/>
        <pt x="258" y="676" on="0"/>
        <pt x="256" y="661" on="1"/>
        <pt x="265" y="663" on="0"/>
        <pt x="333" y="671" on="0"/>
        <pt x="374" y="671" on="1"/>
        <pt x="374" y="554" on="1"/>
        <pt x="333" y="554" on="0"/>
        <pt x="265" y="562" on="0"/>
        <pt x="256" y="564" on="1"/>
        <pt x="258" y="502" on="0"/>
        <pt x="258" y="404" on="1"/>
        <pt x="258" y="309" on="0"/>
        <pt x="256" y="239" on="1"/>
        <pt x="265" y="241" on="0"/>
        <pt x="333" y="249" on="0"/>
        <pt x="374" y="249" on="1"/>
        <pt x="374" y="132" on="1"/>
        <pt x="333" y="132" on="0"/>
        <pt x="265" y="140" on="0"/>
        <pt x="256" y="142" on="1"/>
        <pt x="257" y="137" on="0"/>
        <pt x="262" y="98" on="0"/>
        <pt x="266" y="21" on="0"/>
        <pt x="266" y="-30" on="1"/>
        <pt x="126" y="-30" on="1"/>
        <pt x="126" y="21" on="0"/>
        <pt x="130" y="98" on="0"/>
        <pt x="135" y="137" on="0"/>
        <pt x="136" y="142" on="1"/>
        <pt x="127" y="140" on="0"/>
        <pt x="59" y="132" on="0"/>
        <pt x="18" y="132" on="1"/>
        <pt x="18" y="249" on="1"/>
        <pt x="59" y="249" on="0"/>
        <pt x="127" y="241" on="0"/>
        <pt x="136" y="239" on="1"/>
        <pt x="135" y="274" on="0"/>
        <pt x="135" y="404" on="1"/>
        <pt x="135" y="532" on="0"/>
        <pt x="136" y="564" on="1"/>
        <pt x="127" y="562" on="0"/>
        <pt x="59" y="554" on="0"/>
        <pt x="18" y="554" on="1"/>
        <pt x="18" y="671" on="1"/>
        <pt x="59" y="671" on="0"/>
        <pt x="127" y="663" on="0"/>
        <pt x="136" y="661" on="1"/>
        <pt x="134" y="676" on="0"/>
        <pt x="126" y="782" on="0"/>
        <pt x="126" y="833" on="1"/>
        <pt x="266" y="833" on="1"/>
      </contour>
    </TTGlyph>
    <TTGlyph name="danda" xMin="140" yMin="0" xMax="280" yMax="671">
      <contour>
        <pt x="280" y="671" on="1"/>
        <pt x="280" y="0" on="1"/>
        <pt x="140" y="0" on="1"/>
        <pt x="140" y="671" on="1"/>
      </contour>
    </TTGlyph>
    <TTGlyph name="dcaron" xMin="35" yMin="-4" xMax="561" yMax="747">
      <contour>
        <pt x="417" y="0" on="1"/>
        <pt x="270" y="0" on="1"/>
        <pt x="270" y="42" on="1"/>
        <pt x="257" y="26" on="0"/>
        <pt x="203" y="-4" on="0"/>
        <pt x="164" y="-4" on="1"/>
        <pt x="101" y="-4" on="0"/>
        <pt x="35" y="68" on="0"/>
        <pt x="35" y="132" on="1"/>
        <pt x="35" y="411" on="1"/>
        <pt x="35" y="495" on="0"/>
        <pt x="127" y="590" on="0"/>
        <pt x="221" y="590" on="1"/>
        <pt x="265" y="590" on="1"/>
        <pt x="265" y="747" on="1"/>
        <pt x="417" y="747" on="1"/>
      </contour>
      <contour>
        <pt x="561" y="747" on="0"/>
        <pt x="561" y="715" on="1"/>
        <pt x="561" y="690" on="0"/>
        <pt x="522" y="616" on="0"/>
        <pt x="503" y="592" on="1"/>
        <pt x="455" y="592" on="1"/>
        <pt x="480" y="747" on="1"/>
        <pt x="526" y="747" on="1"/>
      </contour>
      <contour>
        <pt x="233" y="456" on="1"/>
        <pt x="186" y="456" on="0"/>
        <pt x="186" y="406" on="1"/>
        <pt x="186" y="159" on="1"/>
        <pt x="186" y="133" on="0"/>
        <pt x="214" y="133" on="1"/>
        <pt x="228" y="133" on="0"/>
        <pt x="258" y="140" on="0"/>
        <pt x="266" y="145" on="1"/>
        <pt x="266" y="456" on="1"/>
      </contour>
    </TTGlyph>
    <TTGlyph name="dcroat" xMin="38" yMin="-4" xMax="460" yMax="747">
      <contour>
        <pt x="460" y="636" on="1"/>
        <pt x="420" y="636" on="1"/>
        <pt x="420" y="0" on="1"/>
        <pt x="273" y="0" on="1"/>
        <pt x="273" y="42" on="1"/>
        <pt x="260" y="26" on="0"/>
        <pt x="206" y="-4" on="0"/>
        <pt x="167" y="-4" on="1"/>
        <pt x="104" y="-4" on="0"/>
        <pt x="38" y="68" on="0"/>
        <pt x="38" y="132" on="1"/>
        <pt x="38" y="411" on="1"/>
        <pt x="38" y="495" on="0"/>
        <pt x="130" y="590" on="0"/>
        <pt x="224" y="590" on="1"/>
        <pt x="268" y="590" on="1"/>
        <pt x="268" y="636" on="1"/>
        <pt x="140" y="636" on="1"/>
        <pt x="140" y="700" on="1"/>
        <pt x="268" y="700" on="1"/>
        <pt x="268" y="747" on="1"/>
        <pt x="420" y="747" on="1"/>
        <pt x="420" y="700" on="1"/>
        <pt x="460" y="700" on="1"/>
      </contour>
      <contour>
        <pt x="269" y="456" on="1"/>
        <pt x="236" y="456" on="1"/>
        <pt x="189" y="456" on="0"/>
        <pt x="189" y="406" on="1"/>
        <pt x="189" y="159" on="1"/>
        <pt x="189" y="133" on="0"/>
        <pt x="217" y="133" on="1"/>
        <pt x="231" y="133" on="0"/>
        <pt x="261" y="140" on="0"/>
        <pt x="269" y="145" on="1"/>
      </contour>
    </TTGlyph>
    <TTGlyph name="degree" xMin="42" yMin="492" xMax="397" yMax="856">
      <contour>
        <pt x="42" y="758" on="0"/>
        <pt x="129" y="856" on="0"/>
        <pt x="219" y="856" on="1"/>
        <pt x="310" y="856" on="0"/>
        <pt x="397" y="758" on="0"/>
        <pt x="397" y="674" on="1"/>
        <pt x="397" y="590" on="0"/>
        <pt x="310" y="492" on="0"/>
        <pt x="219" y="492" on="1"/>
        <pt x="129" y="492" on="0"/>
        <pt x="42" y="590" on="0"/>
        <pt x="42" y="674" on="1"/>
      </contour>
      <contour>
        <pt x="273" y="709" on="0"/>
        <pt x="248" y="743" on="0"/>
        <pt x="219" y="743" on="1"/>
        <pt x="190" y="743" on="0"/>
        <pt x="166" y="709" on="0"/>
        <pt x="166" y="674" on="1"/>
        <pt x="166" y="639" on="0"/>
        <pt x="190" y="605" on="0"/>
        <pt x="219" y="605" on="1"/>
        <pt x="248" y="605" on="0"/>
        <pt x="273" y="639" on="0"/>
        <pt x="273" y="674" on="1"/>
      </contour>
    </TTGlyph>
    <TTGlyph name="dieresis" xMin="32" yMin="635" xMax="319" yMax="744">
      <contour>
        <pt x="32" y="716" on="0"/>
        <pt x="58" y="744" on="0"/>
        <pt x="90" y="744" on="1"/>
        <pt x="121" y="744" on="0"/>
        <pt x="148" y="716" on="0"/>
        <pt x="148" y="689" on="1"/>
        <pt x="148" y="635" on="0"/>
        <pt x="90" y="635" on="1"/>
        <pt x="58" y="635" on="0"/>
        <pt x="32" y="663" on="0"/>
        <pt x="32" y="689" on="1"/>
      </contour>
      <contour>
        <pt x="203" y="716" on="0"/>
        <pt x="229" y="744" on="0"/>
        <pt x="261" y="744" on="1"/>
        <pt x="292" y="744" on="0"/>
        <pt x="319" y="716" on="0"/>
        <pt x="319" y="689" on="1"/>
        <pt x="319" y="635" on="0"/>
        <pt x="261" y="635" on="1"/>
        <pt x="229" y="635" on="0"/>
        <pt x="203" y="663" on="0"/>
        <pt x="203" y="689" on="1"/>
      </contour>
    </TTGlyph>
    <TTGlyph name="divide" xMin="41" yMin="85" xMax="455" yMax="578">
      <contour>
        <pt x="172" y="538" on="0"/>
        <pt x="206" y="578" on="0"/>
        <pt x="247" y="578" on="1"/>
        <pt x="322" y="578" on="0"/>
        <pt x="322" y="503" on="1"/>
        <pt x="322" y="428" on="0"/>
        <pt x="247" y="428" on="1"/>
        <pt x="206" y="428" on="0"/>
        <pt x="172" y="468" on="0"/>
        <pt x="172" y="503" on="1"/>
      </contour>
      <contour>
        <pt x="455" y="266" on="1"/>
        <pt x="41" y="266" on="1"/>
        <pt x="41" y="396" on="1"/>
        <pt x="455" y="396" on="1"/>
      </contour>
      <contour>
        <pt x="172" y="195" on="0"/>
        <pt x="206" y="235" on="0"/>
        <pt x="247" y="235" on="1"/>
        <pt x="322" y="235" on="0"/>
        <pt x="322" y="160" on="1"/>
        <pt x="322" y="125" on="0"/>
        <pt x="289" y="85" on="0"/>
        <pt x="248" y="85" on="1"/>
        <pt x="172" y="85" on="0"/>
        <pt x="172" y="160" on="1"/>
      </contour>
    </TTGlyph>
    <TTGlyph name="dollar" xMin="20" yMin="-53" xMax="421" yMax="747">
      <contour>
        <pt x="380" y="337" on="0"/>
        <pt x="421" y="274" on="0"/>
        <pt x="421" y="225" on="1"/>
        <pt x="421" y="163" on="1"/>
        <pt x="421" y="102" on="0"/>
        <pt x="351" y="21" on="0"/>
        <pt x="282" y="5" on="1"/>
        <pt x="282" y="-53" on="1"/>
        <pt x="140" y="-53" on="1"/>
        <pt x="140" y="-3" on="1"/>
        <pt x="104" y="0" on="0"/>
        <pt x="43" y="12" on="0"/>
        <pt x="29" y="18" on="1"/>
        <pt x="29" y="163" on="1"/>
        <pt x="58" y="151" on="0"/>
        <pt x="139" y="134" on="0"/>
        <pt x="182" y="134" on="1"/>
        <pt x="227" y="134" on="0"/>
        <pt x="269" y="161" on="0"/>
        <pt x="269" y="183" on="1"/>
        <pt x="269" y="198" on="1"/>
        <pt x="269" y="221" on="0"/>
        <pt x="250" y="244" on="0"/>
        <pt x="224" y="258" on="1"/>
        <pt x="117" y="316" on="1"/>
        <pt x="71" y="342" on="0"/>
        <pt x="20" y="415" on="0"/>
        <pt x="20" y="468" on="1"/>
        <pt x="20" y="531" on="1"/>
        <pt x="20" y="591" on="0"/>
        <pt x="83" y="672" on="0"/>
        <pt x="147" y="688" on="1"/>
        <pt x="147" y="747" on="1"/>
        <pt x="289" y="747" on="1"/>
        <pt x="289" y="696" on="1"/>
        <pt x="349" y="691" on="0"/>
        <pt x="381" y="677" on="1"/>
        <pt x="381" y="533" on="1"/>
        <pt x="320" y="559" on="0"/>
        <pt x="242" y="559" on="1"/>
        <pt x="202" y="559" on="0"/>
        <pt x="174" y="534" on="0"/>
        <pt x="174" y="511" on="1"/>
        <pt x="174" y="496" on="1"/>
        <pt x="174" y="468" on="0"/>
        <pt x="193" y="441" on="0"/>
        <pt x="225" y="424" on="1"/>
        <pt x="339" y="360" on="1"/>
      </contour>
    </TTGlyph>
    <TTGlyph name="dotaccent" xMin="117" yMin="635" xMax="233" yMax="744">
      <contour>
        <pt x="117" y="716" on="0"/>
        <pt x="143" y="744" on="0"/>
        <pt x="175" y="744" on="1"/>
        <pt x="206" y="744" on="0"/>
        <pt x="233" y="716" on="0"/>
        <pt x="233" y="689" on="1"/>
        <pt x="233" y="635" on="0"/>
        <pt x="175" y="635" on="1"/>
        <pt x="143" y="635" on="0"/>
        <pt x="117" y="663" on="0"/>
        <pt x="117" y="689" on="1"/>
      </contour>
    </TTGlyph>
    <TTGlyph name="dotlessi" xMin="45" yMin="0" xMax="196" yMax="574">
      <contour>
        <pt x="196" y="0" on="1"/>
        <pt x="45" y="0" on="1"/>
        <pt x="45" y="574" on="1"/>
        <pt x="196" y="574" on="1"/>
      </contour>
    </TTGlyph>
    <TTGlyph name="dottedcircle" xMin="44" yMin="30" xMax="616" yMax="604">
      <contour>
        <pt x="257" y="580" on="0"/>
        <pt x="282" y="604" on="0"/>
        <pt x="301" y="604" on="1"/>
        <pt x="321" y="604" on="0"/>
        <pt x="345" y="580" on="0"/>
        <pt x="345" y="560" on="1"/>
        <pt x="345" y="541" on="0"/>
        <pt x="321" y="516" on="0"/>
        <pt x="301" y="516" on="1"/>
        <pt x="282" y="516" on="0"/>
        <pt x="257" y="541" on="0"/>
        <pt x="257" y="560" on="1"/>
      </contour>
      <contour>
        <pt x="383" y="565" on="0"/>
        <pt x="409" y="590" on="0"/>
        <pt x="428" y="590" on="1"/>
        <pt x="447" y="590" on="0"/>
        <pt x="471" y="565" on="0"/>
        <pt x="471" y="545" on="1"/>
        <pt x="471" y="527" on="0"/>
        <pt x="446" y="501" on="0"/>
        <pt x="428" y="501" on="1"/>
        <pt x="409" y="501" on="0"/>
        <pt x="383" y="527" on="0"/>
        <pt x="383" y="545" on="1"/>
      </contour>
      <contour>
        <pt x="139" y="536" on="0"/>
        <pt x="164" y="561" on="0"/>
        <pt x="183" y="561" on="1"/>
        <pt x="202" y="561" on="0"/>
        <pt x="227" y="536" on="0"/>
        <pt x="227" y="517" on="1"/>
        <pt x="227" y="497" on="0"/>
        <pt x="202" y="472" on="0"/>
        <pt x="183" y="472" on="1"/>
        <pt x="164" y="472" on="0"/>
        <pt x="139" y="497" on="0"/>
        <pt x="139" y="517" on="1"/>
      </contour>
      <contour>
        <pt x="478" y="496" on="0"/>
        <pt x="503" y="522" on="0"/>
        <pt x="522" y="522" on="1"/>
        <pt x="541" y="522" on="0"/>
        <pt x="566" y="497" on="0"/>
        <pt x="566" y="477" on="1"/>
        <pt x="566" y="458" on="0"/>
        <pt x="541" y="433" on="0"/>
        <pt x="522" y="433" on="1"/>
        <pt x="503" y="433" on="0"/>
        <pt x="478" y="458" on="0"/>
        <pt x="478" y="477" on="1"/>
      </contour>
      <contour>
        <pt x="57" y="426" on="0"/>
        <pt x="83" y="451" on="0"/>
        <pt x="103" y="451" on="1"/>
        <pt x="121" y="451" on="0"/>
        <pt x="147" y="426" on="0"/>
        <pt x="147" y="407" on="1"/>
        <pt x="147" y="388" on="0"/>
        <pt x="121" y="363" on="0"/>
        <pt x="103" y="363" on="1"/>
        <pt x="83" y="363" on="0"/>
        <pt x="57" y="388" on="0"/>
        <pt x="57" y="407" on="1"/>
      </contour>
      <contour>
        <pt x="528" y="379" on="0"/>
        <pt x="553" y="403" on="0"/>
        <pt x="572" y="403" on="1"/>
        <pt x="591" y="403" on="0"/>
        <pt x="616" y="378" on="0"/>
        <pt x="616" y="359" on="1"/>
        <pt x="616" y="340" on="0"/>
        <pt x="591" y="315" on="0"/>
        <pt x="572" y="315" on="1"/>
        <pt x="553" y="315" on="0"/>
        <pt x="528" y="340" on="0"/>
        <pt x="528" y="359" on="1"/>
      </contour>
      <contour>
        <pt x="44" y="300" on="0"/>
        <pt x="69" y="326" on="0"/>
        <pt x="88" y="326" on="1"/>
        <pt x="107" y="326" on="0"/>
        <pt x="132" y="301" on="0"/>
        <pt x="132" y="281" on="1"/>
        <pt x="132" y="262" on="0"/>
        <pt x="107" y="238" on="0"/>
        <pt x="88" y="238" on="1"/>
        <pt x="69" y="238" on="0"/>
        <pt x="44" y="262" on="0"/>
        <pt x="44" y="281" on="1"/>
      </contour>
      <contour>
        <pt x="518" y="245" on="0"/>
        <pt x="544" y="270" on="0"/>
        <pt x="563" y="270" on="1"/>
        <pt x="581" y="270" on="0"/>
        <pt x="606" y="244" on="0"/>
        <pt x="606" y="225" on="1"/>
        <pt x="606" y="206" on="0"/>
        <pt x="581" y="181" on="0"/>
        <pt x="563" y="181" on="1"/>
        <pt x="544" y="181" on="0"/>
        <pt x="518" y="206" on="0"/>
        <pt x="518" y="225" on="1"/>
      </contour>
      <contour>
        <pt x="96" y="184" on="0"/>
        <pt x="121" y="209" on="0"/>
        <pt x="140" y="209" on="1"/>
        <pt x="159" y="209" on="0"/>
        <pt x="184" y="184" on="0"/>
        <pt x="184" y="165" on="1"/>
        <pt x="184" y="146" on="0"/>
        <pt x="159" y="121" on="0"/>
        <pt x="140" y="121" on="1"/>
        <pt x="121" y="121" on="0"/>
        <pt x="96" y="146" on="0"/>
        <pt x="96" y="165" on="1"/>
      </contour>
      <contour>
        <pt x="445" y="146" on="0"/>
        <pt x="470" y="171" on="0"/>
        <pt x="489" y="171" on="1"/>
        <pt x="508" y="171" on="0"/>
        <pt x="534" y="146" on="0"/>
        <pt x="534" y="127" on="1"/>
        <pt x="534" y="108" on="0"/>
        <pt x="508" y="83" on="0"/>
        <pt x="489" y="83" on="1"/>
        <pt x="470" y="83" on="0"/>
        <pt x="445" y="108" on="0"/>
        <pt x="445" y="127" on="1"/>
      </contour>
      <contour>
        <pt x="197" y="108" on="0"/>
        <pt x="223" y="134" on="0"/>
        <pt x="242" y="134" on="1"/>
        <pt x="261" y="134" on="0"/>
        <pt x="286" y="108" on="0"/>
        <pt x="286" y="90" on="1"/>
        <pt x="286" y="70" on="0"/>
        <pt x="261" y="44" on="0"/>
        <pt x="242" y="44" on="1"/>
        <pt x="223" y="44" on="0"/>
        <pt x="197" y="70" on="0"/>
        <pt x="197" y="90" on="1"/>
      </contour>
      <contour>
        <pt x="324" y="94" on="0"/>
        <pt x="349" y="118" on="0"/>
        <pt x="368" y="118" on="1"/>
        <pt x="388" y="118" on="0"/>
        <pt x="413" y="93" on="0"/>
        <pt x="413" y="74" on="1"/>
        <pt x="413" y="55" on="0"/>
        <pt x="388" y="30" on="0"/>
        <pt x="368" y="30" on="1"/>
        <pt x="349" y="30" on="0"/>
        <pt x="324" y="55" on="0"/>
        <pt x="324" y="74" on="1"/>
      </contour>
    </TTGlyph>
    <TTGlyph name="doubledanda" xMin="42" yMin="0" xMax="400" yMax="671">
      <contour>
        <pt x="182" y="671" on="1"/>
        <pt x="182" y="0" on="1"/>
        <pt x="42" y="0" on="1"/>
        <pt x="42" y="671" on="1"/>
      </contour>
      <contour>
        <pt x="400" y="671" on="1"/>
        <pt x="400" y="0" on="1"/>
        <pt x="260" y="0" on="1"/>
        <pt x="260" y="671" on="1"/>
      </contour>
    </TTGlyph>
    <TTGlyph name="dvA" xMin="42" yMin="0" xMax="648" yMax="676">
      <contour>
        <pt x="648" y="671" on="1"/>
        <pt x="648" y="554" on="1"/>
        <pt x="566" y="554" on="1"/>
        <pt x="566" y="0" on="1"/>
        <pt x="426" y="0" on="1"/>
        <pt x="426" y="213" on="1"/>
        <pt x="356" y="213" on="1"/>
        <pt x="356" y="207" on="1"/>
        <pt x="355" y="124" on="0"/>
        <pt x="256" y="36" on="0"/>
        <pt x="146" y="36" on="1"/>
        <pt x="118" y="36" on="0"/>
        <pt x="59" y="43" on="0"/>
        <pt x="42" y="49" on="1"/>
        <pt x="42" y="176" on="1"/>
        <pt x="65" y="170" on="0"/>
        <pt x="124" y="163" on="0"/>
        <pt x="145" y="163" on="1"/>
        <pt x="185" y="163" on="0"/>
        <pt x="218" y="186" on="0"/>
        <pt x="219" y="213" on="1"/>
        <pt x="219" y="254" on="1"/>
        <pt x="219" y="279" on="0"/>
        <pt x="194" y="303" on="0"/>
        <pt x="166" y="303" on="1"/>
        <pt x="107" y="303" on="1"/>
        <pt x="107" y="432" on="1"/>
        <pt x="166" y="432" on="1"/>
        <pt x="194" y="432" on="0"/>
        <pt x="219" y="454" on="0"/>
        <pt x="219" y="478" on="1"/>
        <pt x="219" y="499" on="1"/>
        <pt x="219" y="526" on="0"/>
        <pt x="186" y="549" on="0"/>
        <pt x="146" y="549" on="1"/>
        <pt x="100" y="549" on="0"/>
        <pt x="56" y="537" on="1"/>
        <pt x="56" y="664" on="1"/>
        <pt x="91" y="676" on="0"/>
        <pt x="147" y="676" on="1"/>
        <pt x="257" y="676" on="0"/>
        <pt x="356" y="588" on="0"/>
        <pt x="356" y="505" on="1"/>
        <pt x="356" y="478" on="1"/>
        <pt x="356" y="398" on="0"/>
        <pt x="313" y="368" on="1"/>
        <pt x="330" y="357" on="0"/>
        <pt x="341" y="333" on="1"/>
        <pt x="426" y="333" on="1"/>
        <pt x="426" y="671" on="1"/>
      </contour>
    </TTGlyph>
    <TTGlyph name="dvAA" xMin="42" yMin="0" xMax="872" yMax="676">
      <component glyphName="dvA" x="0" y="0" flags="0x0"/>
      <component glyphName="dvmAA" x="608" y="0" flags="0x0"/>
    </TTGlyph>
    <TTGlyph name="dvAI" xMin="-40" yMin="-5" xMax="481" yMax="901">
      <contour>
        <pt x="481" y="671" on="1"/>
        <pt x="481" y="554" on="1"/>
        <pt x="407" y="554" on="1"/>
        <pt x="407" y="404" on="1"/>
        <pt x="407" y="323" on="0"/>
        <pt x="337" y="246" on="0"/>
        <pt x="248" y="246" on="1"/>
        <pt x="228" y="248" on="1"/>
        <pt x="228" y="377" on="1"/>
        <pt x="237" y="377" on="1"/>
        <pt x="256" y="377" on="0"/>
        <pt x="267" y="391" on="0"/>
        <pt x="267" y="413" on="1"/>
        <pt x="267" y="554" on="1"/>
        <pt x="181" y="554" on="1"/>
        <pt x="181" y="189" on="1"/>
        <pt x="181" y="155" on="0"/>
        <pt x="214" y="124" on="0"/>
        <pt x="256" y="124" on="1"/>
        <pt x="292" y="124" on="0"/>
        <pt x="349" y="133" on="0"/>
        <pt x="380" y="142" on="1"/>
        <pt x="380" y="15" on="1"/>
        <pt x="320" y="-5" on="0"/>
        <pt x="251" y="-5" on="1"/>
        <pt x="141" y="-5" on="0"/>
        <pt x="41" y="87" on="0"/>
        <pt x="41" y="184" on="1"/>
        <pt x="41" y="554" on="1"/>
        <pt x="-40" y="554" on="1"/>
        <pt x="-40" y="671" on="1"/>
        <pt x="261" y="671" on="1"/>
        <pt x="96" y="901" on="1"/>
        <pt x="251" y="901" on="1"/>
        <pt x="403" y="671" on="1"/>
      </contour>
    </TTGlyph>
    <TTGlyph name="dvAU" xMin="42" yMin="0" xMax="873" yMax="901">
      <component glyphName="dvA" x="0" y="0" flags="0x0"/>
      <component glyphName="dvmAU" x="609" y="0" flags="0x0"/>
    </TTGlyph>
    <TTGlyph name="dvAbbreviationsign" xMin="42" yMin="147" xMax="397" yMax="502">
      <contour>
        <pt x="42" y="408" on="0"/>
        <pt x="128" y="502" on="0"/>
        <pt x="219" y="502" on="1"/>
        <pt x="310" y="502" on="0"/>
        <pt x="397" y="407" on="0"/>
        <pt x="397" y="324" on="1"/>
        <pt x="397" y="241" on="0"/>
        <pt x="310" y="147" on="0"/>
        <pt x="219" y="147" on="1"/>
        <pt x="128" y="147" on="0"/>
        <pt x="42" y="241" on="0"/>
        <pt x="42" y="324" on="1"/>
      </contour>
      <contour>
        <pt x="166" y="290" on="0"/>
        <pt x="190" y="260" on="0"/>
        <pt x="219" y="260" on="1"/>
        <pt x="249" y="260" on="0"/>
        <pt x="273" y="290" on="0"/>
        <pt x="273" y="324" on="1"/>
        <pt x="273" y="358" on="0"/>
        <pt x="249" y="389" on="0"/>
        <pt x="219" y="389" on="1"/>
        <pt x="190" y="389" on="0"/>
        <pt x="166" y="359" on="0"/>
        <pt x="166" y="324" on="1"/>
      </contour>
    </TTGlyph>
    <TTGlyph name="dvAcandra" xMin="42" yMin="0" xMax="708" yMax="906">
      <component glyphName="dvA" x="0" y="0" flags="0x0"/>
      <component glyphName="dvmEcandra" x="610" y="0" flags="0x0"/>
    </TTGlyph>
    <TTGlyph name="dvAnusvara" xMin="-187" yMin="727" xMax="-38" yMax="877">
      <contour>
        <pt x="-187" y="837" on="0"/>
        <pt x="-153" y="877" on="0"/>
        <pt x="-112" y="877" on="1"/>
        <pt x="-38" y="877" on="0"/>
        <pt x="-38" y="802" on="1"/>
        <pt x="-38" y="727" on="0"/>
        <pt x="-112" y="727" on="1"/>
        <pt x="-153" y="727" on="0"/>
        <pt x="-187" y="767" on="0"/>
        <pt x="-187" y="802" on="1"/>
      </contour>
    </TTGlyph>
    <TTGlyph name="dvAnusvara.amI" xMin="47" yMin="737" xMax="196" yMax="887">
      <component glyphName="dvAnusvara" x="234" y="10" flags="0x4"/>
    </TTGlyph>
    <TTGlyph name="dvAvagraha" xMin="22" yMin="-5" xMax="396" yMax="671">
      <contour>
        <pt x="396" y="82" on="0"/>
        <pt x="310" y="-5" on="0"/>
        <pt x="219" y="-5" on="1"/>
        <pt x="201" y="-5" on="1"/>
        <pt x="22" y="-5" on="0"/>
        <pt x="22" y="168" on="1"/>
        <pt x="22" y="223" on="1"/>
        <pt x="162" y="223" on="1"/>
        <pt x="162" y="163" on="1"/>
        <pt x="162" y="125" on="0"/>
        <pt x="206" y="125" on="1"/>
        <pt x="212" y="125" on="1"/>
        <pt x="256" y="125" on="0"/>
        <pt x="256" y="163" on="1"/>
        <pt x="256" y="192" on="1"/>
        <pt x="256" y="217" on="0"/>
        <pt x="241" y="244" on="0"/>
        <pt x="220" y="259" on="1"/>
        <pt x="95" y="348" on="1"/>
        <pt x="23" y="400" on="0"/>
        <pt x="23" y="485" on="1"/>
        <pt x="23" y="511" on="1"/>
        <pt x="23" y="591" on="0"/>
        <pt x="101" y="671" on="0"/>
        <pt x="191" y="671" on="1"/>
        <pt x="371" y="671" on="1"/>
        <pt x="371" y="541" on="1"/>
        <pt x="202" y="541" on="1"/>
        <pt x="179" y="541" on="0"/>
        <pt x="163" y="521" on="0"/>
        <pt x="163" y="503" on="1"/>
        <pt x="163" y="492" on="1"/>
        <pt x="163" y="471" on="0"/>
        <pt x="179" y="446" on="0"/>
        <pt x="200" y="431" on="1"/>
        <pt x="321" y="345" on="1"/>
        <pt x="367" y="312" on="0"/>
        <pt x="396" y="245" on="0"/>
        <pt x="396" y="189" on="1"/>
        <pt x="396" y="168" on="1"/>
      </contour>
    </TTGlyph>
    <TTGlyph name="dvB" xMin="-40" yMin="53" xMax="448" yMax="671">
      <contour>
        <pt x="448" y="554" on="1"/>
        <pt x="-40" y="554" on="1"/>
        <pt x="-40" y="671" on="1"/>
        <pt x="448" y="671" on="1"/>
      </contour>
      <contour>
        <pt x="30" y="418" on="0"/>
        <pt x="122" y="506" on="0"/>
        <pt x="232" y="506" on="1"/>
        <pt x="331" y="506" on="0"/>
        <pt x="428" y="417" on="0"/>
        <pt x="428" y="328" on="1"/>
        <pt x="428" y="231" on="1"/>
        <pt x="428" y="142" on="0"/>
        <pt x="331" y="53" on="0"/>
        <pt x="232" y="53" on="1"/>
        <pt x="127" y="53" on="0"/>
        <pt x="30" y="143" on="0"/>
        <pt x="30" y="231" on="1"/>
        <pt x="30" y="328" on="1"/>
      </contour>
      <contour>
        <pt x="305" y="358" on="0"/>
        <pt x="273" y="391" on="0"/>
        <pt x="234" y="391" on="1"/>
        <pt x="193" y="391" on="0"/>
        <pt x="177" y="372" on="1"/>
        <pt x="305" y="265" on="1"/>
        <pt x="305" y="322" on="1"/>
      </contour>
      <contour>
        <pt x="163" y="201" on="0"/>
        <pt x="195" y="168" on="0"/>
        <pt x="234" y="168" on="1"/>
        <pt x="274" y="168" on="0"/>
        <pt x="290" y="186" on="1"/>
        <pt x="163" y="293" on="1"/>
        <pt x="163" y="237" on="1"/>
      </contour>
    </TTGlyph>
    <TTGlyph name="dvBA" xMin="-40" yMin="0" xMax="510" yMax="671">
      <contour>
        <pt x="510" y="671" on="1"/>
        <pt x="510" y="554" on="1"/>
        <pt x="428" y="554" on="1"/>
        <pt x="428" y="0" on="1"/>
        <pt x="295" y="0" on="1"/>
        <pt x="295" y="61" on="1"/>
        <pt x="268" y="53" on="0"/>
        <pt x="223" y="53" on="1"/>
        <pt x="126" y="53" on="0"/>
        <pt x="30" y="128" on="0"/>
        <pt x="30" y="221" on="1"/>
        <pt x="30" y="338" on="1"/>
        <pt x="30" y="431" on="0"/>
        <pt x="121" y="506" on="0"/>
        <pt x="217" y="506" on="1"/>
        <pt x="262" y="506" on="0"/>
        <pt x="295" y="495" on="1"/>
        <pt x="295" y="554" on="1"/>
        <pt x="-40" y="554" on="1"/>
        <pt x="-40" y="671" on="1"/>
      </contour>
      <contour>
        <pt x="199" y="391" on="0"/>
        <pt x="181" y="378" on="1"/>
        <pt x="295" y="265" on="1"/>
        <pt x="295" y="380" on="1"/>
        <pt x="264" y="391" on="0"/>
        <pt x="233" y="391" on="1"/>
      </contour>
      <contour>
        <pt x="163" y="198" on="0"/>
        <pt x="195" y="168" on="0"/>
        <pt x="233" y="168" on="1"/>
        <pt x="255" y="168" on="0"/>
        <pt x="289" y="172" on="1"/>
        <pt x="163" y="297" on="1"/>
        <pt x="163" y="227" on="1"/>
      </contour>
    </TTGlyph>
    <TTGlyph name="dvBH" xMin="35" yMin="54" xMax="518" yMax="676">
      <contour>
        <pt x="381" y="316" on="1"/>
        <pt x="381" y="207" on="1"/>
        <pt x="381" y="134" on="0"/>
        <pt x="297" y="54" on="0"/>
        <pt x="208" y="54" on="1"/>
        <pt x="119" y="54" on="0"/>
        <pt x="35" y="134" on="0"/>
        <pt x="35" y="207" on="1"/>
        <pt x="35" y="282" on="1"/>
        <pt x="35" y="434" on="0"/>
        <pt x="208" y="434" on="1"/>
        <pt x="247" y="434" on="1"/>
        <pt x="247" y="508" on="1"/>
        <pt x="247" y="528" on="0"/>
        <pt x="234" y="547" on="0"/>
        <pt x="211" y="547" on="1"/>
        <pt x="188" y="547" on="0"/>
        <pt x="175" y="528" on="0"/>
        <pt x="175" y="508" on="1"/>
        <pt x="175" y="497" on="0"/>
        <pt x="178" y="479" on="0"/>
        <pt x="179" y="476" on="1"/>
        <pt x="39" y="476" on="1"/>
        <pt x="38" y="479" on="0"/>
        <pt x="35" y="500" on="0"/>
        <pt x="35" y="513" on="1"/>
        <pt x="35" y="676" on="0"/>
        <pt x="211" y="676" on="1"/>
        <pt x="387" y="676" on="0"/>
        <pt x="387" y="513" on="1"/>
        <pt x="387" y="434" on="1"/>
        <pt x="518" y="434" on="1"/>
        <pt x="518" y="316" on="1"/>
      </contour>
      <contour>
        <pt x="208" y="316" on="1"/>
        <pt x="185" y="316" on="0"/>
        <pt x="169" y="296" on="0"/>
        <pt x="169" y="277" on="1"/>
        <pt x="169" y="212" on="1"/>
        <pt x="169" y="193" on="0"/>
        <pt x="185" y="173" on="0"/>
        <pt x="208" y="173" on="1"/>
        <pt x="231" y="173" on="0"/>
        <pt x="247" y="193" on="0"/>
        <pt x="247" y="212" on="1"/>
        <pt x="247" y="316" on="1"/>
      </contour>
    </TTGlyph>
    <TTGlyph name="dvBHA" xMin="36" yMin="0" xMax="688" yMax="676">
      <contour>
        <pt x="248" y="528" on="0"/>
        <pt x="235" y="547" on="0"/>
        <pt x="212" y="547" on="1"/>
        <pt x="189" y="547" on="0"/>
        <pt x="176" y="528" on="0"/>
        <pt x="176" y="508" on="1"/>
        <pt x="176" y="498" on="0"/>
        <pt x="179" y="479" on="0"/>
        <pt x="180" y="476" on="1"/>
        <pt x="40" y="476" on="1"/>
        <pt x="39" y="480" on="0"/>
        <pt x="36" y="504" on="0"/>
        <pt x="36" y="513" on="1"/>
        <pt x="36" y="676" on="0"/>
        <pt x="212" y="676" on="1"/>
        <pt x="388" y="676" on="0"/>
        <pt x="388" y="513" on="1"/>
        <pt x="388" y="434" on="1"/>
        <pt x="466" y="434" on="1"/>
        <pt x="466" y="671" on="1"/>
        <pt x="688" y="671" on="1"/>
        <pt x="688" y="554" on="1"/>
        <pt x="606" y="554" on="1"/>
        <pt x="606" y="0" on="1"/>
        <pt x="466" y="0" on="1"/>
        <pt x="466" y="316" on="1"/>
        <pt x="382" y="316" on="1"/>
        <pt x="382" y="207" on="1"/>
        <pt x="382" y="134" on="0"/>
        <pt x="298" y="54" on="0"/>
        <pt x="209" y="54" on="1"/>
        <pt x="120" y="54" on="0"/>
        <pt x="36" y="134" on="0"/>
        <pt x="36" y="207" on="1"/>
        <pt x="36" y="282" on="1"/>
        <pt x="36" y="434" on="0"/>
        <pt x="209" y="434" on="1"/>
        <pt x="248" y="434" on="1"/>
        <pt x="248" y="508" on="1"/>
      </contour>
      <contour>
        <pt x="209" y="316" on="1"/>
        <pt x="186" y="316" on="0"/>
        <pt x="170" y="296" on="0"/>
        <pt x="170" y="277" on="1"/>
        <pt x="170" y="212" on="1"/>
        <pt x="170" y="193" on="0"/>
        <pt x="186" y="173" on="0"/>
        <pt x="209" y="173" on="1"/>
        <pt x="232" y="173" on="0"/>
        <pt x="248" y="193" on="0"/>
        <pt x="248" y="212" on="1"/>
        <pt x="248" y="316" on="1"/>
      </contour>
    </TTGlyph>
    <TTGlyph name="dvBH_LA" xMin="35" yMin="0" xMax="1120" yMax="676">
      <contour>
        <pt x="1120" y="671" on="1"/>
        <pt x="1120" y="554" on="1"/>
        <pt x="1038" y="554" on="1"/>
        <pt x="1038" y="0" on="1"/>
        <pt x="898" y="0" on="1"/>
        <pt x="898" y="360" on="1"/>
        <pt x="895" y="361" on="0"/>
        <pt x="876" y="365" on="0"/>
        <pt x="863" y="365" on="1"/>
        <pt x="820" y="365" on="0"/>
        <pt x="820" y="326" on="1"/>
        <pt x="820" y="212" on="1"/>
        <pt x="680" y="212" on="1"/>
        <pt x="680" y="326" on="1"/>
        <pt x="680" y="345" on="0"/>
        <pt x="664" y="365" on="0"/>
        <pt x="641" y="365" on="1"/>
        <pt x="618" y="365" on="0"/>
        <pt x="602" y="345" on="0"/>
        <pt x="602" y="326" on="1"/>
        <pt x="602" y="188" on="1"/>
        <pt x="602" y="159" on="0"/>
        <pt x="631" y="129" on="0"/>
        <pt x="673" y="129" on="1"/>
        <pt x="705" y="129" on="0"/>
        <pt x="732" y="132" on="1"/>
        <pt x="732" y="4" on="1"/>
        <pt x="700" y="0" on="0"/>
        <pt x="665" y="0" on="1"/>
        <pt x="559" y="0" on="0"/>
        <pt x="462" y="89" on="0"/>
        <pt x="462" y="182" on="1"/>
        <pt x="462" y="316" on="1"/>
        <pt x="381" y="316" on="1"/>
        <pt x="381" y="207" on="1"/>
        <pt x="381" y="134" on="0"/>
        <pt x="297" y="54" on="0"/>
        <pt x="208" y="54" on="1"/>
        <pt x="119" y="54" on="0"/>
        <pt x="35" y="134" on="0"/>
        <pt x="35" y="207" on="1"/>
        <pt x="35" y="282" on="1"/>
        <pt x="35" y="434" on="0"/>
        <pt x="208" y="434" on="1"/>
        <pt x="247" y="434" on="1"/>
        <pt x="247" y="508" on="1"/>
        <pt x="247" y="528" on="0"/>
        <pt x="234" y="547" on="0"/>
        <pt x="211" y="547" on="1"/>
        <pt x="188" y="547" on="0"/>
        <pt x="175" y="528" on="0"/>
        <pt x="175" y="508" on="1"/>
        <pt x="175" y="497" on="0"/>
        <pt x="178" y="479" on="0"/>
        <pt x="179" y="476" on="1"/>
        <pt x="39" y="476" on="1"/>
        <pt x="38" y="479" on="0"/>
        <pt x="35" y="500" on="0"/>
        <pt x="35" y="513" on="1"/>
        <pt x="35" y="676" on="0"/>
        <pt x="211" y="676" on="1"/>
        <pt x="387" y="676" on="0"/>
        <pt x="387" y="513" on="1"/>
        <pt x="387" y="434" on="1"/>
        <pt x="492" y="434" on="1"/>
        <pt x="535" y="494" on="0"/>
        <pt x="636" y="494" on="1"/>
        <pt x="681" y="494" on="0"/>
        <pt x="736" y="461" on="0"/>
        <pt x="747" y="439" on="1"/>
        <pt x="764" y="465" on="0"/>
        <pt x="810" y="493" on="0"/>
        <pt x="850" y="493" on="1"/>
        <pt x="867" y="493" on="0"/>
        <pt x="894" y="489" on="0"/>
        <pt x="898" y="488" on="1"/>
        <pt x="898" y="554" on="1"/>
        <pt x="440" y="554" on="1"/>
        <pt x="440" y="671" on="1"/>
      </contour>
      <contour>
        <pt x="247" y="316" on="1"/>
        <pt x="208" y="316" on="1"/>
        <pt x="185" y="316" on="0"/>
        <pt x="169" y="296" on="0"/>
        <pt x="169" y="277" on="1"/>
        <pt x="169" y="212" on="1"/>
        <pt x="169" y="193" on="0"/>
        <pt x="185" y="173" on="0"/>
        <pt x="208" y="173" on="1"/>
        <pt x="231" y="173" on="0"/>
        <pt x="247" y="193" on="0"/>
        <pt x="247" y="212" on="1"/>
      </contour>
    </TTGlyph>
    <TTGlyph name="dvBH_NA" xMin="35" yMin="0" xMax="1075" yMax="676">
      <contour>
        <pt x="1075" y="671" on="1"/>
        <pt x="1075" y="554" on="1"/>
        <pt x="993" y="554" on="1"/>
        <pt x="993" y="0" on="1"/>
        <pt x="853" y="0" on="1"/>
        <pt x="853" y="362" on="1"/>
        <pt x="787" y="362" on="1"/>
        <pt x="789" y="353" on="0"/>
        <pt x="793" y="320" on="0"/>
        <pt x="793" y="306" on="1"/>
        <pt x="793" y="215" on="1"/>
        <pt x="793" y="134" on="0"/>
        <pt x="715" y="52" on="0"/>
        <pt x="626" y="52" on="1"/>
        <pt x="537" y="52" on="0"/>
        <pt x="457" y="135" on="0"/>
        <pt x="457" y="215" on="1"/>
        <pt x="457" y="316" on="1"/>
        <pt x="381" y="316" on="1"/>
        <pt x="381" y="207" on="1"/>
        <pt x="381" y="134" on="0"/>
        <pt x="297" y="54" on="0"/>
        <pt x="208" y="54" on="1"/>
        <pt x="119" y="54" on="0"/>
        <pt x="35" y="134" on="0"/>
        <pt x="35" y="207" on="1"/>
        <pt x="35" y="282" on="1"/>
        <pt x="35" y="434" on="0"/>
        <pt x="208" y="434" on="1"/>
        <pt x="247" y="434" on="1"/>
        <pt x="247" y="508" on="1"/>
        <pt x="247" y="528" on="0"/>
        <pt x="234" y="547" on="0"/>
        <pt x="211" y="547" on="1"/>
        <pt x="188" y="547" on="0"/>
        <pt x="175" y="528" on="0"/>
        <pt x="175" y="508" on="1"/>
        <pt x="175" y="497" on="0"/>
        <pt x="178" y="479" on="0"/>
        <pt x="179" y="476" on="1"/>
        <pt x="39" y="476" on="1"/>
        <pt x="38" y="479" on="0"/>
        <pt x="35" y="500" on="0"/>
        <pt x="35" y="513" on="1"/>
        <pt x="35" y="676" on="0"/>
        <pt x="211" y="676" on="1"/>
        <pt x="387" y="676" on="0"/>
        <pt x="387" y="513" on="1"/>
        <pt x="387" y="434" on="1"/>
        <pt x="484" y="434" on="1"/>
        <pt x="523" y="491" on="0"/>
        <pt x="626" y="491" on="1"/>
        <pt x="853" y="491" on="1"/>
        <pt x="853" y="554" on="1"/>
        <pt x="449" y="554" on="1"/>
        <pt x="449" y="671" on="1"/>
      </contour>
      <contour>
        <pt x="662" y="301" on="1"/>
        <pt x="662" y="345" on="0"/>
        <pt x="655" y="362" on="1"/>
        <pt x="626" y="362" on="1"/>
        <pt x="604" y="362" on="0"/>
        <pt x="590" y="343" on="0"/>
        <pt x="590" y="323" on="1"/>
        <pt x="590" y="216" on="1"/>
        <pt x="590" y="196" on="0"/>
        <pt x="604" y="177" on="0"/>
        <pt x="626" y="177" on="1"/>
        <pt x="648" y="177" on="0"/>
        <pt x="662" y="196" on="0"/>
        <pt x="662" y="216" on="1"/>
      </contour>
      <contour>
        <pt x="247" y="316" on="1"/>
        <pt x="208" y="316" on="1"/>
        <pt x="185" y="316" on="0"/>
        <pt x="169" y="296" on="0"/>
        <pt x="169" y="277" on="1"/>
        <pt x="169" y="212" on="1"/>
        <pt x="169" y="193" on="0"/>
        <pt x="185" y="173" on="0"/>
        <pt x="208" y="173" on="1"/>
        <pt x="231" y="173" on="0"/>
        <pt x="247" y="193" on="0"/>
        <pt x="247" y="212" on="1"/>
      </contour>
    </TTGlyph>
    <TTGlyph name="dvBH_R" xMin="35" yMin="-58" xMax="520" yMax="676">
      <contour>
        <pt x="382" y="335" on="1"/>
        <pt x="382" y="273" on="1"/>
        <pt x="382" y="201" on="0"/>
        <pt x="297" y="120" on="0"/>
        <pt x="209" y="120" on="1"/>
        <pt x="120" y="120" on="0"/>
        <pt x="35" y="200" on="0"/>
        <pt x="35" y="273" on="1"/>
        <pt x="35" y="300" on="1"/>
        <pt x="35" y="373" on="0"/>
        <pt x="120" y="453" on="0"/>
        <pt x="209" y="453" on="1"/>
        <pt x="248" y="453" on="1"/>
        <pt x="248" y="508" on="1"/>
        <pt x="248" y="528" on="0"/>
        <pt x="235" y="547" on="0"/>
        <pt x="212" y="547" on="1"/>
        <pt x="189" y="547" on="0"/>
        <pt x="176" y="528" on="0"/>
        <pt x="176" y="508" on="1"/>
        <pt x="176" y="501" on="0"/>
        <pt x="178" y="492" on="0"/>
        <pt x="178" y="491" on="1"/>
        <pt x="38" y="491" on="1"/>
        <pt x="38" y="493" on="0"/>
        <pt x="36" y="504" on="0"/>
        <pt x="36" y="513" on="1"/>
        <pt x="36" y="676" on="0"/>
        <pt x="212" y="676" on="1"/>
        <pt x="388" y="676" on="0"/>
        <pt x="388" y="513" on="1"/>
        <pt x="388" y="453" on="1"/>
        <pt x="520" y="453" on="1"/>
        <pt x="520" y="335" on="1"/>
      </contour>
      <contour>
        <pt x="209" y="335" on="1"/>
        <pt x="186" y="335" on="0"/>
        <pt x="170" y="315" on="0"/>
        <pt x="170" y="296" on="1"/>
        <pt x="170" y="278" on="1"/>
        <pt x="170" y="259" on="0"/>
        <pt x="186" y="239" on="0"/>
        <pt x="209" y="239" on="1"/>
        <pt x="232" y="239" on="0"/>
        <pt x="248" y="259" on="0"/>
        <pt x="248" y="278" on="1"/>
        <pt x="248" y="335" on="1"/>
      </contour>
      <contour>
        <pt x="513" y="149" on="0"/>
        <pt x="458" y="52" on="0"/>
        <pt x="425" y="13" on="1"/>
        <pt x="366" y="-58" on="1"/>
        <pt x="204" y="-58" on="1"/>
        <pt x="520" y="324" on="1"/>
        <pt x="520" y="174" on="1"/>
      </contour>
    </TTGlyph>
    <TTGlyph name="dvBH_RA" xMin="35" yMin="-58" xMax="688" yMax="676">
      <contour>
        <pt x="382" y="335" on="1"/>
        <pt x="382" y="273" on="1"/>
        <pt x="382" y="201" on="0"/>
        <pt x="297" y="120" on="0"/>
        <pt x="209" y="120" on="1"/>
        <pt x="120" y="120" on="0"/>
        <pt x="35" y="200" on="0"/>
        <pt x="35" y="273" on="1"/>
        <pt x="35" y="300" on="1"/>
        <pt x="35" y="373" on="0"/>
        <pt x="120" y="453" on="0"/>
        <pt x="209" y="453" on="1"/>
        <pt x="248" y="453" on="1"/>
        <pt x="248" y="508" on="1"/>
        <pt x="248" y="528" on="0"/>
        <pt x="235" y="547" on="0"/>
        <pt x="212" y="547" on="1"/>
        <pt x="189" y="547" on="0"/>
        <pt x="176" y="528" on="0"/>
        <pt x="176" y="508" on="1"/>
        <pt x="176" y="502" on="0"/>
        <pt x="178" y="493" on="0"/>
        <pt x="178" y="491" on="1"/>
        <pt x="38" y="491" on="1"/>
        <pt x="38" y="492" on="0"/>
        <pt x="36" y="504" on="0"/>
        <pt x="36" y="513" on="1"/>
        <pt x="36" y="676" on="0"/>
        <pt x="212" y="676" on="1"/>
        <pt x="388" y="676" on="0"/>
        <pt x="388" y="513" on="1"/>
        <pt x="388" y="453" on="1"/>
        <pt x="466" y="453" on="1"/>
        <pt x="466" y="671" on="1"/>
        <pt x="688" y="671" on="1"/>
        <pt x="688" y="554" on="1"/>
        <pt x="606" y="554" on="1"/>
        <pt x="606" y="-8" on="1"/>
        <pt x="476" y="-8" on="1"/>
        <pt x="476" y="-3" on="1"/>
        <pt x="476" y="16" on="0"/>
        <pt x="482" y="84" on="0"/>
        <pt x="487" y="122" on="1"/>
        <pt x="485" y="122" on="1"/>
        <pt x="479" y="102" on="0"/>
        <pt x="436" y="26" on="0"/>
        <pt x="418" y="4" on="1"/>
        <pt x="366" y="-58" on="1"/>
        <pt x="204" y="-58" on="1"/>
        <pt x="466" y="259" on="1"/>
        <pt x="466" y="335" on="1"/>
      </contour>
      <contour>
        <pt x="209" y="335" on="1"/>
        <pt x="186" y="335" on="0"/>
        <pt x="170" y="315" on="0"/>
        <pt x="170" y="296" on="1"/>
        <pt x="170" y="278" on="1"/>
        <pt x="170" y="259" on="0"/>
        <pt x="186" y="239" on="0"/>
        <pt x="209" y="239" on="1"/>
        <pt x="232" y="239" on="0"/>
        <pt x="248" y="259" on="0"/>
        <pt x="248" y="278" on="1"/>
        <pt x="248" y="335" on="1"/>
      </contour>
    </TTGlyph>
    <TTGlyph name="dvBH_R_YA" xMin="36" yMin="-58" xMax="997" yMax="676">
      <contour>
        <pt x="997" y="671" on="1"/>
        <pt x="997" y="554" on="1"/>
        <pt x="915" y="554" on="1"/>
        <pt x="915" y="0" on="1"/>
        <pt x="775" y="0" on="1"/>
        <pt x="775" y="95" on="1"/>
        <pt x="744" y="86" on="0"/>
        <pt x="692" y="86" on="1"/>
        <pt x="594" y="86" on="0"/>
        <pt x="531" y="129" on="1"/>
        <pt x="500" y="66" on="0"/>
        <pt x="456" y="13" on="1"/>
        <pt x="397" y="-58" on="1"/>
        <pt x="235" y="-58" on="1"/>
        <pt x="466" y="221" on="1"/>
        <pt x="460" y="244" on="0"/>
        <pt x="460" y="270" on="1"/>
        <pt x="460" y="330" on="1"/>
        <pt x="447" y="334" on="0"/>
        <pt x="422" y="334" on="1"/>
        <pt x="382" y="334" on="1"/>
        <pt x="382" y="271" on="1"/>
        <pt x="382" y="198" on="0"/>
        <pt x="298" y="118" on="0"/>
        <pt x="209" y="118" on="1"/>
        <pt x="120" y="118" on="0"/>
        <pt x="36" y="198" on="0"/>
        <pt x="36" y="271" on="1"/>
        <pt x="36" y="300" on="1"/>
        <pt x="36" y="452" on="0"/>
        <pt x="209" y="452" on="1"/>
        <pt x="248" y="452" on="1"/>
        <pt x="248" y="508" on="1"/>
        <pt x="248" y="528" on="0"/>
        <pt x="235" y="547" on="0"/>
        <pt x="212" y="547" on="1"/>
        <pt x="189" y="547" on="0"/>
        <pt x="176" y="528" on="0"/>
        <pt x="176" y="508" on="1"/>
        <pt x="176" y="496" on="0"/>
        <pt x="178" y="479" on="0"/>
        <pt x="179" y="476" on="1"/>
        <pt x="39" y="476" on="1"/>
        <pt x="38" y="479" on="0"/>
        <pt x="36" y="499" on="0"/>
        <pt x="36" y="513" on="1"/>
        <pt x="36" y="676" on="0"/>
        <pt x="212" y="676" on="1"/>
        <pt x="388" y="676" on="0"/>
        <pt x="388" y="513" on="1"/>
        <pt x="388" y="452" on="1"/>
        <pt x="430" y="452" on="1"/>
        <pt x="478" y="452" on="0"/>
        <pt x="540" y="433" on="0"/>
        <pt x="558" y="412" on="1"/>
        <pt x="573" y="424" on="0"/>
        <pt x="573" y="459" on="1"/>
        <pt x="573" y="507" on="1"/>
        <pt x="573" y="522" on="0"/>
        <pt x="570" y="543" on="0"/>
        <pt x="567" y="553" on="0"/>
        <pt x="566" y="554" on="1"/>
        <pt x="440" y="554" on="1"/>
        <pt x="440" y="671" on="1"/>
      </contour>
      <contour>
        <pt x="775" y="554" on="1"/>
        <pt x="703" y="554" on="1"/>
        <pt x="704" y="550" on="0"/>
        <pt x="709" y="524" on="0"/>
        <pt x="709" y="507" on="1"/>
        <pt x="709" y="430" on="1"/>
        <pt x="709" y="372" on="0"/>
        <pt x="654" y="311" on="0"/>
        <pt x="597" y="308" on="1"/>
        <pt x="597" y="290" on="1"/>
        <pt x="597" y="216" on="0"/>
        <pt x="700" y="216" on="1"/>
        <pt x="744" y="216" on="0"/>
        <pt x="775" y="224" on="1"/>
      </contour>
      <contour>
        <pt x="248" y="336" on="1"/>
        <pt x="209" y="336" on="1"/>
        <pt x="186" y="336" on="0"/>
        <pt x="170" y="316" on="0"/>
        <pt x="170" y="297" on="1"/>
        <pt x="170" y="278" on="1"/>
        <pt x="170" y="259" on="0"/>
        <pt x="186" y="239" on="0"/>
        <pt x="209" y="239" on="1"/>
        <pt x="232" y="239" on="0"/>
        <pt x="248" y="259" on="0"/>
        <pt x="248" y="278" on="1"/>
      </contour>
    </TTGlyph>
    <TTGlyph name="dvBH_VA" xMin="35" yMin="0" xMax="916" yMax="676">
      <contour>
        <pt x="916" y="671" on="1"/>
        <pt x="916" y="554" on="1"/>
        <pt x="834" y="554" on="1"/>
        <pt x="834" y="0" on="1"/>
        <pt x="694" y="0" on="1"/>
        <pt x="694" y="59" on="1"/>
        <pt x="659" y="52" on="0"/>
        <pt x="628" y="52" on="1"/>
        <pt x="539" y="52" on="0"/>
        <pt x="464" y="131" on="0"/>
        <pt x="464" y="211" on="1"/>
        <pt x="464" y="316" on="1"/>
        <pt x="381" y="316" on="1"/>
        <pt x="381" y="207" on="1"/>
        <pt x="381" y="134" on="0"/>
        <pt x="297" y="54" on="0"/>
        <pt x="208" y="54" on="1"/>
        <pt x="119" y="54" on="0"/>
        <pt x="35" y="134" on="0"/>
        <pt x="35" y="207" on="1"/>
        <pt x="35" y="282" on="1"/>
        <pt x="35" y="434" on="0"/>
        <pt x="208" y="434" on="1"/>
        <pt x="247" y="434" on="1"/>
        <pt x="247" y="508" on="1"/>
        <pt x="247" y="528" on="0"/>
        <pt x="234" y="547" on="0"/>
        <pt x="211" y="547" on="1"/>
        <pt x="188" y="547" on="0"/>
        <pt x="175" y="528" on="0"/>
        <pt x="175" y="508" on="1"/>
        <pt x="175" y="497" on="0"/>
        <pt x="178" y="479" on="0"/>
        <pt x="179" y="476" on="1"/>
        <pt x="39" y="476" on="1"/>
        <pt x="38" y="479" on="0"/>
        <pt x="35" y="500" on="0"/>
        <pt x="35" y="513" on="1"/>
        <pt x="35" y="676" on="0"/>
        <pt x="211" y="676" on="1"/>
        <pt x="387" y="676" on="0"/>
        <pt x="387" y="513" on="1"/>
        <pt x="387" y="434" on="1"/>
        <pt x="480" y="434" on="1"/>
        <pt x="498" y="470" on="0"/>
        <pt x="570" y="506" on="0"/>
        <pt x="628" y="506" on="1"/>
        <pt x="659" y="506" on="0"/>
        <pt x="694" y="499" on="1"/>
        <pt x="694" y="554" on="1"/>
        <pt x="447" y="554" on="1"/>
        <pt x="447" y="671" on="1"/>
      </contour>
      <contour>
        <pt x="701" y="383" on="1"/>
        <pt x="676" y="388" on="0"/>
        <pt x="653" y="388" on="1"/>
        <pt x="600" y="388" on="0"/>
        <pt x="600" y="345" on="1"/>
        <pt x="600" y="214" on="1"/>
        <pt x="600" y="170" on="0"/>
        <pt x="654" y="170" on="1"/>
        <pt x="682" y="170" on="0"/>
        <pt x="701" y="177" on="1"/>
      </contour>
      <contour>
        <pt x="247" y="316" on="1"/>
        <pt x="208" y="316" on="1"/>
        <pt x="185" y="316" on="0"/>
        <pt x="169" y="296" on="0"/>
        <pt x="169" y="277" on="1"/>
        <pt x="169" y="212" on="1"/>
        <pt x="169" y="193" on="0"/>
        <pt x="185" y="173" on="0"/>
        <pt x="208" y="173" on="1"/>
        <pt x="231" y="173" on="0"/>
        <pt x="247" y="193" on="0"/>
        <pt x="247" y="212" on="1"/>
      </contour>
    </TTGlyph>
    <TTGlyph name="dvBH_YA" xMin="36" yMin="0" xMax="997" yMax="676">
      <contour>
        <pt x="997" y="671" on="1"/>
        <pt x="997" y="554" on="1"/>
        <pt x="915" y="554" on="1"/>
        <pt x="915" y="0" on="1"/>
        <pt x="775" y="0" on="1"/>
        <pt x="775" y="95" on="1"/>
        <pt x="744" y="86" on="0"/>
        <pt x="692" y="86" on="1"/>
        <pt x="586" y="86" on="0"/>
        <pt x="460" y="183" on="0"/>
        <pt x="460" y="270" on="1"/>
        <pt x="460" y="312" on="1"/>
        <pt x="447" y="316" on="0"/>
        <pt x="422" y="316" on="1"/>
        <pt x="382" y="316" on="1"/>
        <pt x="382" y="207" on="1"/>
        <pt x="382" y="134" on="0"/>
        <pt x="298" y="54" on="0"/>
        <pt x="209" y="54" on="1"/>
        <pt x="120" y="54" on="0"/>
        <pt x="36" y="134" on="0"/>
        <pt x="36" y="207" on="1"/>
        <pt x="36" y="282" on="1"/>
        <pt x="36" y="434" on="0"/>
        <pt x="209" y="434" on="1"/>
        <pt x="248" y="434" on="1"/>
        <pt x="248" y="508" on="1"/>
        <pt x="248" y="528" on="0"/>
        <pt x="235" y="547" on="0"/>
        <pt x="212" y="547" on="1"/>
        <pt x="189" y="547" on="0"/>
        <pt x="176" y="528" on="0"/>
        <pt x="176" y="508" on="1"/>
        <pt x="176" y="496" on="0"/>
        <pt x="178" y="479" on="0"/>
        <pt x="179" y="476" on="1"/>
        <pt x="39" y="476" on="1"/>
        <pt x="38" y="479" on="0"/>
        <pt x="36" y="499" on="0"/>
        <pt x="36" y="513" on="1"/>
        <pt x="36" y="676" on="0"/>
        <pt x="212" y="676" on="1"/>
        <pt x="388" y="676" on="0"/>
        <pt x="388" y="513" on="1"/>
        <pt x="388" y="434" on="1"/>
        <pt x="430" y="434" on="1"/>
        <pt x="511" y="434" on="0"/>
        <pt x="547" y="405" on="1"/>
        <pt x="561" y="412" on="0"/>
        <pt x="573" y="437" on="0"/>
        <pt x="573" y="459" on="1"/>
        <pt x="573" y="507" on="1"/>
        <pt x="573" y="522" on="0"/>
        <pt x="570" y="543" on="0"/>
        <pt x="567" y="553" on="0"/>
        <pt x="566" y="554" on="1"/>
        <pt x="440" y="554" on="1"/>
        <pt x="440" y="671" on="1"/>
      </contour>
      <contour>
        <pt x="775" y="554" on="1"/>
        <pt x="703" y="554" on="1"/>
        <pt x="704" y="550" on="0"/>
        <pt x="709" y="524" on="0"/>
        <pt x="709" y="507" on="1"/>
        <pt x="709" y="430" on="1"/>
        <pt x="709" y="372" on="0"/>
        <pt x="654" y="311" on="0"/>
        <pt x="597" y="308" on="1"/>
        <pt x="597" y="290" on="1"/>
        <pt x="597" y="216" on="0"/>
        <pt x="700" y="216" on="1"/>
        <pt x="744" y="216" on="0"/>
        <pt x="775" y="224" on="1"/>
      </contour>
      <contour>
        <pt x="248" y="316" on="1"/>
        <pt x="209" y="316" on="1"/>
        <pt x="186" y="316" on="0"/>
        <pt x="170" y="296" on="0"/>
        <pt x="170" y="277" on="1"/>
        <pt x="170" y="212" on="1"/>
        <pt x="170" y="193" on="0"/>
        <pt x="186" y="173" on="0"/>
        <pt x="209" y="173" on="1"/>
        <pt x="232" y="173" on="0"/>
        <pt x="248" y="193" on="0"/>
        <pt x="248" y="212" on="1"/>
      </contour>
    </TTGlyph>
    <TTGlyph name="dvB_BA" xMin="-40" yMin="0" xMax="794" yMax="671">
      <contour>
        <pt x="794" y="554" on="1"/>
        <pt x="712" y="554" on="1"/>
        <pt x="712" y="0" on="1"/>
        <pt x="579" y="0" on="1"/>
        <pt x="579" y="61" on="1"/>
        <pt x="552" y="53" on="0"/>
        <pt x="507" y="53" on="1"/>
        <pt x="408" y="53" on="0"/>
        <pt x="363" y="90" on="1"/>
        <pt x="318" y="53" on="0"/>
        <pt x="237" y="53" on="1"/>
        <pt x="129" y="53" on="0"/>
        <pt x="30" y="143" on="0"/>
        <pt x="30" y="231" on="1"/>
        <pt x="30" y="328" on="1"/>
        <pt x="30" y="417" on="0"/>
        <pt x="118" y="506" on="0"/>
        <pt x="222" y="506" on="1"/>
        <pt x="237" y="506" on="0"/>
        <pt x="257" y="504" on="0"/>
        <pt x="260" y="504" on="1"/>
        <pt x="260" y="389" on="1"/>
        <pt x="258" y="389" on="0"/>
        <pt x="244" y="391" on="0"/>
        <pt x="234" y="391" on="1"/>
        <pt x="193" y="391" on="0"/>
        <pt x="177" y="372" on="1"/>
        <pt x="314" y="258" on="1"/>
        <pt x="314" y="338" on="1"/>
        <pt x="314" y="431" on="0"/>
        <pt x="405" y="506" on="0"/>
        <pt x="501" y="506" on="1"/>
        <pt x="546" y="506" on="0"/>
        <pt x="579" y="495" on="1"/>
        <pt x="579" y="554" on="1"/>
        <pt x="-40" y="554" on="1"/>
        <pt x="-40" y="671" on="1"/>
        <pt x="794" y="671" on="1"/>
      </contour>
      <contour>
        <pt x="483" y="391" on="0"/>
        <pt x="465" y="378" on="1"/>
        <pt x="579" y="265" on="1"/>
        <pt x="579" y="380" on="1"/>
        <pt x="548" y="391" on="0"/>
        <pt x="517" y="391" on="1"/>
      </contour>
      <contour>
        <pt x="447" y="198" on="0"/>
        <pt x="479" y="168" on="0"/>
        <pt x="517" y="168" on="1"/>
        <pt x="539" y="168" on="0"/>
        <pt x="573" y="172" on="1"/>
        <pt x="447" y="297" on="1"/>
        <pt x="447" y="227" on="1"/>
      </contour>
      <contour>
        <pt x="163" y="201" on="0"/>
        <pt x="197" y="168" on="0"/>
        <pt x="239" y="168" on="1"/>
        <pt x="276" y="168" on="0"/>
        <pt x="295" y="182" on="1"/>
        <pt x="163" y="293" on="1"/>
        <pt x="163" y="237" on="1"/>
      </contour>
    </TTGlyph>
    <TTGlyph name="dvB_BHA" xMin="-40" yMin="0" xMax="958" yMax="676">
      <contour>
        <pt x="958" y="671" on="1"/>
        <pt x="958" y="554" on="1"/>
        <pt x="876" y="554" on="1"/>
        <pt x="876" y="0" on="1"/>
        <pt x="736" y="0" on="1"/>
        <pt x="736" y="316" on="1"/>
        <pt x="652" y="316" on="1"/>
        <pt x="652" y="207" on="1"/>
        <pt x="652" y="134" on="0"/>
        <pt x="568" y="54" on="0"/>
        <pt x="479" y="54" on="1"/>
        <pt x="398" y="54" on="0"/>
        <pt x="353" y="89" on="1"/>
        <pt x="309" y="53" on="0"/>
        <pt x="232" y="53" on="1"/>
        <pt x="127" y="53" on="0"/>
        <pt x="30" y="143" on="0"/>
        <pt x="30" y="231" on="1"/>
        <pt x="30" y="328" on="1"/>
        <pt x="30" y="417" on="0"/>
        <pt x="118" y="506" on="0"/>
        <pt x="222" y="506" on="1"/>
        <pt x="237" y="506" on="0"/>
        <pt x="257" y="504" on="0"/>
        <pt x="260" y="504" on="1"/>
        <pt x="260" y="389" on="1"/>
        <pt x="258" y="389" on="0"/>
        <pt x="244" y="391" on="0"/>
        <pt x="234" y="391" on="1"/>
        <pt x="193" y="391" on="0"/>
        <pt x="177" y="372" on="1"/>
        <pt x="306" y="264" on="1"/>
        <pt x="306" y="282" on="1"/>
        <pt x="306" y="434" on="0"/>
        <pt x="479" y="434" on="1"/>
        <pt x="518" y="434" on="1"/>
        <pt x="518" y="508" on="1"/>
        <pt x="518" y="528" on="0"/>
        <pt x="505" y="547" on="0"/>
        <pt x="482" y="547" on="1"/>
        <pt x="459" y="547" on="0"/>
        <pt x="446" y="528" on="0"/>
        <pt x="446" y="508" on="1"/>
        <pt x="446" y="497" on="0"/>
        <pt x="448" y="479" on="0"/>
        <pt x="449" y="476" on="1"/>
        <pt x="309" y="476" on="1"/>
        <pt x="308" y="479" on="0"/>
        <pt x="306" y="499" on="0"/>
        <pt x="306" y="513" on="1"/>
        <pt x="306" y="676" on="0"/>
        <pt x="482" y="676" on="1"/>
        <pt x="658" y="676" on="0"/>
        <pt x="658" y="513" on="1"/>
        <pt x="658" y="434" on="1"/>
        <pt x="736" y="434" on="1"/>
        <pt x="736" y="671" on="1"/>
      </contour>
      <contour>
        <pt x="261" y="554" on="1"/>
        <pt x="-40" y="554" on="1"/>
        <pt x="-40" y="671" on="1"/>
        <pt x="261" y="671" on="1"/>
      </contour>
      <contour>
        <pt x="518" y="316" on="1"/>
        <pt x="479" y="316" on="1"/>
        <pt x="456" y="316" on="0"/>
        <pt x="440" y="296" on="0"/>
        <pt x="440" y="277" on="1"/>
        <pt x="440" y="212" on="1"/>
        <pt x="440" y="193" on="0"/>
        <pt x="456" y="173" on="0"/>
        <pt x="479" y="173" on="1"/>
        <pt x="502" y="173" on="0"/>
        <pt x="518" y="193" on="0"/>
        <pt x="518" y="212" on="1"/>
      </contour>
      <contour>
        <pt x="274" y="168" on="0"/>
        <pt x="290" y="186" on="1"/>
        <pt x="163" y="293" on="1"/>
        <pt x="163" y="237" on="1"/>
        <pt x="163" y="201" on="0"/>
        <pt x="195" y="168" on="0"/>
        <pt x="234" y="168" on="1"/>
      </contour>
    </TTGlyph>
    <TTGlyph name="dvB_BH_RA" xMin="-39" yMin="-58" xMax="957" yMax="676">
      <contour>
        <pt x="957" y="671" on="1"/>
        <pt x="957" y="554" on="1"/>
        <pt x="875" y="554" on="1"/>
        <pt x="875" y="-8" on="1"/>
        <pt x="745" y="-8" on="1"/>
        <pt x="745" y="-3" on="1"/>
        <pt x="745" y="16" on="0"/>
        <pt x="751" y="84" on="0"/>
        <pt x="756" y="122" on="1"/>
        <pt x="754" y="122" on="1"/>
        <pt x="748" y="102" on="0"/>
        <pt x="705" y="26" on="0"/>
        <pt x="687" y="4" on="1"/>
        <pt x="635" y="-58" on="1"/>
        <pt x="473" y="-58" on="1"/>
        <pt x="735" y="259" on="1"/>
        <pt x="735" y="335" on="1"/>
        <pt x="651" y="335" on="1"/>
        <pt x="651" y="273" on="1"/>
        <pt x="651" y="201" on="0"/>
        <pt x="566" y="120" on="0"/>
        <pt x="478" y="120" on="1"/>
        <pt x="425" y="120" on="0"/>
        <pt x="389" y="135" on="1"/>
        <pt x="348" y="53" on="0"/>
        <pt x="232" y="53" on="1"/>
        <pt x="127" y="53" on="0"/>
        <pt x="30" y="143" on="0"/>
        <pt x="30" y="231" on="1"/>
        <pt x="30" y="328" on="1"/>
        <pt x="30" y="417" on="0"/>
        <pt x="118" y="506" on="0"/>
        <pt x="222" y="506" on="1"/>
        <pt x="237" y="506" on="0"/>
        <pt x="257" y="504" on="0"/>
        <pt x="260" y="504" on="1"/>
        <pt x="260" y="389" on="1"/>
        <pt x="258" y="389" on="0"/>
        <pt x="244" y="391" on="0"/>
        <pt x="234" y="391" on="1"/>
        <pt x="193" y="391" on="0"/>
        <pt x="177" y="372" on="1"/>
        <pt x="304" y="266" on="1"/>
        <pt x="304" y="273" on="1"/>
        <pt x="304" y="300" on="1"/>
        <pt x="304" y="373" on="0"/>
        <pt x="389" y="453" on="0"/>
        <pt x="478" y="453" on="1"/>
        <pt x="517" y="453" on="1"/>
        <pt x="517" y="508" on="1"/>
        <pt x="517" y="528" on="0"/>
        <pt x="504" y="547" on="0"/>
        <pt x="481" y="547" on="1"/>
        <pt x="458" y="547" on="0"/>
        <pt x="445" y="528" on="0"/>
        <pt x="445" y="508" on="1"/>
        <pt x="445" y="502" on="0"/>
        <pt x="447" y="493" on="0"/>
        <pt x="447" y="491" on="1"/>
        <pt x="307" y="491" on="1"/>
        <pt x="307" y="492" on="0"/>
        <pt x="305" y="504" on="0"/>
        <pt x="305" y="513" on="1"/>
        <pt x="305" y="676" on="0"/>
        <pt x="481" y="676" on="1"/>
        <pt x="657" y="676" on="0"/>
        <pt x="657" y="513" on="1"/>
        <pt x="657" y="453" on="1"/>
        <pt x="735" y="453" on="1"/>
        <pt x="735" y="671" on="1"/>
      </contour>
      <contour>
        <pt x="260" y="554" on="1"/>
        <pt x="-39" y="554" on="1"/>
        <pt x="-39" y="671" on="1"/>
        <pt x="260" y="671" on="1"/>
      </contour>
      <contour>
        <pt x="517" y="335" on="1"/>
        <pt x="478" y="335" on="1"/>
        <pt x="455" y="335" on="0"/>
        <pt x="439" y="315" on="0"/>
        <pt x="439" y="296" on="1"/>
        <pt x="439" y="278" on="1"/>
        <pt x="439" y="259" on="0"/>
        <pt x="455" y="239" on="0"/>
        <pt x="478" y="239" on="1"/>
        <pt x="501" y="239" on="0"/>
        <pt x="517" y="259" on="0"/>
        <pt x="517" y="278" on="1"/>
      </contour>
      <contour>
        <pt x="274" y="168" on="0"/>
        <pt x="290" y="186" on="1"/>
        <pt x="163" y="293" on="1"/>
        <pt x="163" y="237" on="1"/>
        <pt x="163" y="201" on="0"/>
        <pt x="195" y="168" on="0"/>
        <pt x="234" y="168" on="1"/>
      </contour>
    </TTGlyph>
    <TTGlyph name="dvB_DA" xMin="-40" yMin="0" xMax="744" yMax="671">
      <contour>
        <pt x="460" y="368" on="0"/>
        <pt x="444" y="351" on="0"/>
        <pt x="444" y="331" on="1"/>
        <pt x="444" y="222" on="1"/>
        <pt x="444" y="203" on="0"/>
        <pt x="462" y="184" on="0"/>
        <pt x="487" y="184" on="1"/>
        <pt x="506" y="184" on="0"/>
        <pt x="526" y="190" on="1"/>
        <pt x="526" y="278" on="1"/>
        <pt x="666" y="278" on="1"/>
        <pt x="666" y="0" on="1"/>
        <pt x="526" y="0" on="1"/>
        <pt x="526" y="67" on="1"/>
        <pt x="502" y="61" on="0"/>
        <pt x="465" y="61" on="1"/>
        <pt x="396" y="61" on="0"/>
        <pt x="357" y="88" on="1"/>
        <pt x="316" y="53" on="0"/>
        <pt x="237" y="53" on="1"/>
        <pt x="129" y="53" on="0"/>
        <pt x="30" y="143" on="0"/>
        <pt x="30" y="231" on="1"/>
        <pt x="30" y="328" on="1"/>
        <pt x="30" y="417" on="0"/>
        <pt x="118" y="506" on="0"/>
        <pt x="222" y="506" on="1"/>
        <pt x="237" y="506" on="0"/>
        <pt x="257" y="504" on="0"/>
        <pt x="260" y="504" on="1"/>
        <pt x="260" y="389" on="1"/>
        <pt x="258" y="389" on="0"/>
        <pt x="244" y="391" on="0"/>
        <pt x="234" y="391" on="1"/>
        <pt x="193" y="391" on="0"/>
        <pt x="177" y="372" on="1"/>
        <pt x="304" y="266" on="1"/>
        <pt x="304" y="336" on="1"/>
        <pt x="304" y="424" on="0"/>
        <pt x="390" y="495" on="0"/>
        <pt x="485" y="495" on="1"/>
        <pt x="517" y="495" on="1"/>
        <pt x="517" y="554" on="1"/>
        <pt x="-40" y="554" on="1"/>
        <pt x="-40" y="671" on="1"/>
        <pt x="744" y="671" on="1"/>
        <pt x="744" y="554" on="1"/>
        <pt x="657" y="554" on="1"/>
        <pt x="657" y="368" on="1"/>
        <pt x="485" y="368" on="1"/>
      </contour>
      <contour>
        <pt x="163" y="201" on="0"/>
        <pt x="197" y="168" on="0"/>
        <pt x="239" y="168" on="1"/>
        <pt x="276" y="168" on="0"/>
        <pt x="295" y="182" on="1"/>
        <pt x="163" y="293" on="1"/>
        <pt x="163" y="237" on="1"/>
      </contour>
    </TTGlyph>
    <TTGlyph name="dvB_DHA" xMin="-40" yMin="0" xMax="815" yMax="671">
      <contour>
        <pt x="815" y="671" on="1"/>
        <pt x="815" y="554" on="1"/>
        <pt x="733" y="554" on="1"/>
        <pt x="733" y="0" on="1"/>
        <pt x="593" y="0" on="1"/>
        <pt x="593" y="67" on="1"/>
        <pt x="553" y="57" on="0"/>
        <pt x="499" y="57" on="1"/>
        <pt x="411" y="57" on="0"/>
        <pt x="360" y="95" on="1"/>
        <pt x="315" y="53" on="0"/>
        <pt x="232" y="53" on="1"/>
        <pt x="127" y="53" on="0"/>
        <pt x="30" y="143" on="0"/>
        <pt x="30" y="231" on="1"/>
        <pt x="30" y="328" on="1"/>
        <pt x="30" y="417" on="0"/>
        <pt x="118" y="506" on="0"/>
        <pt x="222" y="506" on="1"/>
        <pt x="237" y="506" on="0"/>
        <pt x="257" y="504" on="0"/>
        <pt x="260" y="504" on="1"/>
        <pt x="260" y="389" on="1"/>
        <pt x="258" y="389" on="0"/>
        <pt x="244" y="391" on="0"/>
        <pt x="234" y="391" on="1"/>
        <pt x="193" y="391" on="0"/>
        <pt x="177" y="372" on="1"/>
        <pt x="305" y="265" on="1"/>
        <pt x="305" y="268" on="1"/>
        <pt x="305" y="308" on="0"/>
        <pt x="327" y="357" on="0"/>
        <pt x="349" y="370" on="1"/>
        <pt x="311" y="399" on="0"/>
        <pt x="311" y="465" on="1"/>
        <pt x="311" y="507" on="1"/>
        <pt x="311" y="520" on="0"/>
        <pt x="316" y="541" on="0"/>
        <pt x="321" y="553" on="0"/>
        <pt x="322" y="554" on="1"/>
        <pt x="-40" y="554" on="1"/>
        <pt x="-40" y="671" on="1"/>
        <pt x="523" y="671" on="1"/>
        <pt x="523" y="554" on="1"/>
        <pt x="467" y="554" on="1"/>
        <pt x="466" y="553" on="0"/>
        <pt x="458" y="543" on="0"/>
        <pt x="451" y="522" on="0"/>
        <pt x="451" y="507" on="1"/>
        <pt x="451" y="470" on="1"/>
        <pt x="451" y="451" on="0"/>
        <pt x="467" y="431" on="0"/>
        <pt x="490" y="431" on="1"/>
        <pt x="534" y="431" on="1"/>
        <pt x="534" y="302" on="1"/>
        <pt x="484" y="302" on="1"/>
        <pt x="461" y="302" on="0"/>
        <pt x="445" y="282" on="0"/>
        <pt x="445" y="263" on="1"/>
        <pt x="445" y="235" on="1"/>
        <pt x="445" y="206" on="0"/>
        <pt x="483" y="182" on="0"/>
        <pt x="519" y="182" on="1"/>
        <pt x="553" y="182" on="0"/>
        <pt x="593" y="192" on="1"/>
        <pt x="593" y="671" on="1"/>
      </contour>
      <contour>
        <pt x="274" y="168" on="0"/>
        <pt x="290" y="186" on="1"/>
        <pt x="163" y="293" on="1"/>
        <pt x="163" y="237" on="1"/>
        <pt x="163" y="201" on="0"/>
        <pt x="195" y="168" on="0"/>
        <pt x="234" y="168" on="1"/>
      </contour>
    </TTGlyph>
    <TTGlyph name="dvB_DH_VA" xMin="-40" yMin="0" xMax="1066" yMax="671">
      <contour>
        <pt x="1066" y="671" on="1"/>
        <pt x="1066" y="554" on="1"/>
        <pt x="984" y="554" on="1"/>
        <pt x="984" y="0" on="1"/>
        <pt x="844" y="0" on="1"/>
        <pt x="844" y="59" on="1"/>
        <pt x="809" y="52" on="0"/>
        <pt x="778" y="52" on="1"/>
        <pt x="701" y="52" on="0"/>
        <pt x="662" y="82" on="1"/>
        <pt x="626" y="70" on="0"/>
        <pt x="559" y="57" on="0"/>
        <pt x="517" y="57" on="1"/>
        <pt x="415" y="57" on="0"/>
        <pt x="361" y="97" on="1"/>
        <pt x="315" y="53" on="0"/>
        <pt x="231" y="53" on="1"/>
        <pt x="126" y="53" on="0"/>
        <pt x="29" y="143" on="0"/>
        <pt x="29" y="231" on="1"/>
        <pt x="29" y="328" on="1"/>
        <pt x="29" y="417" on="0"/>
        <pt x="117" y="506" on="0"/>
        <pt x="221" y="506" on="1"/>
        <pt x="236" y="506" on="0"/>
        <pt x="256" y="504" on="0"/>
        <pt x="259" y="504" on="1"/>
        <pt x="259" y="389" on="1"/>
        <pt x="257" y="389" on="0"/>
        <pt x="243" y="391" on="0"/>
        <pt x="233" y="391" on="1"/>
        <pt x="192" y="391" on="0"/>
        <pt x="176" y="372" on="1"/>
        <pt x="305" y="264" on="1"/>
        <pt x="305" y="268" on="1"/>
        <pt x="305" y="308" on="0"/>
        <pt x="327" y="357" on="0"/>
        <pt x="349" y="370" on="1"/>
        <pt x="311" y="399" on="0"/>
        <pt x="311" y="465" on="1"/>
        <pt x="311" y="507" on="1"/>
        <pt x="311" y="526" on="0"/>
        <pt x="316" y="551" on="0"/>
        <pt x="317" y="554" on="1"/>
        <pt x="-40" y="554" on="1"/>
        <pt x="-40" y="671" on="1"/>
        <pt x="499" y="671" on="1"/>
        <pt x="499" y="554" on="1"/>
        <pt x="461" y="554" on="1"/>
        <pt x="460" y="553" on="0"/>
        <pt x="455" y="543" on="0"/>
        <pt x="451" y="522" on="0"/>
        <pt x="451" y="507" on="1"/>
        <pt x="451" y="470" on="1"/>
        <pt x="451" y="451" on="0"/>
        <pt x="467" y="431" on="0"/>
        <pt x="490" y="431" on="1"/>
        <pt x="534" y="431" on="1"/>
        <pt x="534" y="302" on="1"/>
        <pt x="484" y="302" on="1"/>
        <pt x="461" y="302" on="0"/>
        <pt x="445" y="282" on="0"/>
        <pt x="445" y="263" on="1"/>
        <pt x="445" y="235" on="1"/>
        <pt x="445" y="205" on="0"/>
        <pt x="483" y="182" on="0"/>
        <pt x="525" y="182" on="1"/>
        <pt x="572" y="182" on="0"/>
        <pt x="614" y="193" on="1"/>
        <pt x="614" y="211" on="1"/>
        <pt x="614" y="346" on="1"/>
        <pt x="614" y="426" on="0"/>
        <pt x="691" y="506" on="0"/>
        <pt x="778" y="506" on="1"/>
        <pt x="809" y="506" on="0"/>
        <pt x="844" y="499" on="1"/>
        <pt x="844" y="554" on="1"/>
        <pt x="601" y="554" on="1"/>
        <pt x="601" y="671" on="1"/>
      </contour>
      <contour>
        <pt x="851" y="383" on="1"/>
        <pt x="826" y="388" on="0"/>
        <pt x="803" y="388" on="1"/>
        <pt x="750" y="388" on="0"/>
        <pt x="750" y="345" on="1"/>
        <pt x="750" y="214" on="1"/>
        <pt x="750" y="170" on="0"/>
        <pt x="804" y="170" on="1"/>
        <pt x="832" y="170" on="0"/>
        <pt x="851" y="177" on="1"/>
      </contour>
      <contour>
        <pt x="273" y="168" on="0"/>
        <pt x="289" y="186" on="1"/>
        <pt x="162" y="293" on="1"/>
        <pt x="162" y="237" on="1"/>
        <pt x="162" y="201" on="0"/>
        <pt x="194" y="168" on="0"/>
        <pt x="233" y="168" on="1"/>
      </contour>
    </TTGlyph>
    <TTGlyph name="dvB_JA" xMin="-40" yMin="0" xMax="961" yMax="671">
      <contour>
        <pt x="961" y="554" on="1"/>
        <pt x="889" y="554" on="1"/>
        <pt x="889" y="0" on="1"/>
        <pt x="749" y="0" on="1"/>
        <pt x="749" y="371" on="1"/>
        <pt x="668" y="371" on="1"/>
        <pt x="669" y="370" on="0"/>
        <pt x="673" y="359" on="0"/>
        <pt x="677" y="337" on="0"/>
        <pt x="677" y="324" on="1"/>
        <pt x="677" y="222" on="1"/>
        <pt x="677" y="135" on="0"/>
        <pt x="574" y="48" on="0"/>
        <pt x="478" y="48" on="1"/>
        <pt x="404" y="48" on="0"/>
        <pt x="337" y="71" on="1"/>
        <pt x="295" y="53" on="0"/>
        <pt x="232" y="53" on="1"/>
        <pt x="127" y="53" on="0"/>
        <pt x="30" y="143" on="0"/>
        <pt x="30" y="231" on="1"/>
        <pt x="30" y="328" on="1"/>
        <pt x="30" y="418" on="0"/>
        <pt x="122" y="506" on="0"/>
        <pt x="232" y="506" on="1"/>
        <pt x="331" y="506" on="0"/>
        <pt x="428" y="417" on="0"/>
        <pt x="428" y="328" on="1"/>
        <pt x="428" y="231" on="1"/>
        <pt x="428" y="202" on="0"/>
        <pt x="424" y="182" on="1"/>
        <pt x="450" y="175" on="0"/>
        <pt x="472" y="175" on="1"/>
        <pt x="537" y="175" on="0"/>
        <pt x="537" y="227" on="1"/>
        <pt x="537" y="315" on="1"/>
        <pt x="537" y="330" on="0"/>
        <pt x="532" y="351" on="0"/>
        <pt x="527" y="361" on="0"/>
        <pt x="526" y="362" on="1"/>
        <pt x="482" y="362" on="1"/>
        <pt x="482" y="491" on="1"/>
        <pt x="749" y="491" on="1"/>
        <pt x="749" y="554" on="1"/>
        <pt x="-40" y="554" on="1"/>
        <pt x="-40" y="671" on="1"/>
        <pt x="961" y="671" on="1"/>
      </contour>
      <contour>
        <pt x="305" y="322" on="1"/>
        <pt x="305" y="358" on="0"/>
        <pt x="273" y="391" on="0"/>
        <pt x="234" y="391" on="1"/>
        <pt x="193" y="391" on="0"/>
        <pt x="177" y="372" on="1"/>
        <pt x="305" y="265" on="1"/>
      </contour>
      <contour>
        <pt x="274" y="168" on="0"/>
        <pt x="290" y="186" on="1"/>
        <pt x="163" y="293" on="1"/>
        <pt x="163" y="237" on="1"/>
        <pt x="163" y="201" on="0"/>
        <pt x="195" y="168" on="0"/>
        <pt x="234" y="168" on="1"/>
      </contour>
    </TTGlyph>
    <TTGlyph name="dvB_JHA" xMin="-40" yMin="-81" xMax="1100" yMax="671">
      <contour>
        <pt x="1100" y="554" on="1"/>
        <pt x="1018" y="554" on="1"/>
        <pt x="1018" y="0" on="1"/>
        <pt x="878" y="0" on="1"/>
        <pt x="878" y="220" on="1"/>
        <pt x="799" y="220" on="1"/>
        <pt x="805" y="211" on="0"/>
        <pt x="813" y="183" on="0"/>
        <pt x="813" y="169" on="1"/>
        <pt x="813" y="144" on="1"/>
        <pt x="813" y="62" on="0"/>
        <pt x="734" y="-5" on="0"/>
        <pt x="658" y="-5" on="1"/>
        <pt x="635" y="-5" on="0"/>
        <pt x="594" y="0" on="0"/>
        <pt x="588" y="1" on="1"/>
        <pt x="588" y="-81" on="1"/>
        <pt x="450" y="-81" on="1"/>
        <pt x="450" y="169" on="1"/>
        <pt x="588" y="169" on="1"/>
        <pt x="588" y="120" on="1"/>
        <pt x="592" y="119" on="0"/>
        <pt x="618" y="116" on="0"/>
        <pt x="632" y="116" on="1"/>
        <pt x="657" y="116" on="0"/>
        <pt x="676" y="135" on="0"/>
        <pt x="676" y="155" on="1"/>
        <pt x="676" y="170" on="1"/>
        <pt x="676" y="191" on="0"/>
        <pt x="657" y="211" on="0"/>
        <pt x="632" y="211" on="1"/>
        <pt x="415" y="211" on="1"/>
        <pt x="415" y="198" on="1"/>
        <pt x="415" y="124" on="0"/>
        <pt x="331" y="33" on="0"/>
        <pt x="232" y="33" on="1"/>
        <pt x="127" y="33" on="0"/>
        <pt x="30" y="123" on="0"/>
        <pt x="30" y="211" on="1"/>
        <pt x="30" y="308" on="1"/>
        <pt x="30" y="397" on="0"/>
        <pt x="118" y="486" on="0"/>
        <pt x="222" y="486" on="1"/>
        <pt x="239" y="486" on="0"/>
        <pt x="266" y="483" on="0"/>
        <pt x="270" y="482" on="1"/>
        <pt x="270" y="367" on="1"/>
        <pt x="267" y="368" on="0"/>
        <pt x="246" y="371" on="0"/>
        <pt x="234" y="371" on="1"/>
        <pt x="193" y="371" on="0"/>
        <pt x="177" y="352" on="1"/>
        <pt x="305" y="245" on="1"/>
        <pt x="305" y="328" on="1"/>
        <pt x="412" y="328" on="1"/>
        <pt x="411" y="336" on="0"/>
        <pt x="411" y="352" on="1"/>
        <pt x="411" y="362" on="1"/>
        <pt x="411" y="438" on="0"/>
        <pt x="493" y="504" on="0"/>
        <pt x="580" y="504" on="1"/>
        <pt x="660" y="504" on="1"/>
        <pt x="660" y="554" on="1"/>
        <pt x="-40" y="554" on="1"/>
        <pt x="-40" y="671" on="1"/>
        <pt x="1100" y="671" on="1"/>
      </contour>
      <contour>
        <pt x="878" y="554" on="1"/>
        <pt x="800" y="554" on="1"/>
        <pt x="800" y="384" on="1"/>
        <pt x="580" y="384" on="1"/>
        <pt x="564" y="384" on="0"/>
        <pt x="551" y="372" on="0"/>
        <pt x="551" y="358" on="1"/>
        <pt x="551" y="356" on="1"/>
        <pt x="551" y="341" on="0"/>
        <pt x="563" y="328" on="0"/>
        <pt x="580" y="328" on="1"/>
        <pt x="878" y="328" on="1"/>
      </contour>
      <contour>
        <pt x="274" y="148" on="0"/>
        <pt x="290" y="166" on="1"/>
        <pt x="163" y="273" on="1"/>
        <pt x="163" y="217" on="1"/>
        <pt x="163" y="181" on="0"/>
        <pt x="195" y="148" on="0"/>
        <pt x="234" y="148" on="1"/>
      </contour>
    </TTGlyph>
    <TTGlyph name="dvB_J_YA" xMin="-40" yMin="0" xMax="1294" yMax="671">
      <contour>
        <pt x="297" y="554" on="1"/>
        <pt x="-40" y="554" on="1"/>
        <pt x="-40" y="671" on="1"/>
        <pt x="297" y="671" on="1"/>
      </contour>
      <contour>
        <pt x="1294" y="554" on="1"/>
        <pt x="1212" y="554" on="1"/>
        <pt x="1212" y="0" on="1"/>
        <pt x="1072" y="0" on="1"/>
        <pt x="1072" y="95" on="1"/>
        <pt x="1041" y="86" on="0"/>
        <pt x="989" y="86" on="1"/>
        <pt x="883" y="86" on="0"/>
        <pt x="757" y="183" on="0"/>
        <pt x="757" y="270" on="1"/>
        <pt x="757" y="328" on="1"/>
        <pt x="757" y="353" on="0"/>
        <pt x="720" y="371" on="0"/>
        <pt x="673" y="371" on="1"/>
        <pt x="668" y="371" on="1"/>
        <pt x="669" y="370" on="0"/>
        <pt x="673" y="359" on="0"/>
        <pt x="677" y="337" on="0"/>
        <pt x="677" y="324" on="1"/>
        <pt x="677" y="222" on="1"/>
        <pt x="677" y="135" on="0"/>
        <pt x="574" y="48" on="0"/>
        <pt x="478" y="48" on="1"/>
        <pt x="404" y="48" on="0"/>
        <pt x="337" y="71" on="1"/>
        <pt x="409" y="101" on="0"/>
        <pt x="424" y="182" on="1"/>
        <pt x="450" y="175" on="0"/>
        <pt x="472" y="175" on="1"/>
        <pt x="537" y="175" on="0"/>
        <pt x="537" y="227" on="1"/>
        <pt x="537" y="315" on="1"/>
        <pt x="537" y="330" on="0"/>
        <pt x="532" y="351" on="0"/>
        <pt x="527" y="361" on="0"/>
        <pt x="526" y="362" on="1"/>
        <pt x="482" y="362" on="1"/>
        <pt x="482" y="491" on="1"/>
        <pt x="701" y="491" on="1"/>
        <pt x="833" y="491" on="0"/>
        <pt x="863" y="422" on="1"/>
        <pt x="870" y="435" on="0"/>
        <pt x="870" y="459" on="1"/>
        <pt x="870" y="507" on="1"/>
        <pt x="870" y="522" on="0"/>
        <pt x="867" y="543" on="0"/>
        <pt x="864" y="553" on="0"/>
        <pt x="863" y="554" on="1"/>
        <pt x="448" y="554" on="1"/>
        <pt x="448" y="671" on="1"/>
        <pt x="1294" y="671" on="1"/>
      </contour>
      <contour>
        <pt x="1072" y="554" on="1"/>
        <pt x="1000" y="554" on="1"/>
        <pt x="1001" y="550" on="0"/>
        <pt x="1006" y="524" on="0"/>
        <pt x="1006" y="507" on="1"/>
        <pt x="1006" y="430" on="1"/>
        <pt x="1006" y="372" on="0"/>
        <pt x="951" y="311" on="0"/>
        <pt x="894" y="308" on="1"/>
        <pt x="894" y="290" on="1"/>
        <pt x="894" y="216" on="0"/>
        <pt x="997" y="216" on="1"/>
        <pt x="1041" y="216" on="0"/>
        <pt x="1072" y="224" on="1"/>
      </contour>
      <contour>
        <pt x="328" y="74" on="1"/>
        <pt x="337" y="71" on="1"/>
        <pt x="295" y="53" on="0"/>
        <pt x="232" y="53" on="1"/>
        <pt x="127" y="53" on="0"/>
        <pt x="30" y="143" on="0"/>
        <pt x="30" y="231" on="1"/>
        <pt x="30" y="328" on="1"/>
        <pt x="30" y="418" on="0"/>
        <pt x="122" y="506" on="0"/>
        <pt x="232" y="506" on="1"/>
        <pt x="331" y="506" on="0"/>
        <pt x="428" y="417" on="0"/>
        <pt x="428" y="328" on="1"/>
        <pt x="428" y="231" on="1"/>
        <pt x="428" y="202" on="0"/>
        <pt x="424" y="182" on="1"/>
        <pt x="391" y="192" on="1"/>
      </contour>
      <contour>
        <pt x="305" y="322" on="1"/>
        <pt x="305" y="358" on="0"/>
        <pt x="273" y="391" on="0"/>
        <pt x="234" y="391" on="1"/>
        <pt x="193" y="391" on="0"/>
        <pt x="177" y="372" on="1"/>
        <pt x="305" y="265" on="1"/>
      </contour>
      <contour>
        <pt x="274" y="168" on="0"/>
        <pt x="290" y="186" on="1"/>
        <pt x="163" y="293" on="1"/>
        <pt x="163" y="237" on="1"/>
        <pt x="163" y="201" on="0"/>
        <pt x="195" y="168" on="0"/>
        <pt x="234" y="168" on="1"/>
      </contour>
    </TTGlyph>
    <TTGlyph name="dvB_JxA" xMin="-40" yMin="-127" xMax="971" yMax="671">
      <contour>
        <pt x="971" y="554" on="1"/>
        <pt x="889" y="554" on="1"/>
        <pt x="889" y="0" on="1"/>
        <pt x="749" y="0" on="1"/>
        <pt x="749" y="371" on="1"/>
        <pt x="668" y="371" on="1"/>
        <pt x="669" y="370" on="0"/>
        <pt x="673" y="359" on="0"/>
        <pt x="677" y="337" on="0"/>
        <pt x="677" y="324" on="1"/>
        <pt x="677" y="222" on="1"/>
        <pt x="677" y="135" on="0"/>
        <pt x="574" y="48" on="0"/>
        <pt x="478" y="48" on="1"/>
        <pt x="404" y="48" on="0"/>
        <pt x="337" y="71" on="1"/>
        <pt x="295" y="53" on="0"/>
        <pt x="232" y="53" on="1"/>
        <pt x="127" y="53" on="0"/>
        <pt x="30" y="143" on="0"/>
        <pt x="30" y="231" on="1"/>
        <pt x="30" y="328" on="1"/>
        <pt x="30" y="418" on="0"/>
        <pt x="122" y="506" on="0"/>
        <pt x="232" y="506" on="1"/>
        <pt x="331" y="506" on="0"/>
        <pt x="428" y="417" on="0"/>
        <pt x="428" y="328" on="1"/>
        <pt x="428" y="231" on="1"/>
        <pt x="428" y="202" on="0"/>
        <pt x="424" y="182" on="1"/>
        <pt x="450" y="175" on="0"/>
        <pt x="472" y="175" on="1"/>
        <pt x="537" y="175" on="0"/>
        <pt x="537" y="227" on="1"/>
        <pt x="537" y="315" on="1"/>
        <pt x="537" y="330" on="0"/>
        <pt x="532" y="351" on="0"/>
        <pt x="527" y="361" on="0"/>
        <pt x="526" y="362" on="1"/>
        <pt x="482" y="362" on="1"/>
        <pt x="482" y="491" on="1"/>
        <pt x="749" y="491" on="1"/>
        <pt x="749" y="554" on="1"/>
        <pt x="-40" y="554" on="1"/>
        <pt x="-40" y="671" on="1"/>
        <pt x="971" y="671" on="1"/>
      </contour>
      <contour>
        <pt x="305" y="322" on="1"/>
        <pt x="305" y="358" on="0"/>
        <pt x="273" y="391" on="0"/>
        <pt x="234" y="391" on="1"/>
        <pt x="193" y="391" on="0"/>
        <pt x="177" y="372" on="1"/>
        <pt x="305" y="265" on="1"/>
      </contour>
      <contour>
        <pt x="274" y="168" on="0"/>
        <pt x="290" y="186" on="1"/>
        <pt x="163" y="293" on="1"/>
        <pt x="163" y="237" on="1"/>
        <pt x="163" y="201" on="0"/>
        <pt x="195" y="168" on="0"/>
        <pt x="234" y="168" on="1"/>
      </contour>
      <contour>
        <pt x="386" y="23" on="0"/>
        <pt x="419" y="-17" on="0"/>
        <pt x="419" y="-52" on="1"/>
        <pt x="419" y="-127" on="0"/>
        <pt x="344" y="-127" on="1"/>
        <pt x="303" y="-127" on="0"/>
        <pt x="269" y="-87" on="0"/>
        <pt x="269" y="-52" on="1"/>
        <pt x="269" y="23" on="0"/>
        <pt x="345" y="23" on="1"/>
      </contour>
    </TTGlyph>
    <TTGlyph name="dvB_LA" xMin="-40" yMin="0" xMax="973" yMax="671">
      <contour>
        <pt x="973" y="554" on="1"/>
        <pt x="891" y="554" on="1"/>
        <pt x="891" y="0" on="1"/>
        <pt x="751" y="0" on="1"/>
        <pt x="751" y="360" on="1"/>
        <pt x="748" y="361" on="0"/>
        <pt x="729" y="365" on="0"/>
        <pt x="716" y="365" on="1"/>
        <pt x="673" y="365" on="0"/>
        <pt x="673" y="326" on="1"/>
        <pt x="673" y="212" on="1"/>
        <pt x="533" y="212" on="1"/>
        <pt x="533" y="326" on="1"/>
        <pt x="533" y="345" on="0"/>
        <pt x="517" y="365" on="0"/>
        <pt x="494" y="365" on="1"/>
        <pt x="471" y="365" on="0"/>
        <pt x="455" y="345" on="0"/>
        <pt x="455" y="326" on="1"/>
        <pt x="455" y="188" on="1"/>
        <pt x="455" y="159" on="0"/>
        <pt x="484" y="129" on="0"/>
        <pt x="526" y="129" on="1"/>
        <pt x="558" y="129" on="0"/>
        <pt x="585" y="132" on="1"/>
        <pt x="585" y="4" on="1"/>
        <pt x="553" y="0" on="0"/>
        <pt x="518" y="0" on="1"/>
        <pt x="449" y="0" on="0"/>
        <pt x="362" y="36" on="0"/>
        <pt x="339" y="74" on="1"/>
        <pt x="300" y="53" on="0"/>
        <pt x="237" y="53" on="1"/>
        <pt x="129" y="53" on="0"/>
        <pt x="30" y="143" on="0"/>
        <pt x="30" y="231" on="1"/>
        <pt x="30" y="328" on="1"/>
        <pt x="30" y="417" on="0"/>
        <pt x="118" y="506" on="0"/>
        <pt x="222" y="506" on="1"/>
        <pt x="237" y="506" on="0"/>
        <pt x="257" y="504" on="0"/>
        <pt x="260" y="504" on="1"/>
        <pt x="260" y="389" on="1"/>
        <pt x="258" y="389" on="0"/>
        <pt x="244" y="391" on="0"/>
        <pt x="234" y="391" on="1"/>
        <pt x="193" y="391" on="0"/>
        <pt x="177" y="372" on="1"/>
        <pt x="315" y="257" on="1"/>
        <pt x="315" y="331" on="1"/>
        <pt x="315" y="409" on="0"/>
        <pt x="405" y="494" on="0"/>
        <pt x="489" y="494" on="1"/>
        <pt x="534" y="494" on="0"/>
        <pt x="589" y="461" on="0"/>
        <pt x="600" y="439" on="1"/>
        <pt x="617" y="465" on="0"/>
        <pt x="663" y="493" on="0"/>
        <pt x="703" y="493" on="1"/>
        <pt x="720" y="493" on="0"/>
        <pt x="747" y="489" on="0"/>
        <pt x="751" y="488" on="1"/>
        <pt x="751" y="554" on="1"/>
        <pt x="-40" y="554" on="1"/>
        <pt x="-40" y="671" on="1"/>
        <pt x="973" y="671" on="1"/>
      </contour>
      <contour>
        <pt x="163" y="201" on="0"/>
        <pt x="197" y="168" on="0"/>
        <pt x="239" y="168" on="1"/>
        <pt x="276" y="168" on="0"/>
        <pt x="295" y="182" on="1"/>
        <pt x="163" y="293" on="1"/>
        <pt x="163" y="237" on="1"/>
      </contour>
    </TTGlyph>
    <TTGlyph name="dvB_L_YA" xMin="-40" yMin="0" xMax="1268" yMax="671">
      <contour>
        <pt x="1268" y="554" on="1"/>
        <pt x="1186" y="554" on="1"/>
        <pt x="1186" y="0" on="1"/>
        <pt x="1046" y="0" on="1"/>
        <pt x="1046" y="95" on="1"/>
        <pt x="1015" y="86" on="0"/>
        <pt x="963" y="86" on="1"/>
        <pt x="857" y="86" on="0"/>
        <pt x="731" y="183" on="0"/>
        <pt x="731" y="270" on="1"/>
        <pt x="731" y="326" on="1"/>
        <pt x="731" y="345" on="0"/>
        <pt x="715" y="365" on="0"/>
        <pt x="692" y="365" on="1"/>
        <pt x="670" y="365" on="0"/>
        <pt x="653" y="345" on="0"/>
        <pt x="653" y="326" on="1"/>
        <pt x="653" y="212" on="1"/>
        <pt x="513" y="212" on="1"/>
        <pt x="513" y="326" on="1"/>
        <pt x="513" y="345" on="0"/>
        <pt x="497" y="365" on="0"/>
        <pt x="474" y="365" on="1"/>
        <pt x="451" y="365" on="0"/>
        <pt x="435" y="345" on="0"/>
        <pt x="435" y="326" on="1"/>
        <pt x="435" y="188" on="1"/>
        <pt x="435" y="159" on="0"/>
        <pt x="464" y="129" on="0"/>
        <pt x="506" y="129" on="1"/>
        <pt x="538" y="129" on="0"/>
        <pt x="565" y="132" on="1"/>
        <pt x="565" y="4" on="1"/>
        <pt x="533" y="0" on="0"/>
        <pt x="498" y="0" on="1"/>
        <pt x="430" y="0" on="0"/>
        <pt x="347" y="36" on="0"/>
        <pt x="326" y="73" on="1"/>
        <pt x="288" y="53" on="0"/>
        <pt x="231" y="53" on="1"/>
        <pt x="126" y="53" on="0"/>
        <pt x="29" y="143" on="0"/>
        <pt x="29" y="231" on="1"/>
        <pt x="29" y="328" on="1"/>
        <pt x="29" y="417" on="0"/>
        <pt x="117" y="506" on="0"/>
        <pt x="221" y="506" on="1"/>
        <pt x="236" y="506" on="0"/>
        <pt x="256" y="504" on="0"/>
        <pt x="259" y="504" on="1"/>
        <pt x="259" y="389" on="1"/>
        <pt x="257" y="389" on="0"/>
        <pt x="243" y="391" on="0"/>
        <pt x="233" y="391" on="1"/>
        <pt x="192" y="391" on="0"/>
        <pt x="176" y="372" on="1"/>
        <pt x="304" y="265" on="1"/>
        <pt x="304" y="331" on="1"/>
        <pt x="304" y="410" on="0"/>
        <pt x="386" y="494" on="0"/>
        <pt x="469" y="494" on="1"/>
        <pt x="514" y="494" on="0"/>
        <pt x="569" y="461" on="0"/>
        <pt x="580" y="439" on="1"/>
        <pt x="597" y="464" on="0"/>
        <pt x="648" y="493" on="0"/>
        <pt x="688" y="493" on="1"/>
        <pt x="794" y="493" on="0"/>
        <pt x="832" y="415" on="1"/>
        <pt x="844" y="428" on="0"/>
        <pt x="844" y="459" on="1"/>
        <pt x="844" y="507" on="1"/>
        <pt x="844" y="522" on="0"/>
        <pt x="841" y="543" on="0"/>
        <pt x="838" y="553" on="0"/>
        <pt x="837" y="554" on="1"/>
        <pt x="-40" y="554" on="1"/>
        <pt x="-40" y="671" on="1"/>
        <pt x="1268" y="671" on="1"/>
      </contour>
      <contour>
        <pt x="1046" y="554" on="1"/>
        <pt x="974" y="554" on="1"/>
        <pt x="975" y="550" on="0"/>
        <pt x="980" y="524" on="0"/>
        <pt x="980" y="507" on="1"/>
        <pt x="980" y="430" on="1"/>
        <pt x="980" y="372" on="0"/>
        <pt x="925" y="311" on="0"/>
        <pt x="868" y="308" on="1"/>
        <pt x="868" y="290" on="1"/>
        <pt x="868" y="216" on="0"/>
        <pt x="971" y="216" on="1"/>
        <pt x="1015" y="216" on="0"/>
        <pt x="1046" y="224" on="1"/>
      </contour>
      <contour>
        <pt x="273" y="168" on="0"/>
        <pt x="289" y="186" on="1"/>
        <pt x="162" y="293" on="1"/>
        <pt x="162" y="237" on="1"/>
        <pt x="162" y="201" on="0"/>
        <pt x="194" y="168" on="0"/>
        <pt x="233" y="168" on="1"/>
      </contour>
    </TTGlyph>
    <TTGlyph name="dvB_NA" xMin="-40" yMin="0" xMax="903" yMax="671">
      <contour>
        <pt x="903" y="554" on="1"/>
        <pt x="821" y="554" on="1"/>
        <pt x="821" y="0" on="1"/>
        <pt x="681" y="0" on="1"/>
        <pt x="681" y="362" on="1"/>
        <pt x="615" y="362" on="1"/>
        <pt x="617" y="353" on="0"/>
        <pt x="621" y="320" on="0"/>
        <pt x="621" y="306" on="1"/>
        <pt x="621" y="215" on="1"/>
        <pt x="621" y="134" on="0"/>
        <pt x="543" y="52" on="0"/>
        <pt x="454" y="52" on="1"/>
        <pt x="377" y="52" on="0"/>
        <pt x="337" y="83" on="1"/>
        <pt x="294" y="53" on="0"/>
        <pt x="222" y="53" on="1"/>
        <pt x="118" y="53" on="0"/>
        <pt x="30" y="142" on="0"/>
        <pt x="30" y="231" on="1"/>
        <pt x="30" y="313" on="1"/>
        <pt x="30" y="402" on="0"/>
        <pt x="118" y="491" on="0"/>
        <pt x="222" y="491" on="1"/>
        <pt x="297" y="491" on="0"/>
        <pt x="337" y="460" on="1"/>
        <pt x="379" y="491" on="0"/>
        <pt x="454" y="491" on="1"/>
        <pt x="681" y="491" on="1"/>
        <pt x="681" y="554" on="1"/>
        <pt x="-40" y="554" on="1"/>
        <pt x="-40" y="671" on="1"/>
        <pt x="903" y="671" on="1"/>
      </contour>
      <contour>
        <pt x="190" y="376" on="0"/>
        <pt x="175" y="359" on="1"/>
        <pt x="285" y="271" on="1"/>
        <pt x="285" y="307" on="1"/>
        <pt x="285" y="345" on="0"/>
        <pt x="261" y="376" on="0"/>
        <pt x="224" y="376" on="1"/>
      </contour>
      <contour>
        <pt x="490" y="301" on="1"/>
        <pt x="490" y="345" on="0"/>
        <pt x="483" y="362" on="1"/>
        <pt x="454" y="362" on="1"/>
        <pt x="432" y="362" on="0"/>
        <pt x="418" y="343" on="0"/>
        <pt x="418" y="323" on="1"/>
        <pt x="418" y="216" on="1"/>
        <pt x="418" y="196" on="0"/>
        <pt x="432" y="177" on="0"/>
        <pt x="454" y="177" on="1"/>
        <pt x="476" y="177" on="0"/>
        <pt x="490" y="196" on="0"/>
        <pt x="490" y="216" on="1"/>
      </contour>
      <contour>
        <pt x="263" y="168" on="0"/>
        <pt x="275" y="190" on="1"/>
        <pt x="163" y="280" on="1"/>
        <pt x="163" y="237" on="1"/>
        <pt x="163" y="201" on="0"/>
        <pt x="189" y="168" on="0"/>
        <pt x="224" y="168" on="1"/>
      </contour>
    </TTGlyph>
    <TTGlyph name="dvB_R" xMin="-40" yMin="-86" xMax="451" yMax="671">
      <contour>
        <pt x="451" y="671" on="1"/>
        <pt x="451" y="554" on="1"/>
        <pt x="-40" y="554" on="1"/>
        <pt x="-40" y="671" on="1"/>
      </contour>
      <contour>
        <pt x="331" y="506" on="0"/>
        <pt x="428" y="417" on="0"/>
        <pt x="428" y="328" on="1"/>
        <pt x="428" y="251" on="1"/>
        <pt x="428" y="214" on="0"/>
        <pt x="405" y="156" on="0"/>
        <pt x="368" y="110" on="0"/>
        <pt x="332" y="72" on="1"/>
        <pt x="316" y="56" on="0"/>
        <pt x="316" y="56" on="1"/>
        <pt x="179" y="-86" on="1"/>
        <pt x="10" y="-86" on="1"/>
        <pt x="168" y="79" on="1"/>
        <pt x="98" y="93" on="0"/>
        <pt x="30" y="177" on="0"/>
        <pt x="30" y="251" on="1"/>
        <pt x="30" y="328" on="1"/>
        <pt x="30" y="418" on="0"/>
        <pt x="122" y="506" on="0"/>
        <pt x="232" y="506" on="1"/>
      </contour>
      <contour>
        <pt x="195" y="391" on="0"/>
        <pt x="178" y="373" on="1"/>
        <pt x="305" y="279" on="1"/>
        <pt x="305" y="322" on="1"/>
        <pt x="305" y="358" on="0"/>
        <pt x="273" y="391" on="0"/>
        <pt x="234" y="391" on="1"/>
      </contour>
      <contour>
        <pt x="272" y="188" on="0"/>
        <pt x="289" y="205" on="1"/>
        <pt x="163" y="298" on="1"/>
        <pt x="163" y="257" on="1"/>
        <pt x="163" y="221" on="0"/>
        <pt x="195" y="188" on="0"/>
        <pt x="234" y="188" on="1"/>
      </contour>
    </TTGlyph>
    <TTGlyph name="dvB_RA" xMin="-40" yMin="-37" xMax="511" yMax="671">
      <contour>
        <pt x="511" y="671" on="1"/>
        <pt x="511" y="554" on="1"/>
        <pt x="429" y="554" on="1"/>
        <pt x="429" y="0" on="1"/>
        <pt x="296" y="0" on="1"/>
        <pt x="296" y="93" on="1"/>
        <pt x="190" y="-37" on="1"/>
        <pt x="37" y="-37" on="1"/>
        <pt x="140" y="90" on="1"/>
        <pt x="84" y="98" on="0"/>
        <pt x="31" y="160" on="0"/>
        <pt x="31" y="229" on="1"/>
        <pt x="31" y="338" on="1"/>
        <pt x="31" y="431" on="0"/>
        <pt x="122" y="506" on="0"/>
        <pt x="218" y="506" on="1"/>
        <pt x="263" y="506" on="0"/>
        <pt x="296" y="495" on="1"/>
        <pt x="296" y="554" on="1"/>
        <pt x="-40" y="554" on="1"/>
        <pt x="-40" y="671" on="1"/>
      </contour>
      <contour>
        <pt x="200" y="391" on="0"/>
        <pt x="182" y="378" on="1"/>
        <pt x="296" y="265" on="1"/>
        <pt x="296" y="380" on="1"/>
        <pt x="265" y="391" on="0"/>
        <pt x="234" y="391" on="1"/>
      </contour>
      <contour>
        <pt x="261" y="176" on="0"/>
        <pt x="283" y="179" on="1"/>
        <pt x="164" y="297" on="1"/>
        <pt x="164" y="235" on="1"/>
        <pt x="164" y="206" on="0"/>
        <pt x="196" y="176" on="0"/>
        <pt x="234" y="176" on="1"/>
      </contour>
    </TTGlyph>
    <TTGlyph name="dvB_SA" xMin="-40" yMin="-5" xMax="951" yMax="671">
      <contour>
        <pt x="951" y="554" on="1"/>
        <pt x="869" y="554" on="1"/>
        <pt x="869" y="0" on="1"/>
        <pt x="729" y="0" on="1"/>
        <pt x="729" y="261" on="1"/>
        <pt x="614" y="261" on="1"/>
        <pt x="577" y="222" on="0"/>
        <pt x="496" y="222" on="1"/>
        <pt x="468" y="222" on="0"/>
        <pt x="445" y="227" on="1"/>
        <pt x="445" y="179" on="1"/>
        <pt x="445" y="149" on="0"/>
        <pt x="490" y="121" on="0"/>
        <pt x="537" y="121" on="1"/>
        <pt x="571" y="121" on="0"/>
        <pt x="628" y="134" on="0"/>
        <pt x="658" y="147" on="1"/>
        <pt x="658" y="17" on="1"/>
        <pt x="595" y="-5" on="0"/>
        <pt x="514" y="-5" on="1"/>
        <pt x="385" y="-5" on="0"/>
        <pt x="334" y="72" on="1"/>
        <pt x="293" y="53" on="0"/>
        <pt x="237" y="53" on="1"/>
        <pt x="129" y="53" on="0"/>
        <pt x="30" y="143" on="0"/>
        <pt x="30" y="231" on="1"/>
        <pt x="30" y="328" on="1"/>
        <pt x="30" y="417" on="0"/>
        <pt x="118" y="506" on="0"/>
        <pt x="222" y="506" on="1"/>
        <pt x="237" y="506" on="0"/>
        <pt x="257" y="504" on="0"/>
        <pt x="260" y="504" on="1"/>
        <pt x="260" y="389" on="1"/>
        <pt x="258" y="389" on="0"/>
        <pt x="244" y="391" on="0"/>
        <pt x="234" y="391" on="1"/>
        <pt x="193" y="391" on="0"/>
        <pt x="177" y="372" on="1"/>
        <pt x="305" y="265" on="1"/>
        <pt x="305" y="451" on="1"/>
        <pt x="445" y="451" on="1"/>
        <pt x="445" y="349" on="1"/>
        <pt x="461" y="345" on="0"/>
        <pt x="475" y="345" on="1"/>
        <pt x="498" y="345" on="0"/>
        <pt x="514" y="365" on="0"/>
        <pt x="514" y="384" on="1"/>
        <pt x="514" y="507" on="1"/>
        <pt x="514" y="522" on="0"/>
        <pt x="510" y="543" on="0"/>
        <pt x="505" y="553" on="0"/>
        <pt x="504" y="554" on="1"/>
        <pt x="-40" y="554" on="1"/>
        <pt x="-40" y="671" on="1"/>
        <pt x="951" y="671" on="1"/>
      </contour>
      <contour>
        <pt x="729" y="554" on="1"/>
        <pt x="645" y="554" on="1"/>
        <pt x="646" y="551" on="0"/>
        <pt x="651" y="526" on="0"/>
        <pt x="651" y="507" on="1"/>
        <pt x="651" y="382" on="1"/>
        <pt x="651" y="381" on="1"/>
        <pt x="729" y="381" on="1"/>
      </contour>
      <contour>
        <pt x="163" y="201" on="0"/>
        <pt x="197" y="168" on="0"/>
        <pt x="239" y="168" on="1"/>
        <pt x="276" y="168" on="0"/>
        <pt x="295" y="182" on="1"/>
        <pt x="163" y="293" on="1"/>
        <pt x="163" y="237" on="1"/>
      </contour>
    </TTGlyph>
    <TTGlyph name="dvB_SHA" xMin="-40" yMin="0" xMax="956" yMax="676">
      <contour>
        <pt x="584" y="676" on="0"/>
        <pt x="673" y="592" on="0"/>
        <pt x="673" y="513" on="1"/>
        <pt x="673" y="387" on="1"/>
        <pt x="673" y="309" on="0"/>
        <pt x="594" y="231" on="0"/>
        <pt x="510" y="231" on="1"/>
        <pt x="492" y="231" on="0"/>
        <pt x="459" y="237" on="0"/>
        <pt x="455" y="238" on="1"/>
        <pt x="455" y="196" on="1"/>
        <pt x="455" y="163" on="0"/>
        <pt x="492" y="128" on="0"/>
        <pt x="536" y="128" on="1"/>
        <pt x="574" y="128" on="0"/>
        <pt x="624" y="140" on="0"/>
        <pt x="657" y="154" on="1"/>
        <pt x="657" y="24" on="1"/>
        <pt x="594" y="2" on="0"/>
        <pt x="513" y="2" on="1"/>
        <pt x="395" y="2" on="0"/>
        <pt x="345" y="78" on="1"/>
        <pt x="303" y="53" on="0"/>
        <pt x="237" y="53" on="1"/>
        <pt x="129" y="53" on="0"/>
        <pt x="30" y="143" on="0"/>
        <pt x="30" y="231" on="1"/>
        <pt x="30" y="328" on="1"/>
        <pt x="30" y="417" on="0"/>
        <pt x="118" y="506" on="0"/>
        <pt x="222" y="506" on="1"/>
        <pt x="237" y="506" on="0"/>
        <pt x="257" y="504" on="0"/>
        <pt x="260" y="504" on="1"/>
        <pt x="260" y="389" on="1"/>
        <pt x="258" y="389" on="0"/>
        <pt x="244" y="391" on="0"/>
        <pt x="234" y="391" on="1"/>
        <pt x="193" y="391" on="0"/>
        <pt x="177" y="372" on="1"/>
        <pt x="315" y="257" on="1"/>
        <pt x="315" y="403" on="1"/>
        <pt x="455" y="403" on="1"/>
        <pt x="455" y="359" on="1"/>
        <pt x="458" y="358" on="0"/>
        <pt x="481" y="354" on="0"/>
        <pt x="494" y="354" on="1"/>
        <pt x="517" y="354" on="0"/>
        <pt x="533" y="373" on="0"/>
        <pt x="533" y="392" on="1"/>
        <pt x="533" y="508" on="1"/>
        <pt x="533" y="527" on="0"/>
        <pt x="517" y="547" on="0"/>
        <pt x="494" y="547" on="1"/>
        <pt x="471" y="547" on="0"/>
        <pt x="455" y="525" on="0"/>
        <pt x="455" y="505" on="1"/>
        <pt x="455" y="483" on="0"/>
        <pt x="459" y="467" on="1"/>
        <pt x="319" y="467" on="1"/>
        <pt x="315" y="495" on="0"/>
        <pt x="315" y="513" on="1"/>
        <pt x="315" y="592" on="0"/>
        <pt x="404" y="676" on="0"/>
        <pt x="494" y="676" on="1"/>
      </contour>
      <contour>
        <pt x="261" y="554" on="1"/>
        <pt x="-40" y="554" on="1"/>
        <pt x="-40" y="671" on="1"/>
        <pt x="261" y="671" on="1"/>
      </contour>
      <contour>
        <pt x="956" y="671" on="1"/>
        <pt x="956" y="554" on="1"/>
        <pt x="874" y="554" on="1"/>
        <pt x="874" y="0" on="1"/>
        <pt x="734" y="0" on="1"/>
        <pt x="734" y="671" on="1"/>
      </contour>
      <contour>
        <pt x="163" y="201" on="0"/>
        <pt x="197" y="168" on="0"/>
        <pt x="239" y="168" on="1"/>
        <pt x="276" y="168" on="0"/>
        <pt x="295" y="182" on="1"/>
        <pt x="163" y="293" on="1"/>
        <pt x="163" y="237" on="1"/>
      </contour>
    </TTGlyph>
    <TTGlyph name="dvB_TA" xMin="-40" yMin="-2" xMax="783" yMax="671">
      <contour>
        <pt x="783" y="554" on="1"/>
        <pt x="701" y="554" on="1"/>
        <pt x="701" y="0" on="1"/>
        <pt x="561" y="0" on="1"/>
        <pt x="561" y="362" on="1"/>
        <pt x="556" y="363" on="0"/>
        <pt x="525" y="367" on="0"/>
        <pt x="511" y="367" on="1"/>
        <pt x="455" y="367" on="0"/>
        <pt x="455" y="318" on="1"/>
        <pt x="455" y="168" on="1"/>
        <pt x="455" y="145" on="0"/>
        <pt x="477" y="130" on="0"/>
        <pt x="504" y="130" on="1"/>
        <pt x="504" y="-2" on="1"/>
        <pt x="474" y="-2" on="1"/>
        <pt x="412" y="-2" on="0"/>
        <pt x="343" y="33" on="0"/>
        <pt x="328" y="70" on="1"/>
        <pt x="291" y="53" on="0"/>
        <pt x="237" y="53" on="1"/>
        <pt x="129" y="53" on="0"/>
        <pt x="30" y="143" on="0"/>
        <pt x="30" y="231" on="1"/>
        <pt x="30" y="328" on="1"/>
        <pt x="30" y="417" on="0"/>
        <pt x="118" y="506" on="0"/>
        <pt x="222" y="506" on="1"/>
        <pt x="237" y="506" on="0"/>
        <pt x="257" y="504" on="0"/>
        <pt x="260" y="504" on="1"/>
        <pt x="260" y="389" on="1"/>
        <pt x="258" y="389" on="0"/>
        <pt x="244" y="391" on="0"/>
        <pt x="234" y="391" on="1"/>
        <pt x="193" y="391" on="0"/>
        <pt x="177" y="372" on="1"/>
        <pt x="315" y="257" on="1"/>
        <pt x="315" y="323" on="1"/>
        <pt x="315" y="404" on="0"/>
        <pt x="401" y="496" on="0"/>
        <pt x="490" y="496" on="1"/>
        <pt x="518" y="496" on="0"/>
        <pt x="556" y="491" on="0"/>
        <pt x="561" y="490" on="1"/>
        <pt x="561" y="554" on="1"/>
        <pt x="-40" y="554" on="1"/>
        <pt x="-40" y="671" on="1"/>
        <pt x="783" y="671" on="1"/>
      </contour>
      <contour>
        <pt x="163" y="201" on="0"/>
        <pt x="197" y="168" on="0"/>
        <pt x="239" y="168" on="1"/>
        <pt x="276" y="168" on="0"/>
        <pt x="295" y="182" on="1"/>
        <pt x="163" y="293" on="1"/>
        <pt x="163" y="237" on="1"/>
      </contour>
    </TTGlyph>
    <TTGlyph name="dvB_VA" xMin="-40" yMin="0" xMax="757" yMax="671">
      <contour>
        <pt x="757" y="554" on="1"/>
        <pt x="675" y="554" on="1"/>
        <pt x="675" y="0" on="1"/>
        <pt x="535" y="0" on="1"/>
        <pt x="535" y="59" on="1"/>
        <pt x="500" y="52" on="0"/>
        <pt x="469" y="52" on="1"/>
        <pt x="388" y="52" on="0"/>
        <pt x="349" y="85" on="1"/>
        <pt x="307" y="53" on="0"/>
        <pt x="237" y="53" on="1"/>
        <pt x="129" y="53" on="0"/>
        <pt x="30" y="143" on="0"/>
        <pt x="30" y="231" on="1"/>
        <pt x="30" y="328" on="1"/>
        <pt x="30" y="417" on="0"/>
        <pt x="118" y="506" on="0"/>
        <pt x="222" y="506" on="1"/>
        <pt x="237" y="506" on="0"/>
        <pt x="257" y="504" on="0"/>
        <pt x="260" y="504" on="1"/>
        <pt x="260" y="389" on="1"/>
        <pt x="258" y="389" on="0"/>
        <pt x="244" y="391" on="0"/>
        <pt x="234" y="391" on="1"/>
        <pt x="193" y="391" on="0"/>
        <pt x="177" y="372" on="1"/>
        <pt x="305" y="265" on="1"/>
        <pt x="305" y="346" on="1"/>
        <pt x="305" y="426" on="0"/>
        <pt x="382" y="506" on="0"/>
        <pt x="469" y="506" on="1"/>
        <pt x="500" y="506" on="0"/>
        <pt x="535" y="499" on="1"/>
        <pt x="535" y="554" on="1"/>
        <pt x="-40" y="554" on="1"/>
        <pt x="-40" y="671" on="1"/>
        <pt x="757" y="671" on="1"/>
      </contour>
      <contour>
        <pt x="542" y="383" on="1"/>
        <pt x="517" y="388" on="0"/>
        <pt x="494" y="388" on="1"/>
        <pt x="441" y="388" on="0"/>
        <pt x="441" y="345" on="1"/>
        <pt x="441" y="214" on="1"/>
        <pt x="441" y="170" on="0"/>
        <pt x="495" y="170" on="1"/>
        <pt x="523" y="170" on="0"/>
        <pt x="542" y="177" on="1"/>
      </contour>
      <contour>
        <pt x="275" y="168" on="0"/>
        <pt x="291" y="186" on="1"/>
        <pt x="163" y="293" on="1"/>
        <pt x="163" y="237" on="1"/>
        <pt x="163" y="201" on="0"/>
        <pt x="197" y="168" on="0"/>
        <pt x="239" y="168" on="1"/>
      </contour>
    </TTGlyph>
    <TTGlyph name="dvB_YA" xMin="-40" yMin="0" xMax="842" yMax="671">
      <contour>
        <pt x="842" y="554" on="1"/>
        <pt x="760" y="554" on="1"/>
        <pt x="760" y="0" on="1"/>
        <pt x="620" y="0" on="1"/>
        <pt x="620" y="95" on="1"/>
        <pt x="589" y="86" on="0"/>
        <pt x="537" y="86" on="1"/>
        <pt x="450" y="86" on="0"/>
        <pt x="390" y="120" on="1"/>
        <pt x="345" y="53" on="0"/>
        <pt x="237" y="53" on="1"/>
        <pt x="129" y="53" on="0"/>
        <pt x="30" y="143" on="0"/>
        <pt x="30" y="231" on="1"/>
        <pt x="30" y="328" on="1"/>
        <pt x="30" y="417" on="0"/>
        <pt x="118" y="506" on="0"/>
        <pt x="222" y="506" on="1"/>
        <pt x="237" y="506" on="0"/>
        <pt x="257" y="504" on="0"/>
        <pt x="260" y="504" on="1"/>
        <pt x="260" y="389" on="1"/>
        <pt x="258" y="389" on="0"/>
        <pt x="244" y="391" on="0"/>
        <pt x="234" y="391" on="1"/>
        <pt x="193" y="391" on="0"/>
        <pt x="177" y="372" on="1"/>
        <pt x="305" y="265" on="1"/>
        <pt x="305" y="270" on="1"/>
        <pt x="305" y="396" on="1"/>
        <pt x="329" y="396" on="1"/>
        <pt x="381" y="396" on="0"/>
        <pt x="418" y="422" on="0"/>
        <pt x="418" y="459" on="1"/>
        <pt x="418" y="507" on="1"/>
        <pt x="418" y="522" on="0"/>
        <pt x="415" y="543" on="0"/>
        <pt x="412" y="553" on="0"/>
        <pt x="411" y="554" on="1"/>
        <pt x="-40" y="554" on="1"/>
        <pt x="-40" y="671" on="1"/>
        <pt x="842" y="671" on="1"/>
      </contour>
      <contour>
        <pt x="620" y="554" on="1"/>
        <pt x="548" y="554" on="1"/>
        <pt x="549" y="550" on="0"/>
        <pt x="554" y="524" on="0"/>
        <pt x="554" y="507" on="1"/>
        <pt x="554" y="430" on="1"/>
        <pt x="554" y="372" on="0"/>
        <pt x="499" y="311" on="0"/>
        <pt x="442" y="308" on="1"/>
        <pt x="442" y="290" on="1"/>
        <pt x="442" y="216" on="0"/>
        <pt x="545" y="216" on="1"/>
        <pt x="589" y="216" on="0"/>
        <pt x="620" y="224" on="1"/>
      </contour>
      <contour>
        <pt x="163" y="201" on="0"/>
        <pt x="197" y="168" on="0"/>
        <pt x="239" y="168" on="1"/>
        <pt x="276" y="168" on="0"/>
        <pt x="295" y="182" on="1"/>
        <pt x="163" y="293" on="1"/>
        <pt x="163" y="237" on="1"/>
      </contour>
    </TTGlyph>
    <TTGlyph name="dvC" xMin="-40" yMin="53" xMax="321" yMax="671">
      <contour>
        <pt x="-40" y="554" on="1"/>
        <pt x="-40" y="671" on="1"/>
        <pt x="315" y="671" on="1"/>
        <pt x="315" y="554" on="1"/>
      </contour>
      <contour>
        <pt x="307" y="57" on="0"/>
        <pt x="259" y="53" on="0"/>
        <pt x="238" y="53" on="1"/>
        <pt x="151" y="53" on="0"/>
        <pt x="67" y="135" on="0"/>
        <pt x="67" y="219" on="1"/>
        <pt x="67" y="316" on="1"/>
        <pt x="67" y="335" on="0"/>
        <pt x="72" y="362" on="0"/>
        <pt x="73" y="365" on="1"/>
        <pt x="13" y="365" on="1"/>
        <pt x="13" y="491" on="1"/>
        <pt x="271" y="491" on="1"/>
        <pt x="271" y="371" on="1"/>
        <pt x="218" y="371" on="1"/>
        <pt x="217" y="370" on="0"/>
        <pt x="212" y="359" on="0"/>
        <pt x="207" y="334" on="0"/>
        <pt x="207" y="315" on="1"/>
        <pt x="207" y="224" on="1"/>
        <pt x="207" y="199" on="0"/>
        <pt x="238" y="176" on="0"/>
        <pt x="265" y="176" on="1"/>
        <pt x="279" y="176" on="0"/>
        <pt x="312" y="180" on="0"/>
        <pt x="321" y="183" on="1"/>
        <pt x="321" y="61" on="1"/>
      </contour>
    </TTGlyph>
    <TTGlyph name="dvCA" xMin="-40" yMin="0" xMax="528" yMax="671">
      <contour>
        <pt x="207" y="176" on="0"/>
        <pt x="261" y="176" on="1"/>
        <pt x="286" y="176" on="0"/>
        <pt x="307" y="183" on="1"/>
        <pt x="307" y="554" on="1"/>
        <pt x="-40" y="554" on="1"/>
        <pt x="-40" y="671" on="1"/>
        <pt x="528" y="671" on="1"/>
        <pt x="528" y="554" on="1"/>
        <pt x="447" y="554" on="1"/>
        <pt x="447" y="0" on="1"/>
        <pt x="307" y="0" on="1"/>
        <pt x="307" y="61" on="1"/>
        <pt x="275" y="53" on="0"/>
        <pt x="234" y="53" on="1"/>
        <pt x="148" y="53" on="0"/>
        <pt x="67" y="134" on="0"/>
        <pt x="67" y="219" on="1"/>
        <pt x="67" y="316" on="1"/>
        <pt x="67" y="335" on="0"/>
        <pt x="72" y="362" on="0"/>
        <pt x="73" y="365" on="1"/>
        <pt x="13" y="365" on="1"/>
        <pt x="13" y="491" on="1"/>
        <pt x="271" y="491" on="1"/>
        <pt x="271" y="371" on="1"/>
        <pt x="218" y="371" on="1"/>
        <pt x="217" y="370" on="0"/>
        <pt x="212" y="359" on="0"/>
        <pt x="207" y="334" on="0"/>
        <pt x="207" y="315" on="1"/>
        <pt x="207" y="224" on="1"/>
      </contour>
    </TTGlyph>
    <TTGlyph name="dvCH" xMin="-40" yMin="-3" xMax="595" yMax="671">
      <contour>
        <pt x="427" y="501" on="0"/>
        <pt x="520" y="426" on="0"/>
        <pt x="520" y="347" on="1"/>
        <pt x="520" y="175" on="1"/>
        <pt x="520" y="112" on="0"/>
        <pt x="476" y="34" on="0"/>
        <pt x="372" y="-3" on="0"/>
        <pt x="282" y="-3" on="1"/>
        <pt x="152" y="-3" on="0"/>
        <pt x="40" y="74" on="0"/>
        <pt x="40" y="160" on="1"/>
        <pt x="40" y="183" on="1"/>
        <pt x="40" y="247" on="0"/>
        <pt x="84" y="274" on="1"/>
        <pt x="45" y="300" on="0"/>
        <pt x="45" y="368" on="1"/>
        <pt x="45" y="498" on="1"/>
        <pt x="45" y="531" on="0"/>
        <pt x="61" y="554" on="1"/>
        <pt x="-40" y="554" on="1"/>
        <pt x="-40" y="671" on="1"/>
        <pt x="595" y="671" on="1"/>
        <pt x="595" y="554" on="1"/>
        <pt x="236" y="554" on="1"/>
        <pt x="203" y="554" on="0"/>
        <pt x="185" y="526" on="0"/>
        <pt x="185" y="495" on="1"/>
        <pt x="185" y="374" on="1"/>
        <pt x="185" y="355" on="0"/>
        <pt x="201" y="335" on="0"/>
        <pt x="224" y="335" on="1"/>
        <pt x="301" y="335" on="1"/>
        <pt x="301" y="213" on="1"/>
        <pt x="229" y="213" on="1"/>
        <pt x="202" y="213" on="0"/>
        <pt x="181" y="197" on="0"/>
        <pt x="181" y="171" on="1"/>
        <pt x="181" y="169" on="1"/>
        <pt x="181" y="149" on="0"/>
        <pt x="195" y="130" on="0"/>
        <pt x="237" y="122" on="0"/>
        <pt x="282" y="122" on="1"/>
        <pt x="325" y="122" on="0"/>
        <pt x="369" y="135" on="0"/>
        <pt x="384" y="160" on="0"/>
        <pt x="384" y="182" on="1"/>
        <pt x="384" y="322" on="1"/>
        <pt x="384" y="357" on="0"/>
        <pt x="353" y="386" on="0"/>
        <pt x="319" y="386" on="1"/>
        <pt x="302" y="386" on="0"/>
        <pt x="275" y="379" on="0"/>
        <pt x="272" y="377" on="1"/>
        <pt x="272" y="491" on="1"/>
        <pt x="278" y="493" on="0"/>
        <pt x="321" y="501" on="0"/>
        <pt x="346" y="501" on="1"/>
      </contour>
    </TTGlyph>
    <TTGlyph name="dvCHA" xMin="-40" yMin="-3" xMax="594" yMax="671">
      <contour>
        <pt x="40" y="520" on="0"/>
        <pt x="45" y="541" on="0"/>
        <pt x="50" y="553" on="0"/>
        <pt x="51" y="554" on="1"/>
        <pt x="-40" y="554" on="1"/>
        <pt x="-40" y="671" on="1"/>
        <pt x="594" y="671" on="1"/>
        <pt x="594" y="554" on="1"/>
        <pt x="461" y="554" on="1"/>
        <pt x="461" y="479" on="1"/>
        <pt x="490" y="464" on="0"/>
        <pt x="515" y="399" on="0"/>
        <pt x="515" y="347" on="1"/>
        <pt x="515" y="175" on="1"/>
        <pt x="515" y="112" on="0"/>
        <pt x="471" y="34" on="0"/>
        <pt x="367" y="-3" on="0"/>
        <pt x="277" y="-3" on="1"/>
        <pt x="147" y="-3" on="0"/>
        <pt x="35" y="74" on="0"/>
        <pt x="35" y="160" on="1"/>
        <pt x="35" y="183" on="1"/>
        <pt x="35" y="247" on="0"/>
        <pt x="79" y="274" on="1"/>
        <pt x="40" y="300" on="0"/>
        <pt x="40" y="368" on="1"/>
        <pt x="40" y="507" on="1"/>
      </contour>
      <contour>
        <pt x="180" y="355" on="0"/>
        <pt x="196" y="335" on="0"/>
        <pt x="219" y="335" on="1"/>
        <pt x="296" y="335" on="1"/>
        <pt x="296" y="213" on="1"/>
        <pt x="224" y="213" on="1"/>
        <pt x="197" y="213" on="0"/>
        <pt x="176" y="197" on="0"/>
        <pt x="176" y="171" on="1"/>
        <pt x="176" y="168" on="1"/>
        <pt x="176" y="148" on="0"/>
        <pt x="190" y="130" on="0"/>
        <pt x="232" y="122" on="0"/>
        <pt x="277" y="122" on="1"/>
        <pt x="320" y="122" on="0"/>
        <pt x="364" y="135" on="0"/>
        <pt x="379" y="160" on="0"/>
        <pt x="379" y="182" on="1"/>
        <pt x="379" y="322" on="1"/>
        <pt x="379" y="357" on="0"/>
        <pt x="350" y="386" on="0"/>
        <pt x="320" y="386" on="1"/>
        <pt x="299" y="386" on="0"/>
        <pt x="267" y="378" on="0"/>
        <pt x="267" y="377" on="1"/>
        <pt x="267" y="491" on="1"/>
        <pt x="267" y="492" on="0"/>
        <pt x="307" y="501" on="0"/>
        <pt x="331" y="501" on="1"/>
        <pt x="331" y="554" on="1"/>
        <pt x="191" y="554" on="1"/>
        <pt x="190" y="553" on="0"/>
        <pt x="185" y="543" on="0"/>
        <pt x="180" y="522" on="0"/>
        <pt x="180" y="507" on="1"/>
        <pt x="180" y="374" on="1"/>
      </contour>
    </TTGlyph>
    <TTGlyph name="dvCH_R" xMin="-40" yMin="-309" xMax="594" yMax="671">
      <component glyphName="dvCHA" x="0" y="0" flags="0x0"/>
      <component glyphName="dvRashtrasign" x="491" y="0" flags="0x0"/>
      <component glyphName="dvVirama" x="385" y="-80" flags="0x4"/>
    </TTGlyph>
    <TTGlyph name="dvCH_RA" xMin="-40" yMin="-99" xMax="594" yMax="671">
      <component glyphName="dvCHA" x="0" y="0" flags="0x0"/>
      <component glyphName="dvRashtrasign" x="491" y="0" flags="0x0"/>
    </TTGlyph>
    <TTGlyph name="dvCH_R_YA" xMin="-40" yMin="-99" xMax="1130" yMax="671">
      <contour>
        <pt x="1130" y="554" on="1"/>
        <pt x="1048" y="554" on="1"/>
        <pt x="1048" y="0" on="1"/>
        <pt x="908" y="0" on="1"/>
        <pt x="908" y="36" on="1"/>
        <pt x="860" y="26" on="0"/>
        <pt x="806" y="26" on="1"/>
        <pt x="703" y="26" on="0"/>
        <pt x="593" y="124" on="0"/>
        <pt x="593" y="210" on="1"/>
        <pt x="593" y="300" on="1"/>
        <pt x="672" y="300" on="1"/>
        <pt x="692" y="300" on="0"/>
        <pt x="706" y="313" on="0"/>
        <pt x="706" y="330" on="1"/>
        <pt x="706" y="345" on="1"/>
        <pt x="706" y="362" on="0"/>
        <pt x="692" y="375" on="0"/>
        <pt x="672" y="375" on="1"/>
        <pt x="514" y="375" on="1"/>
        <pt x="515" y="366" on="0"/>
        <pt x="515" y="347" on="1"/>
        <pt x="515" y="175" on="1"/>
        <pt x="515" y="108" on="0"/>
        <pt x="465" y="30" on="0"/>
        <pt x="407" y="12" on="1"/>
        <pt x="458" y="-99" on="1"/>
        <pt x="315" y="-99" on="1"/>
        <pt x="279" y="-3" on="1"/>
        <pt x="277" y="-3" on="1"/>
        <pt x="276" y="-3" on="1"/>
        <pt x="240" y="-99" on="1"/>
        <pt x="97" y="-99" on="1"/>
        <pt x="147" y="11" on="1"/>
        <pt x="88" y="27" on="0"/>
        <pt x="35" y="100" on="0"/>
        <pt x="35" y="160" on="1"/>
        <pt x="35" y="183" on="1"/>
        <pt x="35" y="247" on="0"/>
        <pt x="79" y="274" on="1"/>
        <pt x="40" y="300" on="0"/>
        <pt x="40" y="368" on="1"/>
        <pt x="40" y="507" on="1"/>
        <pt x="40" y="520" on="0"/>
        <pt x="45" y="541" on="0"/>
        <pt x="50" y="553" on="0"/>
        <pt x="51" y="554" on="1"/>
        <pt x="-40" y="554" on="1"/>
        <pt x="-40" y="671" on="1"/>
        <pt x="1130" y="671" on="1"/>
      </contour>
      <contour>
        <pt x="176" y="168" on="1"/>
        <pt x="176" y="148" on="0"/>
        <pt x="190" y="130" on="0"/>
        <pt x="232" y="122" on="0"/>
        <pt x="277" y="122" on="1"/>
        <pt x="320" y="122" on="0"/>
        <pt x="364" y="135" on="0"/>
        <pt x="379" y="160" on="0"/>
        <pt x="379" y="182" on="1"/>
        <pt x="379" y="322" on="1"/>
        <pt x="379" y="357" on="0"/>
        <pt x="350" y="386" on="0"/>
        <pt x="320" y="386" on="1"/>
        <pt x="299" y="386" on="0"/>
        <pt x="267" y="378" on="0"/>
        <pt x="267" y="377" on="1"/>
        <pt x="267" y="491" on="1"/>
        <pt x="267" y="492" on="0"/>
        <pt x="307" y="501" on="0"/>
        <pt x="331" y="501" on="1"/>
        <pt x="331" y="554" on="1"/>
        <pt x="191" y="554" on="1"/>
        <pt x="190" y="553" on="0"/>
        <pt x="185" y="543" on="0"/>
        <pt x="180" y="522" on="0"/>
        <pt x="180" y="507" on="1"/>
        <pt x="180" y="374" on="1"/>
        <pt x="180" y="355" on="0"/>
        <pt x="196" y="335" on="0"/>
        <pt x="219" y="335" on="1"/>
        <pt x="296" y="335" on="1"/>
        <pt x="296" y="213" on="1"/>
        <pt x="224" y="213" on="1"/>
        <pt x="197" y="213" on="0"/>
        <pt x="176" y="197" on="0"/>
        <pt x="176" y="171" on="1"/>
      </contour>
      <contour>
        <pt x="908" y="554" on="1"/>
        <pt x="461" y="554" on="1"/>
        <pt x="461" y="502" on="1"/>
        <pt x="667" y="502" on="1"/>
        <pt x="759" y="502" on="0"/>
        <pt x="842" y="435" on="0"/>
        <pt x="842" y="359" on="1"/>
        <pt x="842" y="322" on="1"/>
        <pt x="842" y="264" on="0"/>
        <pt x="787" y="207" on="0"/>
        <pt x="730" y="207" on="1"/>
        <pt x="730" y="206" on="1"/>
        <pt x="730" y="181" on="0"/>
        <pt x="768" y="156" on="0"/>
        <pt x="818" y="156" on="1"/>
        <pt x="865" y="156" on="0"/>
        <pt x="908" y="166" on="1"/>
      </contour>
    </TTGlyph>
</ttFont>
